<?xml version="1.0" encoding="UTF-8" standalone="no"?>
<svg
   version="1.0"
   width="1404pt"
   height="1279.838pt"
   viewBox="0 0 1404 1279.8382"
   preserveAspectRatio="xMidYMid"
   id="svg22"
   sodipodi:docname="item list border.svg"
   inkscape:version="1.2 (dc2aedaf03, 2022-05-15)"
   xmlns:inkscape="http://www.inkscape.org/namespaces/inkscape"
   xmlns:sodipodi="http://sodipodi.sourceforge.net/DTD/sodipodi-0.dtd"
   xmlns="http://www.w3.org/2000/svg"
   xmlns:svg="http://www.w3.org/2000/svg">
  <defs
     id="defs26">
    <inkscape:path-effect
       effect="mirror_symmetry"
       start_point="0,0"
       end_point="0,12979.894"
       center_point="0,6489.947"
       id="path-effect251"
       is_visible="true"
       lpeversion="1.2"
       lpesatellites=""
       mode="free"
       discard_orig_path="false"
       fuse_paths="false"
       oposite_fuse="false"
       split_items="false"
       split_open="false"
       link_styles="false" />
    <inkscape:path-effect
       effect="mirror_symmetry"
       start_point="497.47842,12799.295"
       end_point="497.47842,-2230.6244"
       center_point="497.47842,5284.3353"
       id="path-effect249"
       is_visible="true"
       lpeversion="1.2"
       lpesatellites=""
       mode="vertical"
       discard_orig_path="false"
       fuse_paths="false"
       oposite_fuse="false"
       split_items="false"
       split_open="false"
       link_styles="false" />
    <inkscape:path-effect
       effect="mirror_symmetry"
       start_point="7020,0.91321924"
       end_point="7020,12799.295"
       center_point="7020,6400.1039"
       id="path-effect247"
       is_visible="true"
       lpeversion="1.2"
       lpesatellites=""
       mode="free"
       discard_orig_path="false"
       fuse_paths="false"
       oposite_fuse="false"
       split_items="false"
       split_open="false"
       link_styles="false" />
  </defs>
  <sodipodi:namedview
     id="namedview24"
     pagecolor="#ffffff"
     bordercolor="#000000"
     borderopacity="0.25"
     inkscape:showpageshadow="2"
     inkscape:pageopacity="0.0"
     inkscape:pagecheckerboard="false"
     inkscape:deskcolor="#d1d1d1"
     inkscape:document-units="pt"
     showgrid="false"
     inkscape:zoom="0.25"
     inkscape:cx="540"
     inkscape:cy="1528"
     inkscape:window-width="1920"
     inkscape:window-height="1031"
     inkscape:window-x="0"
     inkscape:window-y="20"
     inkscape:window-maximized="1"
     inkscape:current-layer="svg22" />
  <metadata
     id="metadata2">
Created by potrace 1.15, written by Peter Selinger 2001-2017
</metadata>
  <g
     transform="matrix(0.1,0,0,-0.09999999,702,1279.9294)"
     fill="#000000"
     stroke="none"
     id="g20"
     class="UnoptimicedTransforms"
     inkscape:path-effect="#path-effect251">
    <path
       d="m 3050,12784 c -132,-36 -178,-88 -191,-222 -14,-134 -28,-165 -22,-47 7,121 -6,174 -48,209 -45,39 -134,37 -215,-4 -120,-60 -182,-140 -168,-216 6,-34 6,-34 -21,-24 -45,17 -98,11 -160,-19 -65,-31 -142,-102 -152,-139 -9,-39 4,-130 27,-177 20,-42 21,-45 4,-77 -22,-43 -22,-139 1,-195 9,-24 33,-56 51,-73 30,-26 43,-30 90,-30 h 55 l -20,-26 c -43,-54 -49,-139 -15,-206 8,-15 14,-29 14,-32 0,-2 -27,13 -60,35 -96,65 -167,89 -259,89 -152,0 -239,-32 -417,-150 -325,-218 -484,-495 -435,-756 53,-277 364,-580 756,-734 158,-63 272,-266 326,-583 35,-202 31,-199 67,-52 18,75 38,189 45,270 15,156 21,173 96,263 62,75 153,136 245,165 66,20 89,22 321,21 357,-1 537,-32 740,-128 256,-122 509,-398 598,-654 l 30,-87 2,-305 c 1,-174 7,-342 14,-390 44,-313 127,-554 252,-736 31,-44 49,-81 49,-100 0,-25 30,-122 54,-175 6,-14 -1,-14 -66,-3 -94,17 -128,17 -211,-1 -94,-20 -161,-52 -234,-113 -60,-51 -237,-249 -299,-337 -41,-57 -81,-170 -144,-402 -93,-341 -150,-540 -181,-625 -43,-118 -104,-231 -156,-288 -128,-143 -344,-159 -590,-45 -41,19 -73,30 -71,25 9,-24 138,-177 196,-231 122,-114 217,-160 331,-160 105,0 185,45 331,189 129,127 157,172 203,317 50,159 79,312 126,666 30,221 83,329 249,501 224,232 373,300 583,265 258,-44 487,-162 657,-340 137,-144 156,-299 59,-481 -40,-76 -138,-181 -209,-223 -121,-73 -372,-112 -512,-79 -158,37 -287,135 -359,272 -50,97 -52,160 -5,230 36,52 106,108 151,119 24,6 27,4 27,-18 0,-35 66,-91 156,-134 66,-32 75,-33 101,-21 128,61 95,360 -48,434 -16,8 -56,14 -93,14 -172,0 -381,-141 -467,-316 -78,-158 -37,-356 116,-563 99,-135 247,-261 368,-316 68,-31 194,-49 279,-40 94,9 178,35 315,97 278,125 465,298 533,491 62,176 17,379 -132,594 -52,75 -206,240 -286,305 l -43,36 38,6 c 497,89 874,367 1019,752 l 23,62 -52,22 c -76,33 -103,40 -190,49 -158,17 -342,-22 -532,-113 -117,-56 -140,-76 -216,-187 -84,-123 -136,-268 -161,-442 l -13,-87 -50,33 c -27,19 -79,49 -115,68 -124,65 -203,166 -259,334 -40,121 -61,243 -68,402 -3,73 -9,130 -14,127 -29,-18 -139,-374 -139,-454 -1,-58 -15,-18 -54,150 -69,299 -101,579 -78,671 9,36 34,68 134,174 311,327 371,376 463,377 84,2 267,-132 311,-227 36,-76 33,-149 -8,-211 -65,-96 -177,-135 -235,-83 l -26,24 19,-34 c 32,-59 155,-178 191,-185 69,-15 208,98 261,212 49,108 38,220 -40,381 -56,117 -157,218 -282,281 -86,44 -91,45 -180,45 -145,-1 -272,-47 -399,-145 l -66,-50 -6,38 c -32,222 -82,326 -225,472 -228,233 -797,514 -1215,602 -145,30 -404,33 -504,5 -199,-55 -342,-185 -415,-378 l -24,-63 -31,63 c -38,74 -99,143 -155,176 -23,13 -90,45 -151,70 -209,89 -398,203 -460,279 -45,56 -61,91 -75,163 -27,135 43,325 165,449 128,131 380,211 544,173 162,-37 321,-197 321,-321 -1,-79 -68,-185 -142,-224 -27,-14 -28,-14 -28,10 0,41 -63,81 -173,111 -45,13 -49,12 -77,-12 -101,-84 -25,-373 104,-397 129,-24 335,124 425,305 48,96 61,163 49,254 -9,63 -62,187 -105,243 -14,18 -23,36 -20,38 10,11 174,-39 254,-77 55,-26 93,-52 117,-81 20,-23 36,-46 36,-51 0,-20 90,-197 130,-258 70,-103 175,-200 265,-245 74,-37 84,-39 170,-39 86,0 96,2 169,39 140,69 321,273 361,408 25,86 20,175 -15,244 -88,175 -273,312 -410,302 -110,-8 -237,-93 -292,-195 -55,-103 -44,-153 44,-197 77,-39 173,-33 197,11 13,26 -20,122 -53,150 -33,28 -32,33 2,65 68,64 133,74 204,29 114,-72 163,-210 123,-346 -54,-188 -179,-301 -345,-313 -93,-6 -145,14 -204,79 -47,53 -126,199 -170,315 -35,93 -81,145 -164,186 -63,31 -73,33 -192,36 -84,2 -148,-2 -194,-12 l -70,-14 -37,41 -37,42 82,7 c 85,6 136,22 186,58 l 29,21 16,-30 c 32,-63 127,-79 230,-40 112,42 185,119 185,197 0,38 2,43 18,36 9,-4 41,-10 70,-12 45,-3 64,1 117,27 34,17 81,51 104,76 39,42 41,48 41,107 0,82 -15,132 -49,171 l -29,31 38,17 c 20,9 50,34 66,55 26,33 29,46 29,108 0,57 -5,82 -26,121 -36,70 -79,98 -146,93 l -52,-5 21,30 c 35,49 36,125 4,191 -45,93 -109,114 -236,80 z m -80,-670 c 50,-9 89,-19 86,-21 -7,-7 -168,17 -223,33 l -48,14 48,-5 c 26,-2 88,-12 137,-21 z m -6020,670 c 132,-36 178,-88 191,-222 14,-134 28,-165 22,-47 -7,121 6,174 48,209 45,39 134,37 215,-4 120,-60 182,-140 168,-216 -6,-34 -6,-34 21,-24 45,17 98,11 160,-19 65,-31 142,-102 152,-139 9,-39 -4,-130 -27,-177 -20,-42 -21,-45 -4,-77 22,-43 22,-139 -1,-195 -9,-24 -33,-56 -51,-73 -30,-26 -43,-30 -90,-30 h -55 l 20,-26 c 43,-54 49,-139 15,-206 -8,-15 -14,-29 -14,-32 0,-2 27,13 60,35 96,65 167,89 259,89 152,0 239,-32 417,-150 325,-218 484,-495 435,-756 -53,-277 -364,-580 -756,-734 -158,-63 -272,-266 -326,-583 -35,-202 -31,-199 -67,-52 -18,75 -38,189 -45,270 -15,156 -21,173 -96,263 -62,75 -153,136 -245,165 -66,20 -89,22 -321,21 -357,-1 -537,-32 -740,-128 -256,-122 -509,-398 -598,-654 l -30,-87 -2,-305 c -1,-174 -7,-342 -14,-390 -44,-313 -127,-554 -252,-736 -31,-44 -49,-81 -49,-100 0,-25 -30,-122 -54,-175 -6,-14 1,-14 66,-3 94,17 128,17 211,-1 94,-20 161,-52 234,-113 60,-51 237,-249 299,-337 41,-57 81,-170 144,-402 93,-341 150,-540 181,-625 43,-118 104,-231 156,-288 128,-143 344,-159 590,-45 41,19 73,30 71,25 -9,-24 -138,-177 -196,-231 -122,-114 -217,-160 -331,-160 -105,0 -185,45 -331,189 -129,127 -157,172 -203,317 -50,159 -79,312 -126,666 -30,221 -83,329 -249,501 -224,232 -373,300 -583,265 -258,-44 -487,-162 -657,-340 -137,-144 -156,-299 -59,-481 40,-76 138,-181 209,-223 121,-73 372,-112 512,-79 158,37 287,135 359,272 50,97 52,160 5,230 -36,52 -106,108 -151,119 -24,6 -27,4 -27,-18 0,-35 -66,-91 -156,-134 -66,-32 -75,-33 -101,-21 -128,61 -95,360 48,434 16,8 56,14 93,14 172,0 381,-141 467,-316 78,-158 37,-356 -116,-563 -99,-135 -247,-261 -368,-316 -68,-31 -194,-49 -279,-40 -94,9 -178,35 -315,97 -278,125 -465,298 -533,491 -62,176 -17,379 132,594 52,75 206,240 286,305 l 43,36 -38,6 c -497,89 -874,367 -1019,752 l -23,62 52,22 c 76,33 103,40 190,49 158,17 342,-22 532,-113 117,-56 140,-76 216,-187 84,-123 136,-268 161,-442 l 13,-87 50,33 c 27,19 79,49 115,68 124,65 203,166 259,334 40,121 61,243 68,402 3,73 9,130 14,127 29,-18 139,-374 139,-454 1,-58 15,-18 54,150 69,299 101,579 78,671 -9,36 -34,68 -134,174 -311,327 -371,376 -463,377 -84,2 -267,-132 -311,-227 -36,-76 -33,-149 8,-211 65,-96 177,-135 235,-83 l 26,24 -19,-34 c -32,-59 -155,-178 -191,-185 -69,-15 -208,98 -261,212 -49,108 -38,220 40,381 56,117 157,218 282,281 86,44 91,45 180,45 145,-1 272,-47 399,-145 l 66,-50 6,38 c 32,222 82,326 225,472 228,233 797,514 1215,602 145,30 404,33 504,5 199,-55 342,-185 415,-378 l 24,-63 31,63 c 38,74 99,143 155,176 23,13 90,45 151,70 209,89 398,203 460,279 45,56 61,91 75,163 27,135 -43,325 -165,449 -128,131 -380,211 -544,173 -162,-37 -321,-197 -321,-321 1,-79 68,-185 142,-224 27,-14 28,-14 28,10 0,41 63,81 173,111 45,13 49,12 77,-12 101,-84 25,-373 -104,-397 -129,-24 -335,124 -425,305 -48,96 -61,163 -49,254 9,63 62,187 105,243 14,18 23,36 20,38 -10,11 -174,-39 -254,-77 -55,-26 -93,-52 -117,-81 -20,-23 -36,-46 -36,-51 0,-20 -90,-197 -130,-258 -70,-103 -175,-200 -265,-245 -74,-37 -84,-39 -170,-39 -86,0 -96,2 -169,39 -140,69 -321,273 -361,408 -25,86 -20,175 15,244 88,175 273,312 410,302 110,-8 237,-93 292,-195 55,-103 44,-153 -44,-197 -77,-39 -173,-33 -197,11 -13,26 20,122 53,150 33,28 32,33 -2,65 -68,64 -133,74 -204,29 -114,-72 -163,-210 -123,-346 54,-188 179,-301 345,-313 93,-6 145,14 204,79 47,53 126,199 170,315 35,93 81,145 164,186 63,31 73,33 192,36 84,2 148,-2 194,-12 l 70,-14 37,41 37,42 -82,7 c -85,6 -136,22 -186,58 l -29,21 -16,-30 c -32,-63 -127,-79 -230,-40 -112,42 -185,119 -185,197 0,38 -2,43 -18,36 -9,-4 -41,-10 -70,-12 -45,-3 -64,1 -117,27 -34,17 -81,51 -104,76 -39,42 -41,48 -41,107 0,82 15,132 49,171 l 29,31 -38,17 c -20,9 -50,34 -66,55 -26,33 -29,46 -29,108 0,57 5,82 26,121 36,70 79,98 146,93 l 52,-5 -21,30 c -35,49 -36,125 -4,191 45,93 109,114 236,80 z m 80,-670 c -50,-9 -89,-19 -86,-21 7,-7 168,17 223,33 l 48,14 -48,-5 c -26,-2 -88,-12 -137,-21 z"
       id="path4"
       inkscape:original-d="m 3050,12784 c -132,-36 -178,-88 -191,-222 -14,-134 -28,-165 -22,-47 7,121 -6,174 -48,209 -45,39 -134,37 -215,-4 -120,-60 -182,-140 -168,-216 6,-34 6,-34 -21,-24 -45,17 -98,11 -160,-19 -65,-31 -142,-102 -152,-139 -9,-39 4,-130 27,-177 20,-42 21,-45 4,-77 -22,-43 -22,-139 1,-195 9,-24 33,-56 51,-73 30,-26 43,-30 90,-30 h 55 l -20,-26 c -43,-54 -49,-139 -15,-206 8,-15 14,-29 14,-32 0,-2 -27,13 -60,35 -96,65 -167,89 -259,89 -152,0 -239,-32 -417,-150 -325,-218 -484,-495 -435,-756 53,-277 364,-580 756,-734 158,-63 272,-266 326,-583 35,-202 31,-199 67,-52 18,75 38,189 45,270 15,156 21,173 96,263 62,75 153,136 245,165 66,20 89,22 321,21 357,-1 537,-32 740,-128 256,-122 509,-398 598,-654 l 30,-87 2,-305 c 1,-174 7,-342 14,-390 44,-313 127,-554 252,-736 31,-44 49,-81 49,-100 0,-25 30,-122 54,-175 6,-14 -1,-14 -66,-3 -94,17 -128,17 -211,-1 -94,-20 -161,-52 -234,-113 -60,-51 -237,-249 -299,-337 -41,-57 -81,-170 -144,-402 -93,-341 -150,-540 -181,-625 -43,-118 -104,-231 -156,-288 -128,-143 -344,-159 -590,-45 -41,19 -73,30 -71,25 9,-24 138,-177 196,-231 122,-114 217,-160 331,-160 105,0 185,45 331,189 129,127 157,172 203,317 50,159 79,312 126,666 30,221 83,329 249,501 224,232 373,300 583,265 258,-44 487,-162 657,-340 137,-144 156,-299 59,-481 -40,-76 -138,-181 -209,-223 -121,-73 -372,-112 -512,-79 -158,37 -287,135 -359,272 -50,97 -52,160 -5,230 36,52 106,108 151,119 24,6 27,4 27,-18 0,-35 66,-91 156,-134 66,-32 75,-33 101,-21 128,61 95,360 -48,434 -16,8 -56,14 -93,14 -172,0 -381,-141 -467,-316 -78,-158 -37,-356 116,-563 99,-135 247,-261 368,-316 68,-31 194,-49 279,-40 94,9 178,35 315,97 278,125 465,298 533,491 62,176 17,379 -132,594 -52,75 -206,240 -286,305 l -43,36 38,6 c 497,89 874,367 1019,752 l 23,62 -52,22 c -76,33 -103,40 -190,49 -158,17 -342,-22 -532,-113 -117,-56 -140,-76 -216,-187 -84,-123 -136,-268 -161,-442 l -13,-87 -50,33 c -27,19 -79,49 -115,68 -124,65 -203,166 -259,334 -40,121 -61,243 -68,402 -3,73 -9,130 -14,127 -29,-18 -139,-374 -139,-454 -1,-58 -15,-18 -54,150 -69,299 -101,579 -78,671 9,36 34,68 134,174 311,327 371,376 463,377 84,2 267,-132 311,-227 36,-76 33,-149 -8,-211 -65,-96 -177,-135 -235,-83 l -26,24 19,-34 c 32,-59 155,-178 191,-185 69,-15 208,98 261,212 49,108 38,220 -40,381 -56,117 -157,218 -282,281 -86,44 -91,45 -180,45 -145,-1 -272,-47 -399,-145 l -66,-50 -6,38 c -32,222 -82,326 -225,472 -228,233 -797,514 -1215,602 -145,30 -404,33 -504,5 -199,-55 -342,-185 -415,-378 l -24,-63 -31,63 c -38,74 -99,143 -155,176 -23,13 -90,45 -151,70 -209,89 -398,203 -460,279 -45,56 -61,91 -75,163 -27,135 43,325 165,449 128,131 380,211 544,173 162,-37 321,-197 321,-321 -1,-79 -68,-185 -142,-224 -27,-14 -28,-14 -28,10 0,41 -63,81 -173,111 -45,13 -49,12 -77,-12 -101,-84 -25,-373 104,-397 129,-24 335,124 425,305 48,96 61,163 49,254 -9,63 -62,187 -105,243 -14,18 -23,36 -20,38 10,11 174,-39 254,-77 55,-26 93,-52 117,-81 20,-23 36,-46 36,-51 0,-20 90,-197 130,-258 70,-103 175,-200 265,-245 74,-37 84,-39 170,-39 86,0 96,2 169,39 140,69 321,273 361,408 25,86 20,175 -15,244 -88,175 -273,312 -410,302 -110,-8 -237,-93 -292,-195 -55,-103 -44,-153 44,-197 77,-39 173,-33 197,11 13,26 -20,122 -53,150 -33,28 -32,33 2,65 68,64 133,74 204,29 114,-72 163,-210 123,-346 -54,-188 -179,-301 -345,-313 -93,-6 -145,14 -204,79 -47,53 -126,199 -170,315 -35,93 -81,145 -164,186 -63,31 -73,33 -192,36 -84,2 -148,-2 -194,-12 l -70,-14 -37,41 -37,42 82,7 c 85,6 136,22 186,58 l 29,21 16,-30 c 32,-63 127,-79 230,-40 112,42 185,119 185,197 0,38 2,43 18,36 9,-4 41,-10 70,-12 45,-3 64,1 117,27 34,17 81,51 104,76 39,42 41,48 41,107 0,82 -15,132 -49,171 l -29,31 38,17 c 20,9 50,34 66,55 26,33 29,46 29,108 0,57 -5,82 -26,121 -36,70 -79,98 -146,93 l -52,-5 21,30 c 35,49 36,125 4,191 -45,93 -109,114 -236,80 z m -80,-670 c 50,-9 89,-19 86,-21 -7,-7 -168,17 -223,33 l -48,14 48,-5 c 26,-2 88,-12 137,-21 z" />
    <path
       d="m 2823,9685 c -44,-19 -54,-65 -29,-126 13,-31 -22,-30 -53,1 -23,24 -38,30 -70,30 -82,0 -112,-83 -50,-141 29,-27 30,-29 14,-53 -16,-24 -18,-24 -41,-10 -40,27 -93,22 -120,-10 -32,-36 -30,-69 5,-108 24,-27 36,-33 70,-33 38,0 41,-1 41,-27 0,-18 -5,-28 -15,-28 -25,0 -55,-38 -55,-71 0,-76 67,-116 144,-84 16,7 17,6 7,-13 -29,-55 -3,-115 59,-133 33,-10 43,-9 64,5 28,18 40,21 31,6 -9,-15 21,-77 43,-89 27,-14 99,-14 107,0 5,6 12,3 21,-10 8,-10 30,-25 49,-31 46,-15 84,3 107,50 l 18,35 v -28 c 0,-43 49,-87 95,-87 28,0 44,7 66,31 16,17 29,27 29,21 0,-5 -7,-15 -15,-22 -26,-22 -19,-78 15,-112 26,-25 36,-29 68,-26 20,3 45,8 55,12 26,12 21,-13 -8,-36 -30,-24 -34,-75 -7,-108 18,-22 18,-23 -5,-46 -34,-34 -31,-85 7,-117 37,-32 40,-46 4,-18 -39,30 -89,27 -124,-7 -27,-27 -28,-28 -50,-10 -30,25 -85,23 -111,-3 -17,-17 -20,-28 -15,-57 4,-21 8,-53 9,-72 6,-71 41,-103 107,-99 25,2 45,-3 57,-13 35,-32 71,-39 109,-23 32,13 38,13 57,0 82,-57 180,46 113,118 -33,36 -14,45 25,13 40,-34 97,-35 127,-3 24,26 29,75 10,96 -11,11 -10,15 2,19 8,3 30,20 49,39 29,29 33,38 28,70 -7,38 -47,88 -79,99 -11,3 -18,13 -16,22 3,17 7,18 49,21 11,0 34,15 51,31 27,27 30,36 25,71 -7,50 -29,76 -85,101 -49,22 -50,38 -3,51 60,15 72,96 21,142 -10,9 -37,19 -59,22 -23,3 -41,10 -41,14 0,5 5,9 10,9 22,0 50,41 50,73 0,51 -46,90 -103,89 -62,-2 -79,19 -43,53 82,76 -42,202 -127,127 -30,-26 -42,0 -12,28 49,46 21,128 -49,146 -14,3 -26,13 -26,21 0,8 -13,28 -30,45 -25,25 -37,29 -74,27 -35,-2 -50,2 -76,24 -36,31 -84,35 -118,11 -21,-14 -22,-14 -22,9 0,29 -41,73 -77,81 -16,5 -39,0 -64,-12 -30,-15 -41,-16 -51,-7 -22,21 -61,25 -95,10 z m -5646,0 c 44,-19 54,-65 29,-126 -13,-31 22,-30 53,1 23,24 38,30 70,30 82,0 112,-83 50,-141 -29,-27 -30,-29 -14,-53 16,-24 18,-24 41,-10 40,27 93,22 120,-10 32,-36 30,-69 -5,-108 -24,-27 -36,-33 -70,-33 -38,0 -41,-1 -41,-27 0,-18 5,-28 15,-28 25,0 55,-38 55,-71 0,-76 -67,-116 -144,-84 -16,7 -17,6 -7,-13 29,-55 3,-115 -59,-133 -33,-10 -43,-9 -64,5 -28,18 -40,21 -31,6 9,-15 -21,-77 -43,-89 -27,-14 -99,-14 -107,0 -5,6 -12,3 -21,-10 -8,-10 -30,-25 -49,-31 -46,-15 -84,3 -107,50 l -18,35 v -28 c 0,-43 -49,-87 -95,-87 -28,0 -44,7 -66,31 -16,17 -29,27 -29,21 0,-5 7,-15 15,-22 26,-22 19,-78 -15,-112 -26,-25 -36,-29 -68,-26 -20,3 -45,8 -55,12 -26,12 -21,-13 8,-36 30,-24 34,-75 7,-108 -18,-22 -18,-23 5,-46 34,-34 31,-85 -7,-117 -37,-32 -40,-46 -4,-18 39,30 89,27 124,-7 27,-27 28,-28 50,-10 30,25 85,23 111,-3 17,-17 20,-28 15,-57 -4,-21 -8,-53 -9,-72 -6,-71 -41,-103 -107,-99 -25,2 -45,-3 -57,-13 -35,-32 -71,-39 -109,-23 -32,13 -38,13 -57,0 -82,-57 -180,46 -113,118 33,36 14,45 -25,13 -40,-34 -97,-35 -127,-3 -24,26 -29,75 -10,96 11,11 10,15 -2,19 -8,3 -30,20 -49,39 -29,29 -33,38 -28,70 7,38 47,88 79,99 11,3 18,13 16,22 -3,17 -7,18 -49,21 -11,0 -34,15 -51,31 -27,27 -30,36 -25,71 7,50 29,76 85,101 49,22 50,38 3,51 -60,15 -72,96 -21,142 10,9 37,19 59,22 23,3 41,10 41,14 0,5 -5,9 -10,9 -22,0 -50,41 -50,73 0,51 46,90 103,89 62,-2 79,19 43,53 -82,76 42,202 127,127 30,-26 42,0 12,28 -49,46 -21,128 49,146 14,3 26,13 26,21 0,8 13,28 30,45 25,25 37,29 74,27 35,-2 50,2 76,24 36,31 84,35 118,11 21,-14 22,-14 22,9 0,29 41,73 77,81 16,5 39,0 64,-12 30,-15 41,-16 51,-7 22,21 61,25 95,10 z"
       id="path6"
       inkscape:original-d="m 2823,9685 c -44,-19 -54,-65 -29,-126 13,-31 -22,-30 -53,1 -23,24 -38,30 -70,30 -82,0 -112,-83 -50,-141 29,-27 30,-29 14,-53 -16,-24 -18,-24 -41,-10 -40,27 -93,22 -120,-10 -32,-36 -30,-69 5,-108 24,-27 36,-33 70,-33 38,0 41,-1 41,-27 0,-18 -5,-28 -15,-28 -25,0 -55,-38 -55,-71 0,-76 67,-116 144,-84 16,7 17,6 7,-13 -29,-55 -3,-115 59,-133 33,-10 43,-9 64,5 28,18 40,21 31,6 -9,-15 21,-77 43,-89 27,-14 99,-14 107,0 5,6 12,3 21,-10 8,-10 30,-25 49,-31 46,-15 84,3 107,50 l 18,35 v -28 c 0,-43 49,-87 95,-87 28,0 44,7 66,31 16,17 29,27 29,21 0,-5 -7,-15 -15,-22 -26,-22 -19,-78 15,-112 26,-25 36,-29 68,-26 20,3 45,8 55,12 26,12 21,-13 -8,-36 -30,-24 -34,-75 -7,-108 18,-22 18,-23 -5,-46 -34,-34 -31,-85 7,-117 37,-32 40,-46 4,-18 -39,30 -89,27 -124,-7 -27,-27 -28,-28 -50,-10 -30,25 -85,23 -111,-3 -17,-17 -20,-28 -15,-57 4,-21 8,-53 9,-72 6,-71 41,-103 107,-99 25,2 45,-3 57,-13 35,-32 71,-39 109,-23 32,13 38,13 57,0 82,-57 180,46 113,118 -33,36 -14,45 25,13 40,-34 97,-35 127,-3 24,26 29,75 10,96 -11,11 -10,15 2,19 8,3 30,20 49,39 29,29 33,38 28,70 -7,38 -47,88 -79,99 -11,3 -18,13 -16,22 3,17 7,18 49,21 11,0 34,15 51,31 27,27 30,36 25,71 -7,50 -29,76 -85,101 -49,22 -50,38 -3,51 60,15 72,96 21,142 -10,9 -37,19 -59,22 -23,3 -41,10 -41,14 0,5 5,9 10,9 22,0 50,41 50,73 0,51 -46,90 -103,89 -62,-2 -79,19 -43,53 82,76 -42,202 -127,127 -30,-26 -42,0 -12,28 49,46 21,128 -49,146 -14,3 -26,13 -26,21 0,8 -13,28 -30,45 -25,25 -37,29 -74,27 -35,-2 -50,2 -76,24 -36,31 -84,35 -118,11 -21,-14 -22,-14 -22,9 0,29 -41,73 -77,81 -16,5 -39,0 -64,-12 -30,-15 -41,-16 -51,-7 -22,21 -61,25 -95,10 z" />
    <path
       d="m 1352,8816 c -98,-32 -161,-114 -169,-220 -5,-62 -6,-64 -37,-69 -17,-3 -45,-9 -62,-12 -27,-6 -32,-4 -37,17 -11,42 -83,114 -138,138 -76,32 -172,26 -230,-15 -99,-70 -118,-211 -43,-312 30,-40 30,-45 -1,-81 -22,-26 -72,-125 -88,-174 -5,-15 -10,-15 -51,8 -199,111 -411,-82 -310,-284 51,-102 159,-161 268,-148 l 51,7 13,-89 c 32,-239 146,-457 336,-647 224,-223 592,-411 876,-450 167,-22 558,-31 730,-16 459,41 836,177 1089,394 101,86 203,247 397,624 l 119,231 h 68 c 84,0 147,30 194,91 95,123 49,298 -94,358 -40,16 -123,17 -177,1 -54,-16 -131,-93 -145,-144 -16,-59 -13,-124 9,-173 11,-24 19,-45 18,-46 -5,-5 -183,-102 -225,-124 l -42,-21 -17,35 c -25,53 -68,79 -139,83 -53,3 -65,0 -106,-26 -56,-36 -99,-114 -99,-179 0,-48 -15,-57 -86,-51 l -39,3 3,52 c 5,65 -23,131 -68,163 -71,51 -181,32 -244,-42 l -34,-40 -59,37 c -32,21 -59,38 -61,40 -1,1 5,18 13,38 21,51 19,162 -4,213 -41,90 -138,155 -234,156 -75,2 -112,-9 -162,-48 -56,-42 -63,-43 -32,-1 73,98 61,236 -29,336 -112,124 -288,142 -399,40 l -41,-38 -46,30 c -43,28 -46,32 -51,85 -20,189 -214,326 -385,270 z m -2704,0 c 98,-32 161,-114 169,-220 5,-62 6,-64 37,-69 17,-3 45,-9 62,-12 27,-6 32,-4 37,17 11,42 83,114 138,138 76,32 172,26 230,-15 99,-70 118,-211 43,-312 -30,-40 -30,-45 1,-81 22,-26 72,-125 88,-174 5,-15 10,-15 51,8 199,111 411,-82 310,-284 -51,-102 -159,-161 -268,-148 l -51,7 -13,-89 c -32,-239 -146,-457 -336,-647 -224,-223 -592,-411 -876,-450 -167,-22 -558,-31 -730,-16 -459,41 -836,177 -1089,394 -101,86 -203,247 -397,624 l -119,231 h -68 c -84,0 -147,30 -194,91 -95,123 -49,298 94,358 40,16 123,17 177,1 54,-16 131,-93 145,-144 16,-59 13,-124 -9,-173 -11,-24 -19,-45 -18,-46 5,-5 183,-102 225,-124 l 42,-21 17,35 c 25,53 68,79 139,83 53,3 65,0 106,-26 56,-36 99,-114 99,-179 0,-48 15,-57 86,-51 l 39,3 -3,52 c -5,65 23,131 68,163 71,51 181,32 244,-42 l 34,-40 59,37 c 32,21 59,38 61,40 1,1 -5,18 -13,38 -21,51 -19,162 4,213 41,90 138,155 234,156 75,2 112,-9 162,-48 56,-42 63,-43 32,-1 -73,98 -61,236 29,336 112,124 288,142 399,40 l 41,-38 46,30 c 43,28 46,32 51,85 20,189 214,326 385,270 z"
       id="path8"
       inkscape:original-d="m 1352,8816 c -98,-32 -161,-114 -169,-220 -5,-62 -6,-64 -37,-69 -17,-3 -45,-9 -62,-12 -27,-6 -32,-4 -37,17 -11,42 -83,114 -138,138 -76,32 -172,26 -230,-15 -99,-70 -118,-211 -43,-312 30,-40 30,-45 -1,-81 -22,-26 -72,-125 -88,-174 -5,-15 -10,-15 -51,8 -199,111 -411,-82 -310,-284 51,-102 159,-161 268,-148 l 51,7 13,-89 c 32,-239 146,-457 336,-647 224,-223 592,-411 876,-450 167,-22 558,-31 730,-16 459,41 836,177 1089,394 101,86 203,247 397,624 l 119,231 h 68 c 84,0 147,30 194,91 95,123 49,298 -94,358 -40,16 -123,17 -177,1 -54,-16 -131,-93 -145,-144 -16,-59 -13,-124 9,-173 11,-24 19,-45 18,-46 -5,-5 -183,-102 -225,-124 l -42,-21 -17,35 c -25,53 -68,79 -139,83 -53,3 -65,0 -106,-26 -56,-36 -99,-114 -99,-179 0,-48 -15,-57 -86,-51 l -39,3 3,52 c 5,65 -23,131 -68,163 -71,51 -181,32 -244,-42 l -34,-40 -59,37 c -32,21 -59,38 -61,40 -1,1 5,18 13,38 21,51 19,162 -4,213 -41,90 -138,155 -234,156 -75,2 -112,-9 -162,-48 -56,-42 -63,-43 -32,-1 73,98 61,236 -29,336 -112,124 -288,142 -399,40 l -41,-38 -46,30 c -43,28 -46,32 -51,85 -20,189 -214,326 -385,270 z" />
    <path
       d="m 6340,7470 c -75,-25 -120,-75 -120,-131 v -41 l -26,17 c -56,37 -180,11 -229,-46 -33,-40 -40,-89 -23,-157 8,-31 18,-64 21,-72 5,-11 -4,-20 -33,-32 -82,-34 -103,-138 -49,-243 31,-61 64,-86 116,-87 h 41 l -19,-32 c -25,-42 -24,-100 5,-162 33,-72 65,-94 135,-94 31,1 73,7 94,14 36,13 38,13 58,-15 29,-41 86,-56 156,-41 98,20 163,79 163,148 v 32 l 37,-19 c 21,-10 47,-19 58,-19 43,0 118,33 152,68 35,35 35,35 31,111 -3,42 -8,83 -12,92 -6,13 0,18 27,23 56,10 97,69 97,140 0,95 -57,188 -124,200 l -35,7 19,32 c 41,67 14,193 -53,241 -22,16 -43,20 -100,20 -73,0 -104,-10 -143,-46 l -22,-19 -6,34 c -7,38 -37,70 -79,86 -40,15 -74,13 -137,-9 z m -12680,0 c 75,-25 120,-75 120,-131 v -41 l 26,17 c 56,37 180,11 229,-46 33,-40 40,-89 23,-157 -8,-31 -18,-64 -21,-72 -5,-11 4,-20 33,-32 82,-34 103,-138 49,-243 -31,-61 -64,-86 -116,-87 h -41 l 19,-32 c 25,-42 24,-100 -5,-162 -33,-72 -65,-94 -135,-94 -31,1 -73,7 -94,14 -36,13 -38,13 -58,-15 -29,-41 -86,-56 -156,-41 -98,20 -163,79 -163,148 v 32 l -37,-19 c -21,-10 -47,-19 -58,-19 -43,0 -118,33 -152,68 -35,35 -35,35 -31,111 3,42 8,83 12,92 6,13 0,18 -27,23 -56,10 -97,69 -97,140 0,95 57,188 124,200 l 35,7 -19,32 c -41,67 -14,193 53,241 22,16 43,20 100,20 73,0 104,-10 143,-46 l 22,-19 6,34 c 7,38 37,70 79,86 40,15 74,13 137,-9 z"
       id="path10"
       inkscape:original-d="m 6340,7470 c -75,-25 -120,-75 -120,-131 v -41 l -26,17 c -56,37 -180,11 -229,-46 -33,-40 -40,-89 -23,-157 8,-31 18,-64 21,-72 5,-11 -4,-20 -33,-32 -82,-34 -103,-138 -49,-243 31,-61 64,-86 116,-87 h 41 l -19,-32 c -25,-42 -24,-100 5,-162 33,-72 65,-94 135,-94 31,1 73,7 94,14 36,13 38,13 58,-15 29,-41 86,-56 156,-41 98,20 163,79 163,148 v 32 l 37,-19 c 21,-10 47,-19 58,-19 43,0 118,33 152,68 35,35 35,35 31,111 -3,42 -8,83 -12,92 -6,13 0,18 27,23 56,10 97,69 97,140 0,95 -57,188 -124,200 l -35,7 19,32 c 41,67 14,193 -53,241 -22,16 -43,20 -100,20 -73,0 -104,-10 -143,-46 l -22,-19 -6,34 c -7,38 -37,70 -79,86 -40,15 -74,13 -137,-9 z" />
    <path
       d="m 1988,5995 c -127,-32 -271,-126 -391,-255 -155,-167 -224,-346 -214,-550 8,-152 35,-198 191,-322 110,-88 182,-128 234,-128 50,0 107,35 153,93 83,103 95,166 57,275 -34,97 -82,132 -182,132 -33,0 -45,-7 -77,-40 -46,-48 -70,-92 -79,-140 l -6,-35 -37,67 c -88,155 -105,273 -54,360 65,111 294,248 485,292 134,30 169,20 303,-86 169,-134 248,-240 284,-378 26,-100 15,-210 -40,-410 -105,-381 -169,-533 -281,-667 -85,-100 -149,-203 -376,-601 -99,-173 -204,-353 -235,-400 -132,-205 -320,-432 -357,-432 -8,0 -58,-21 -112,-47 -167,-81 -267,-72 -363,33 -53,57 -71,101 -71,170 0,61 16,70 91,50 71,-20 111,-14 139,21 54,69 -5,286 -91,337 -37,22 -98,20 -156,-5 -65,-28 -98,-62 -114,-117 -6,-26 -13,-48 -14,-49 -1,-2 -19,6 -40,17 -67,34 -153,20 -238,-38 -66,-46 -90,-89 -85,-157 2,-46 1,-54 -12,-48 -8,4 -42,8 -75,10 -52,3 -67,0 -113,-27 -29,-17 -66,-50 -83,-73 -29,-39 -31,-46 -25,-102 4,-36 18,-84 35,-119 27,-55 28,-61 15,-92 -29,-68 -9,-177 47,-253 32,-45 79,-71 128,-71 h 29 l -20,-37 c -39,-76 -9,-203 66,-272 49,-46 203,-38 280,14 l 35,24 20,-35 c 33,-55 75,-76 146,-71 139,10 257,116 239,212 l -6,35 36,-15 c 66,-28 135,-16 213,36 22,16 51,45 64,65 21,35 22,41 11,111 -12,77 -31,123 -64,160 l -21,22 29,6 c 210,46 399,223 532,499 49,100 170,302 149,246 -4,-8 -27,-65 -52,-126 -48,-118 -96,-289 -117,-419 -18,-115 -15,-408 5,-520 30,-161 79,-319 143,-462 4,-7 -13,-4 -45,8 -63,24 -173,25 -256,4 -130,-34 -223,-96 -440,-290 -218,-195 -323,-252 -484,-262 -95,-7 -91,-15 23,-45 86,-22 230,-24 311,-3 186,48 371,182 509,368 104,141 155,172 273,165 93,-5 157,-37 185,-92 11,-22 49,-84 84,-136 176,-265 411,-499 689,-685 112,-75 408,-224 500,-252 95,-28 275,-24 385,10 236,72 439,205 686,451 209,209 388,444 438,577 38,101 51,212 37,322 -22,172 -111,389 -240,585 -34,51 -56,90 -49,85 7,-4 38,-24 68,-44 95,-62 183,-92 286,-97 109,-5 178,12 274,68 151,87 352,176 480,210 158,42 278,11 384,-100 86,-90 138,-211 151,-347 8,-85 -26,-226 -81,-341 -43,-90 -150,-203 -227,-241 -100,-48 -240,-65 -330,-40 -87,24 -147,121 -147,239 0,56 11,83 25,60 12,-19 63,-10 131,25 123,61 147,102 103,174 -29,47 -54,68 -129,103 -87,41 -179,45 -229,9 -46,-33 -89,-129 -100,-222 -25,-223 71,-439 231,-520 157,-79 420,-79 641,1 118,43 187,89 243,163 114,152 148,284 148,577 0,149 -3,188 -22,260 -65,245 -203,388 -432,446 -81,21 -336,14 -449,-11 -163,-36 -349,-109 -513,-200 -104,-58 -251,-56 -432,5 -92,31 -252,105 -346,161 l -54,32 19,-29 c 293,-444 409,-883 319,-1204 l -17,-61 -22,56 c -23,55 -23,55 -4,92 25,50 25,132 -1,183 -30,58 -94,93 -174,93 -82,0 -148,-30 -207,-93 l -47,-50 -23,35 c -14,21 -46,46 -76,61 -44,22 -63,26 -116,22 -94,-6 -186,-60 -224,-132 -13,-26 -16,-27 -25,-12 -8,14 -1,26 36,59 56,53 85,116 86,184 0,63 -13,99 -48,136 -29,31 -92,67 -117,67 -10,0 -5,13 20,45 98,130 61,288 -82,341 -26,9 -49,18 -50,19 -1,1 2,18 8,38 l 10,37 39,-20 c 52,-26 159,-27 216,-1 171,78 221,296 91,395 -19,14 -39,26 -45,26 -18,0 -14,17 5,24 11,5 25,-4 46,-29 44,-54 94,-75 174,-75 77,0 129,20 185,69 71,62 107,179 79,254 -7,19 -6,27 4,30 18,8 25,-2 25,-33 0,-35 44,-100 87,-130 55,-37 163,-41 235,-7 60,27 119,82 138,127 14,35 16,35 63,15 80,-33 194,-9 274,59 67,57 103,183 73,260 -10,28 0,35 19,13 19,-24 87,-40 148,-35 214,15 335,258 198,398 -30,30 -35,41 -23,45 8,3 27,1 42,-5 48,-18 136,-12 191,14 71,32 109,68 139,128 73,146 -18,308 -172,308 h -39 l -7,53 c -12,101 -14,97 57,97 146,1 267,117 267,258 0,207 -265,275 -418,107 l -50,-54 -17,26 c -10,14 -36,46 -58,70 l -41,44 48,42 c 183,156 88,415 -144,394 -110,-10 -200,-81 -239,-189 l -10,-27 -58,16 c -32,9 -59,17 -61,18 -1,1 10,23 24,50 92,164 -46,341 -237,305 -60,-12 -140,-59 -169,-101 l -21,-28 -35,24 c -102,69 -246,45 -341,-57 -58,-63 -81,-148 -60,-221 l 8,-29 -33,25 c -48,36 -103,50 -164,44 -98,-10 -207,-91 -234,-173 -10,-31 -14,-33 -38,-27 -15,5 -53,7 -84,7 -143,-3 -268,-128 -268,-269 0,-28 -4,-32 -45,-44 -50,-15 -137,-86 -160,-131 -65,-126 -11,-271 114,-309 l 44,-13 -31,-31 c -29,-29 -32,-30 -49,-14 -53,47 -152,60 -239,30 -72,-25 -148,-104 -169,-178 -34,-117 22,-225 135,-259 l 36,-11 -28,-63 -28,-62 -53,6 c -79,9 -153,-15 -215,-71 -70,-63 -95,-119 -90,-199 6,-100 65,-167 163,-188 43,-9 53,-21 37,-44 -4,-6 -31,-14 -61,-17 -157,-18 -277,-155 -256,-292 16,-107 129,-187 242,-171 l 43,6 v -43 c 0,-43 0,-43 -57,-67 -81,-33 -172,-126 -201,-203 -51,-136 -7,-266 112,-330 35,-19 57,-22 148,-22 h 106 l 11,-34 c 6,-19 9,-35 8,-36 -23,-7 -123,-86 -143,-113 -146,-191 -61,-421 167,-448 l 55,-6 -23,-46 c -48,-94 -20,-208 65,-267 40,-27 51,-30 125,-30 134,0 204,50 274,193 0,2 15,-4 33,-13 l 31,-16 -29,-37 c -90,-114 -93,-224 -8,-308 49,-49 107,-69 183,-61 64,7 145,49 186,97 l 30,36 40,-20 c 57,-28 133,-32 198,-11 59,20 153,104 164,147 6,24 9,25 74,20 73,-5 127,8 174,40 16,11 30,19 32,17 2,-2 -22,-39 -53,-82 -48,-65 -73,-88 -154,-141 -213,-140 -421,-225 -602,-247 -274,-34 -564,82 -952,382 -122,94 -210,187 -279,293 -217,335 -347,804 -404,1464 l -17,206 52,75 c 28,42 107,166 174,276 131,215 187,294 293,420 102,119 180,242 267,420 196,398 259,760 169,965 -43,98 -172,274 -273,375 -165,164 -295,223 -506,231 -80,2 -133,-1 -172,-11 z m 2221,-716 c 1,-11 -32,-20 -39,-12 -4,4 -10,21 -14,37 l -7,28 30,-23 c 16,-13 30,-27 30,-30 z m 931,-1489 c 0,-5 -2,-10 -4,-10 -3,0 -8,5 -11,10 -3,6 -1,10 4,10 6,0 11,-4 11,-10 z M 773,2552 l 31,-32 -54,18 c -50,17 -55,22 -58,51 -2,18 -1,40 3,49 4,12 10,8 26,-19 12,-19 35,-49 52,-67 z m 3316,-913 c -16,-10 -23,-4 -14,10 3,6 11,8 17,5 6,-4 5,-9 -3,-15 z m -6077,4356 c 127,-32 271,-126 391,-255 155,-167 224,-346 214,-550 -8,-152 -35,-198 -191,-322 -110,-88 -182,-128 -234,-128 -50,0 -107,35 -153,93 -83,103 -95,166 -57,275 34,97 82,132 182,132 33,0 45,-7 77,-40 46,-48 70,-92 79,-140 l 6,-35 37,67 c 88,155 105,273 54,360 -65,111 -294,248 -485,292 -134,30 -169,20 -303,-86 -169,-134 -248,-240 -284,-378 -26,-100 -15,-210 40,-410 105,-381 169,-533 281,-667 85,-100 149,-203 376,-601 99,-173 204,-353 235,-400 132,-205 320,-432 357,-432 8,0 58,-21 112,-47 167,-81 267,-72 363,33 53,57 71,101 71,170 0,61 -16,70 -91,50 -71,-20 -111,-14 -139,21 -54,69 5,286 91,337 37,22 98,20 156,-5 65,-28 98,-62 114,-117 6,-26 13,-48 14,-49 1,-2 19,6 40,17 67,34 153,20 238,-38 66,-46 90,-89 85,-157 -2,-46 -1,-54 12,-48 8,4 42,8 75,10 52,3 67,0 113,-27 29,-17 66,-50 83,-73 29,-39 31,-46 25,-102 -4,-36 -18,-84 -35,-119 -27,-55 -28,-61 -15,-92 29,-68 9,-177 -47,-253 -32,-45 -79,-71 -128,-71 h -29 l 20,-37 c 39,-76 9,-203 -66,-272 -49,-46 -203,-38 -280,14 l -35,24 -20,-35 c -33,-55 -75,-76 -146,-71 -139,10 -257,116 -239,212 l 6,35 -36,-15 c -66,-28 -135,-16 -213,36 -22,16 -51,45 -64,65 -21,35 -22,41 -11,111 12,77 31,123 64,160 l 21,22 -29,6 c -210,46 -399,223 -532,499 -49,100 -170,302 -149,246 4,-8 27,-65 52,-126 48,-118 96,-289 117,-419 18,-115 15,-408 -5,-520 -30,-161 -79,-319 -143,-462 -4,-7 13,-4 45,8 63,24 173,25 256,4 130,-34 223,-96 440,-290 218,-195 323,-252 484,-262 95,-7 91,-15 -23,-45 -86,-22 -230,-24 -311,-3 -186,48 -371,182 -509,368 -104,141 -155,172 -273,165 -93,-5 -157,-37 -185,-92 -11,-22 -49,-84 -84,-136 -176,-265 -411,-499 -689,-685 -112,-75 -408,-224 -500,-252 -95,-28 -275,-24 -385,10 -236,72 -439,205 -686,451 -209,209 -388,444 -438,577 -38,101 -51,212 -37,322 22,172 111,389 240,585 34,51 56,90 49,85 -7,-4 -38,-24 -68,-44 -95,-62 -183,-92 -286,-97 -109,-5 -178,12 -274,68 -151,87 -352,176 -480,210 -158,42 -278,11 -384,-100 -86,-90 -138,-211 -151,-347 -8,-85 26,-226 81,-341 43,-90 150,-203 227,-241 100,-48 240,-65 330,-40 87,24 147,121 147,239 0,56 -11,83 -25,60 -12,-19 -63,-10 -131,25 -123,61 -147,102 -103,174 29,47 54,68 129,103 87,41 179,45 229,9 46,-33 89,-129 100,-222 25,-223 -71,-439 -231,-520 -157,-79 -420,-79 -641,1 -118,43 -187,89 -243,163 -114,152 -148,284 -148,577 0,149 3,188 22,260 65,245 203,388 432,446 81,21 336,14 449,-11 163,-36 349,-109 513,-200 104,-58 251,-56 432,5 92,31 252,105 346,161 l 54,32 -19,-29 c -293,-444 -409,-883 -319,-1204 l 17,-61 22,56 c 23,55 23,55 4,92 -25,50 -25,132 1,183 30,58 94,93 174,93 82,0 148,-30 207,-93 l 47,-50 23,35 c 14,21 46,46 76,61 44,22 63,26 116,22 94,-6 186,-60 224,-132 13,-26 16,-27 25,-12 8,14 1,26 -36,59 -56,53 -85,116 -86,184 0,63 13,99 48,136 29,31 92,67 117,67 10,0 5,13 -20,45 -98,130 -61,288 82,341 26,9 49,18 50,19 1,1 -2,18 -8,38 l -10,37 -39,-20 c -52,-26 -159,-27 -216,-1 -171,78 -221,296 -91,395 19,14 39,26 45,26 18,0 14,17 -5,24 -11,5 -25,-4 -46,-29 -44,-54 -94,-75 -174,-75 -77,0 -129,20 -185,69 -71,62 -107,179 -79,254 7,19 6,27 -4,30 -18,8 -25,-2 -25,-33 0,-35 -44,-100 -87,-130 -55,-37 -163,-41 -235,-7 -60,27 -119,82 -138,127 -14,35 -16,35 -63,15 -80,-33 -194,-9 -274,59 -67,57 -103,183 -73,260 10,28 0,35 -19,13 -19,-24 -87,-40 -148,-35 -214,15 -335,258 -198,398 30,30 35,41 23,45 -8,3 -27,1 -42,-5 -48,-18 -136,-12 -191,14 -71,32 -109,68 -139,128 -73,146 18,308 172,308 h 39 l 7,53 c 12,101 14,97 -57,97 -146,1 -267,117 -267,258 0,207 265,275 418,107 l 50,-54 17,26 c 10,14 36,46 58,70 l 41,44 -48,42 c -183,156 -88,415 144,394 110,-10 200,-81 239,-189 l 10,-27 58,16 c 32,9 59,17 61,18 1,1 -10,23 -24,50 -92,164 46,341 237,305 60,-12 140,-59 169,-101 l 21,-28 35,24 c 102,69 246,45 341,-57 58,-63 81,-148 60,-221 l -8,-29 33,25 c 48,36 103,50 164,44 98,-10 207,-91 234,-173 10,-31 14,-33 38,-27 15,5 53,7 84,7 143,-3 268,-128 268,-269 0,-28 4,-32 45,-44 50,-15 137,-86 160,-131 65,-126 11,-271 -114,-309 l -44,-13 31,-31 c 29,-29 32,-30 49,-14 53,47 152,60 239,30 72,-25 148,-104 169,-178 34,-117 -22,-225 -135,-259 l -36,-11 28,-63 28,-62 53,6 c 79,9 153,-15 215,-71 70,-63 95,-119 90,-199 -6,-100 -65,-167 -163,-188 -43,-9 -53,-21 -37,-44 4,-6 31,-14 61,-17 157,-18 277,-155 256,-292 -16,-107 -129,-187 -242,-171 l -43,6 v -43 c 0,-43 0,-43 57,-67 81,-33 172,-126 201,-203 51,-136 7,-266 -112,-330 -35,-19 -57,-22 -148,-22 h -106 l -11,-34 c -6,-19 -9,-35 -8,-36 23,-7 123,-86 143,-113 146,-191 61,-421 -167,-448 l -55,-6 23,-46 c 48,-94 20,-208 -65,-267 -40,-27 -51,-30 -125,-30 -134,0 -204,50 -274,193 0,2 -15,-4 -33,-13 l -31,-16 29,-37 c 90,-114 93,-224 8,-308 -49,-49 -107,-69 -183,-61 -64,7 -145,49 -186,97 l -30,36 -40,-20 c -57,-28 -133,-32 -198,-11 -59,20 -153,104 -164,147 -6,24 -9,25 -74,20 -73,-5 -127,8 -174,40 -16,11 -30,19 -32,17 -2,-2 22,-39 53,-82 48,-65 73,-88 154,-141 213,-140 421,-225 602,-247 274,-34 564,82 952,382 122,94 210,187 279,293 217,335 347,804 404,1464 l 17,206 -52,75 c -28,42 -107,166 -174,276 -131,215 -187,294 -293,420 -102,119 -180,242 -267,420 -196,398 -259,760 -169,965 43,98 172,274 273,375 165,164 295,223 506,231 80,2 133,-1 172,-11 z m -2221,-716 c -1,-11 32,-20 39,-12 4,4 10,21 14,37 l 7,28 -30,-23 c -16,-13 -30,-27 -30,-30 z m -931,-1489 c 0,-5 2,-10 4,-10 3,0 8,5 11,10 3,6 1,10 -4,10 -6,0 -11,-4 -11,-10 z m 4367,-1238 -31,-32 54,18 c 50,17 55,22 58,51 2,18 1,40 -3,49 -4,12 -10,8 -26,-19 -12,-19 -35,-49 -52,-67 z m -3316,-913 c 16,-10 23,-4 14,10 -3,6 -11,8 -17,5 -6,-4 -5,-9 3,-15 z"
       id="path12"
       inkscape:original-d="m 1988,5995 c -127,-32 -271,-126 -391,-255 -155,-167 -224,-346 -214,-550 8,-152 35,-198 191,-322 110,-88 182,-128 234,-128 50,0 107,35 153,93 83,103 95,166 57,275 -34,97 -82,132 -182,132 -33,0 -45,-7 -77,-40 -46,-48 -70,-92 -79,-140 l -6,-35 -37,67 c -88,155 -105,273 -54,360 65,111 294,248 485,292 134,30 169,20 303,-86 169,-134 248,-240 284,-378 26,-100 15,-210 -40,-410 -105,-381 -169,-533 -281,-667 -85,-100 -149,-203 -376,-601 -99,-173 -204,-353 -235,-400 -132,-205 -320,-432 -357,-432 -8,0 -58,-21 -112,-47 -167,-81 -267,-72 -363,33 -53,57 -71,101 -71,170 0,61 16,70 91,50 71,-20 111,-14 139,21 54,69 -5,286 -91,337 -37,22 -98,20 -156,-5 -65,-28 -98,-62 -114,-117 -6,-26 -13,-48 -14,-49 -1,-2 -19,6 -40,17 -67,34 -153,20 -238,-38 -66,-46 -90,-89 -85,-157 2,-46 1,-54 -12,-48 -8,4 -42,8 -75,10 -52,3 -67,0 -113,-27 -29,-17 -66,-50 -83,-73 -29,-39 -31,-46 -25,-102 4,-36 18,-84 35,-119 27,-55 28,-61 15,-92 -29,-68 -9,-177 47,-253 32,-45 79,-71 128,-71 h 29 l -20,-37 c -39,-76 -9,-203 66,-272 49,-46 203,-38 280,14 l 35,24 20,-35 c 33,-55 75,-76 146,-71 139,10 257,116 239,212 l -6,35 36,-15 c 66,-28 135,-16 213,36 22,16 51,45 64,65 21,35 22,41 11,111 -12,77 -31,123 -64,160 l -21,22 29,6 c 210,46 399,223 532,499 49,100 170,302 149,246 -4,-8 -27,-65 -52,-126 -48,-118 -96,-289 -117,-419 -18,-115 -15,-408 5,-520 30,-161 79,-319 143,-462 4,-7 -13,-4 -45,8 -63,24 -173,25 -256,4 -130,-34 -223,-96 -440,-290 -218,-195 -323,-252 -484,-262 -95,-7 -91,-15 23,-45 86,-22 230,-24 311,-3 186,48 371,182 509,368 104,141 155,172 273,165 93,-5 157,-37 185,-92 11,-22 49,-84 84,-136 176,-265 411,-499 689,-685 112,-75 408,-224 500,-252 95,-28 275,-24 385,10 236,72 439,205 686,451 209,209 388,444 438,577 38,101 51,212 37,322 -22,172 -111,389 -240,585 -34,51 -56,90 -49,85 7,-4 38,-24 68,-44 95,-62 183,-92 286,-97 109,-5 178,12 274,68 151,87 352,176 480,210 158,42 278,11 384,-100 86,-90 138,-211 151,-347 8,-85 -26,-226 -81,-341 -43,-90 -150,-203 -227,-241 -100,-48 -240,-65 -330,-40 -87,24 -147,121 -147,239 0,56 11,83 25,60 12,-19 63,-10 131,25 123,61 147,102 103,174 -29,47 -54,68 -129,103 -87,41 -179,45 -229,9 -46,-33 -89,-129 -100,-222 -25,-223 71,-439 231,-520 157,-79 420,-79 641,1 118,43 187,89 243,163 114,152 148,284 148,577 0,149 -3,188 -22,260 -65,245 -203,388 -432,446 -81,21 -336,14 -449,-11 -163,-36 -349,-109 -513,-200 -104,-58 -251,-56 -432,5 -92,31 -252,105 -346,161 l -54,32 19,-29 c 293,-444 409,-883 319,-1204 l -17,-61 -22,56 c -23,55 -23,55 -4,92 25,50 25,132 -1,183 -30,58 -94,93 -174,93 -82,0 -148,-30 -207,-93 l -47,-50 -23,35 c -14,21 -46,46 -76,61 -44,22 -63,26 -116,22 -94,-6 -186,-60 -224,-132 -13,-26 -16,-27 -25,-12 -8,14 -1,26 36,59 56,53 85,116 86,184 0,63 -13,99 -48,136 -29,31 -92,67 -117,67 -10,0 -5,13 20,45 98,130 61,288 -82,341 -26,9 -49,18 -50,19 -1,1 2,18 8,38 l 10,37 39,-20 c 52,-26 159,-27 216,-1 171,78 221,296 91,395 -19,14 -39,26 -45,26 -18,0 -14,17 5,24 11,5 25,-4 46,-29 44,-54 94,-75 174,-75 77,0 129,20 185,69 71,62 107,179 79,254 -7,19 -6,27 4,30 18,8 25,-2 25,-33 0,-35 44,-100 87,-130 55,-37 163,-41 235,-7 60,27 119,82 138,127 14,35 16,35 63,15 80,-33 194,-9 274,59 67,57 103,183 73,260 -10,28 0,35 19,13 19,-24 87,-40 148,-35 214,15 335,258 198,398 -30,30 -35,41 -23,45 8,3 27,1 42,-5 48,-18 136,-12 191,14 71,32 109,68 139,128 73,146 -18,308 -172,308 h -39 l -7,53 c -12,101 -14,97 57,97 146,1 267,117 267,258 0,207 -265,275 -418,107 l -50,-54 -17,26 c -10,14 -36,46 -58,70 l -41,44 48,42 c 183,156 88,415 -144,394 -110,-10 -200,-81 -239,-189 l -10,-27 -58,16 c -32,9 -59,17 -61,18 -1,1 10,23 24,50 92,164 -46,341 -237,305 -60,-12 -140,-59 -169,-101 l -21,-28 -35,24 c -102,69 -246,45 -341,-57 -58,-63 -81,-148 -60,-221 l 8,-29 -33,25 c -48,36 -103,50 -164,44 -98,-10 -207,-91 -234,-173 -10,-31 -14,-33 -38,-27 -15,5 -53,7 -84,7 -143,-3 -268,-128 -268,-269 0,-28 -4,-32 -45,-44 -50,-15 -137,-86 -160,-131 -65,-126 -11,-271 114,-309 l 44,-13 -31,-31 c -29,-29 -32,-30 -49,-14 -53,47 -152,60 -239,30 -72,-25 -148,-104 -169,-178 -34,-117 22,-225 135,-259 l 36,-11 -28,-63 -28,-62 -53,6 c -79,9 -153,-15 -215,-71 -70,-63 -95,-119 -90,-199 6,-100 65,-167 163,-188 43,-9 53,-21 37,-44 -4,-6 -31,-14 -61,-17 -157,-18 -277,-155 -256,-292 16,-107 129,-187 242,-171 l 43,6 v -43 c 0,-43 0,-43 -57,-67 -81,-33 -172,-126 -201,-203 -51,-136 -7,-266 112,-330 35,-19 57,-22 148,-22 h 106 l 11,-34 c 6,-19 9,-35 8,-36 -23,-7 -123,-86 -143,-113 -146,-191 -61,-421 167,-448 l 55,-6 -23,-46 c -48,-94 -20,-208 65,-267 40,-27 51,-30 125,-30 134,0 204,50 274,193 0,2 15,-4 33,-13 l 31,-16 -29,-37 c -90,-114 -93,-224 -8,-308 49,-49 107,-69 183,-61 64,7 145,49 186,97 l 30,36 40,-20 c 57,-28 133,-32 198,-11 59,20 153,104 164,147 6,24 9,25 74,20 73,-5 127,8 174,40 16,11 30,19 32,17 2,-2 -22,-39 -53,-82 -48,-65 -73,-88 -154,-141 -213,-140 -421,-225 -602,-247 -274,-34 -564,82 -952,382 -122,94 -210,187 -279,293 -217,335 -347,804 -404,1464 l -17,206 52,75 c 28,42 107,166 174,276 131,215 187,294 293,420 102,119 180,242 267,420 196,398 259,760 169,965 -43,98 -172,274 -273,375 -165,164 -295,223 -506,231 -80,2 -133,-1 -172,-11 z m 2221,-716 c 1,-11 -32,-20 -39,-12 -4,4 -10,21 -14,37 l -7,28 30,-23 c 16,-13 30,-27 30,-30 z m 931,-1489 c 0,-5 -2,-10 -4,-10 -3,0 -8,5 -11,10 -3,6 -1,10 4,10 6,0 11,-4 11,-10 z M 773,2552 l 31,-32 -54,18 c -50,17 -55,22 -58,51 -2,18 -1,40 3,49 4,12 10,8 26,-19 12,-19 35,-49 52,-67 z m 3316,-913 c -16,-10 -23,-4 -14,10 3,6 11,8 17,5 6,-4 5,-9 -3,-15 z" />
    <path
       d="m 1395,4551 c -178,-32 -291,-73 -402,-149 -63,-43 -158,-140 -183,-186 -14,-28 -14,-29 25,-61 98,-83 277,-166 430,-202 122,-28 414,-25 549,5 151,34 396,121 396,141 0,22 -107,155 -181,226 -100,96 -210,167 -328,212 -101,38 -154,40 -306,14 z m -2790,0 c 178,-32 291,-73 402,-149 63,-43 158,-140 183,-186 14,-28 14,-29 -25,-61 -98,-83 -277,-166 -430,-202 -122,-28 -414,-25 -549,5 -151,34 -396,121 -396,141 0,22 107,155 181,226 100,96 210,167 328,212 101,38 154,40 306,14 z"
       id="path14"
       inkscape:original-d="m 1395,4551 c -178,-32 -291,-73 -402,-149 -63,-43 -158,-140 -183,-186 -14,-28 -14,-29 25,-61 98,-83 277,-166 430,-202 122,-28 414,-25 549,5 151,34 396,121 396,141 0,22 -107,155 -181,226 -100,96 -210,167 -328,212 -101,38 -154,40 -306,14 z" />
    <path
       d="m 6467,4110 c -174,-32 -337,-122 -489,-270 -79,-78 -88,-91 -107,-154 -50,-165 -49,-356 3,-552 25,-93 62,-193 76,-208 12,-12 189,78 306,156 181,120 309,258 395,421 87,166 126,349 113,519 -6,66 -9,77 -28,82 -39,11 -221,15 -269,6 z m -12934,0 c 174,-32 337,-122 489,-270 79,-78 88,-91 107,-154 50,-165 49,-356 -3,-552 -25,-93 -62,-193 -76,-208 -12,-12 -189,78 -306,156 -181,120 -309,258 -395,421 -87,166 -126,349 -113,519 6,66 9,77 28,82 39,11 221,15 269,6 z"
       id="path16"
       inkscape:original-d="m 6467,4110 c -174,-32 -337,-122 -489,-270 -79,-78 -88,-91 -107,-154 -50,-165 -49,-356 3,-552 25,-93 62,-193 76,-208 12,-12 189,78 306,156 181,120 309,258 395,421 87,166 126,349 113,519 -6,66 -9,77 -28,82 -39,11 -221,15 -269,6 z" />
    <path
       d="m 5142,1226 c -86,-28 -151,-103 -139,-163 5,-27 4,-28 -29,-7 -60,40 -193,8 -250,-59 -24,-29 -26,-36 -22,-111 2,-50 10,-94 20,-114 16,-31 16,-33 0,-38 -92,-28 -116,-64 -110,-164 4,-75 37,-151 79,-182 14,-11 44,-22 67,-25 46,-6 48,-9 27,-37 -22,-29 -19,-118 5,-170 45,-95 112,-122 227,-92 l 62,15 34,-34 c 56,-56 147,-59 241,-7 63,35 90,71 91,122 0,45 0,45 35,25 63,-36 192,-6 246,58 24,29 26,36 22,111 -3,45 -8,88 -12,98 -6,12 -1,18 23,23 98,21 137,134 91,258 -26,68 -66,107 -118,114 l -40,5 24,36 c 47,69 24,196 -45,255 -29,24 -40,27 -112,27 -80,0 -121,-12 -161,-48 -16,-13 -18,-13 -23,4 -23,73 -63,106 -137,111 -29,1 -72,-4 -96,-11 z m -10284,0 c 86,-28 151,-103 139,-163 -5,-27 -4,-28 29,-7 60,40 193,8 250,-59 24,-29 26,-36 22,-111 -2,-50 -10,-94 -20,-114 -16,-31 -16,-33 0,-38 92,-28 116,-64 110,-164 -4,-75 -37,-151 -79,-182 -14,-11 -44,-22 -67,-25 -46,-6 -48,-9 -27,-37 22,-29 19,-118 -5,-170 -45,-95 -112,-122 -227,-92 l -62,15 -34,-34 c -56,-56 -147,-59 -241,-7 -63,35 -90,71 -91,122 0,45 0,45 -35,25 -63,-36 -192,-6 -246,58 -24,29 -26,36 -22,111 3,45 8,88 12,98 6,12 1,18 -23,23 -98,21 -137,134 -91,258 26,68 66,107 118,114 l 40,5 -24,36 c -47,69 -24,196 45,255 29,24 40,27 112,27 80,0 121,-12 161,-48 16,-13 18,-13 23,4 23,73 63,106 137,111 29,1 72,-4 96,-11 z"
       id="path18"
       inkscape:original-d="m 5142,1226 c -86,-28 -151,-103 -139,-163 5,-27 4,-28 -29,-7 -60,40 -193,8 -250,-59 -24,-29 -26,-36 -22,-111 2,-50 10,-94 20,-114 16,-31 16,-33 0,-38 -92,-28 -116,-64 -110,-164 4,-75 37,-151 79,-182 14,-11 44,-22 67,-25 46,-6 48,-9 27,-37 -22,-29 -19,-118 5,-170 45,-95 112,-122 227,-92 l 62,15 34,-34 c 56,-56 147,-59 241,-7 63,35 90,71 91,122 0,45 0,45 35,25 63,-36 192,-6 246,58 24,29 26,36 22,111 -3,45 -8,88 -12,98 -6,12 -1,18 23,23 98,21 137,134 91,258 -26,68 -66,107 -118,114 l -40,5 24,36 c 47,69 24,196 -45,255 -29,24 -40,27 -112,27 -80,0 -121,-12 -161,-48 -16,-13 -18,-13 -23,4 -23,73 -63,106 -137,111 -29,1 -72,-4 -96,-11 z" />
  </g>
</svg>
