<?xml version="1.0" standalone="no"?>
<!DOCTYPE svg PUBLIC "-//W3C//DTD SVG 20010904//EN"
 "http://www.w3.org/TR/2001/REC-SVG-20010904/DTD/svg10.dtd">
<svg version="1.0" xmlns="http://www.w3.org/2000/svg"
 width="1280.000000pt" height="1280.000000pt" viewBox="0 0 1280.000000 1280.000000"
 preserveAspectRatio="xMidYMid meet">
<metadata>
Created by potrace 1.15, written by Peter Selinger 2001-2017
</metadata>
<g transform="translate(0.000000,1280.000000) scale(0.100000,-0.100000)"
fill="#000000" stroke="none">
<path d="M2929 12785 c-41 -22 -54 -64 -40 -135 14 -70 0 -114 -51 -167 -18
-18 -27 -33 -22 -33 15 0 93 38 145 71 74 47 113 141 89 213 -20 61 -67 80
-121 51z"/>
<path d="M9783 12785 c-29 -20 -47 -78 -38 -123 15 -84 64 -134 184 -191 62
-29 70 -26 33 12 -51 53 -65 97 -51 167 14 72 1 113 -42 135 -36 19 -59 19
-86 0z"/>
<path d="M2691 12589 c-44 -18 -52 -38 -45 -116 6 -76 -4 -110 -45 -147 -12
-11 -21 -23 -21 -28 0 -12 130 56 159 83 65 61 68 179 4 208 -13 6 -25 11 -26
10 -1 0 -13 -5 -26 -10z"/>
<path d="M10054 12588 c-61 -29 -56 -147 7 -207 29 -27 159 -95 159 -83 0 5
-9 17 -21 28 -41 37 -51 71 -44 147 6 65 4 74 -15 95 -11 12 -25 22 -30 22 -4
0 -14 2 -22 4 -7 3 -23 0 -34 -6z"/>
<path d="M3529 12574 c-87 -26 -178 -131 -179 -205 0 -27 0 -27 -102 -33 -261
-17 -453 -52 -638 -117 -63 -22 -122 -42 -131 -45 -11 -4 -21 7 -34 36 -25 56
-104 133 -167 164 -160 78 -311 47 -373 -77 -39 -80 -30 -182 23 -240 51 -56
166 -76 216 -36 37 29 56 71 56 124 0 97 -69 148 -154 115 -35 -13 -59 -64
-51 -106 9 -53 22 -48 17 7 -5 58 12 85 62 94 66 13 116 -34 116 -110 0 -82
-49 -135 -124 -135 -134 0 -217 149 -155 277 27 57 68 89 137 109 49 15 66 15
116 5 73 -15 144 -50 195 -96 42 -39 103 -145 85 -152 -31 -11 -174 -98 -220
-134 -83 -64 -187 -179 -241 -268 -135 -218 -160 -495 -68 -731 43 -110 104
-200 197 -293 52 -51 88 -95 88 -107 0 -42 -40 -20 -132 73 -181 179 -384 257
-639 244 -300 -16 -594 -219 -749 -520 -19 -37 -39 -67 -45 -67 -22 0 -113 61
-143 95 -79 90 -115 215 -88 309 20 68 52 107 111 135 129 61 275 -21 275
-155 0 -73 -55 -124 -135 -124 -76 0 -123 49 -110 116 10 56 60 80 124 59 15
-5 21 -4 17 3 -3 6 -20 13 -37 17 -109 24 -166 -131 -69 -188 35 -21 111 -22
150 -2 48 25 70 62 70 117 0 112 -80 188 -198 188 -144 0 -244 -134 -213 -287
23 -118 101 -227 195 -275 22 -11 42 -22 44 -23 2 -2 -13 -46 -32 -98 -70
-186 -117 -429 -132 -679 l-6 -108 -26 0 c-106 -1 -222 -142 -222 -269 0 -125
98 -247 231 -287 l57 -17 17 -116 c36 -242 114 -584 203 -888 24 -83 35 -133
28 -133 -28 0 -130 32 -174 54 -70 35 -137 99 -166 158 -47 94 -30 225 44 334
17 26 28 49 25 52 -11 11 -98 -93 -123 -147 -20 -43 -26 -72 -26 -127 0 -62 4
-81 36 -146 71 -143 220 -249 356 -254 l64 -3 50 -143 c48 -139 98 -327 98
-368 0 -18 -7 -20 -57 -20 -107 0 -183 -71 -183 -170 0 -80 65 -150 138 -150
65 0 102 44 102 120 0 73 -71 115 -127 75 -26 -18 -38 -67 -24 -92 8 -15 10
-10 11 24 0 32 5 46 22 57 30 21 50 20 83 -6 25 -19 27 -26 22 -72 -8 -85 -70
-118 -146 -78 -94 50 -93 185 2 256 29 22 132 34 155 18 9 -6 25 -81 43 -197
l30 -188 -48 -61 c-106 -137 -144 -190 -163 -227 -20 -39 -20 -39 0 -78 19
-37 57 -90 163 -227 l48 -61 -30 -188 c-18 -116 -34 -191 -43 -197 -7 -5 -39
-7 -71 -5 -89 5 -147 59 -154 144 -5 60 19 109 68 135 76 40 138 7 146 -78 5
-46 3 -53 -22 -72 -33 -26 -53 -27 -83 -6 -17 11 -22 25 -22 57 -1 34 -3 39
-11 24 -14 -25 -2 -74 24 -92 56 -40 127 2 127 75 0 23 -7 54 -15 70 -56 108
-225 32 -225 -100 0 -99 76 -170 183 -170 50 0 57 -2 57 -20 0 -41 -42 -201
-93 -351 l-52 -156 -71 -6 c-141 -11 -281 -113 -351 -255 -33 -65 -37 -84 -37
-146 0 -55 6 -84 26 -127 25 -54 112 -158 123 -147 3 3 -8 26 -25 52 -74 109
-91 240 -44 334 29 59 96 123 166 158 44 22 146 54 174 54 7 0 -4 -50 -28
-133 -89 -304 -167 -646 -203 -888 l-17 -116 -57 -17 c-133 -40 -231 -162
-231 -287 0 -127 116 -268 222 -269 l26 0 6 -108 c15 -250 62 -493 132 -679
19 -52 34 -96 32 -98 -2 -1 -22 -12 -44 -23 -132 -67 -226 -252 -195 -385 17
-74 54 -122 117 -153 141 -69 294 17 294 164 0 55 -22 92 -70 117 -39 20 -115
19 -150 -2 -97 -57 -40 -212 69 -188 51 11 44 22 -10 17 -58 -5 -85 12 -94 62
-13 67 34 116 110 116 80 0 135 -51 135 -124 0 -134 -146 -216 -275 -155 -59
28 -91 67 -111 135 -27 94 9 219 88 309 30 34 121 95 143 95 6 0 26 -30 45
-67 78 -152 221 -309 361 -396 264 -164 594 -169 864 -11 52 31 110 78 168
136 88 89 127 109 127 67 0 -13 -28 -47 -75 -91 -290 -271 -349 -703 -143
-1039 90 -146 245 -289 401 -369 37 -19 67 -39 67 -45 0 -22 -61 -113 -95
-143 -50 -45 -120 -78 -192 -92 -84 -17 -162 6 -215 61 -118 123 -44 329 118
329 75 0 124 -53 124 -135 0 -76 -50 -123 -116 -110 -50 9 -67 36 -62 94 5 55
-8 60 -17 7 -22 -112 140 -164 190 -61 48 103 -12 215 -117 215 -112 0 -188
-80 -188 -198 0 -144 134 -244 287 -213 120 24 236 108 278 201 13 29 23 40
34 36 9 -3 68 -23 131 -45 185 -65 377 -100 638 -117 102 -6 102 -6 102 -33 1
-78 93 -180 188 -207 158 -46 316 48 369 219 l16 55 116 17 c237 35 594 117
889 203 82 24 132 35 132 28 0 -28 -32 -130 -54 -174 -35 -70 -99 -137 -158
-166 -94 -47 -225 -30 -334 44 -26 17 -49 28 -52 25 -11 -11 93 -98 147 -123
129 -60 285 -18 404 107 76 79 120 173 123 259 l3 64 143 50 c139 48 327 98
368 98 18 0 20 -7 20 -57 0 -107 71 -183 170 -183 80 0 150 65 150 138 0 65
-44 102 -120 102 -73 0 -115 -71 -75 -127 18 -25 72 -40 88 -24 8 8 1 11 -25
11 -27 0 -41 6 -52 22 -21 30 -20 50 6 83 19 25 26 27 72 22 85 -8 118 -70 78
-146 -50 -94 -185 -93 -256 2 -21 29 -34 132 -18 155 5 8 69 23 153 36 261 43
217 49 348 -53 63 -50 136 -102 163 -116 l48 -26 48 26 c27 14 100 66 163 116
131 102 87 96 348 53 84 -13 148 -28 153 -36 5 -7 7 -39 5 -71 -5 -89 -59
-147 -144 -154 -60 -5 -109 19 -135 68 -40 76 -7 138 78 146 46 5 53 3 72 -22
26 -33 27 -53 6 -83 -11 -16 -25 -22 -52 -22 -26 0 -33 -3 -25 -11 16 -16 70
-1 88 24 40 56 -2 127 -75 127 -23 0 -54 -7 -70 -15 -108 -56 -32 -225 100
-225 99 0 170 76 170 183 0 50 2 57 20 57 41 0 229 -50 368 -98 l143 -50 3
-69 c4 -92 53 -188 137 -268 159 -151 350 -160 494 -21 27 25 46 48 43 51 -3
3 -26 -8 -52 -25 -109 -74 -240 -91 -334 -44 -59 29 -123 96 -158 166 -22 44
-54 146 -54 174 0 7 50 -4 133 -28 294 -87 651 -168 889 -203 l116 -17 12 -47
c42 -169 213 -273 372 -227 95 27 187 129 188 207 0 27 0 27 103 33 260 17
452 52 637 117 63 22 122 42 131 45 11 4 21 -7 34 -36 25 -56 104 -133 167
-164 160 -78 311 -47 373 77 39 80 30 182 -23 240 -51 56 -166 76 -216 36 -37
-29 -56 -71 -56 -124 0 -97 69 -148 154 -115 35 13 59 64 51 106 -9 53 -22 48
-17 -7 5 -58 -12 -85 -62 -94 -66 -13 -116 34 -116 110 0 82 49 135 124 135
162 0 236 -206 118 -329 -53 -55 -131 -78 -215 -61 -72 14 -142 47 -192 92
-35 30 -95 121 -95 144 0 5 21 20 48 33 82 40 184 113 265 190 301 287 362
709 155 1059 -18 31 -75 98 -125 150 -51 52 -93 103 -93 113 0 40 41 18 127
-69 242 -243 573 -316 892 -196 193 73 395 261 501 467 19 37 40 67 45 67 22
0 113 -61 143 -95 45 -50 78 -120 92 -192 10 -52 10 -69 -5 -119 -45 -155
-236 -206 -342 -92 -66 71 -54 192 22 224 102 42 197 -12 180 -102 -9 -50 -36
-67 -94 -62 -54 5 -61 -6 -10 -17 109 -24 166 131 69 188 -35 21 -111 22 -150
2 -48 -25 -70 -62 -70 -117 0 -178 221 -253 354 -121 75 75 83 202 21 329 -32
65 -109 144 -165 169 -29 13 -40 23 -36 34 3 9 23 68 45 131 65 185 100 377
117 638 6 102 6 102 33 102 105 1 221 142 221 269 0 125 -98 247 -231 287
l-56 17 -22 141 c-41 260 -136 665 -220 934 -21 70 -23 69 62 47 122 -32 227
-108 271 -197 47 -94 30 -225 -44 -334 -17 -26 -28 -49 -25 -52 11 -11 98 93
123 147 60 130 18 288 -111 407 -85 79 -162 116 -251 120 l-69 3 -58 173 c-31
95 -66 215 -77 266 l-20 92 62 0 c110 0 186 69 186 170 0 80 -65 150 -138 150
-65 0 -102 -44 -102 -120 0 -73 71 -115 127 -75 26 18 38 67 24 92 -8 15 -10
10 -11 -24 0 -32 -5 -46 -22 -57 -30 -21 -50 -20 -83 6 -25 19 -27 26 -22 72
8 85 70 118 146 78 94 -50 93 -185 -2 -256 -29 -22 -132 -34 -155 -18 -9 6
-25 81 -43 197 l-30 188 48 61 c106 137 144 190 163 227 20 39 20 39 0 78 -19
37 -57 90 -163 227 l-48 61 30 188 c18 116 34 191 43 197 7 5 39 7 71 5 89 -5
147 -59 154 -144 5 -60 -19 -109 -68 -135 -76 -40 -138 -7 -146 78 -5 46 -3
53 22 72 33 26 53 27 83 6 17 -11 22 -25 22 -57 1 -34 3 -39 11 -24 14 25 2
74 -24 92 -56 40 -127 -2 -127 -75 0 -23 7 -54 15 -70 56 -108 225 -32 225
100 0 101 -76 170 -186 170 l-62 0 20 93 c11 50 46 170 77 265 l58 173 66 3
c137 5 291 117 359 262 61 130 37 262 -66 369 -25 27 -48 46 -51 43 -3 -3 8
-26 25 -52 74 -109 91 -240 44 -334 -44 -89 -149 -165 -271 -197 -85 -22 -83
-23 -62 47 84 269 179 674 220 934 l22 141 56 17 c133 40 231 162 231 287 0
127 -116 268 -222 269 l-26 0 -6 108 c-15 250 -62 493 -132 679 -19 52 -34 96
-32 98 2 1 21 12 44 23 56 28 129 105 159 166 77 158 45 309 -78 371 -80 39
-182 30 -240 -23 -56 -51 -76 -166 -36 -216 11 -14 34 -33 49 -41 39 -20 115
-19 150 2 97 57 40 212 -69 188 -17 -4 -34 -11 -37 -17 -4 -7 2 -8 17 -3 64
21 114 -3 124 -59 13 -66 -34 -116 -110 -116 -82 0 -135 49 -135 124 0 134
146 216 275 155 59 -28 91 -67 111 -136 37 -128 -41 -300 -170 -374 -28 -16
-55 -29 -61 -29 -5 0 -26 30 -45 67 -80 156 -223 311 -369 401 -223 137 -508
160 -747 61 -105 -44 -214 -120 -291 -204 -46 -49 -77 -75 -91 -75 -44 0 -23
38 66 127 105 104 168 205 214 343 31 91 32 102 32 250 0 149 -1 159 -33 252
-75 220 -236 407 -457 533 -43 25 -83 46 -88 48 -18 7 43 113 85 152 51 46
122 81 195 96 82 17 163 -6 216 -62 118 -123 44 -329 -118 -329 -75 0 -124 53
-124 135 0 76 50 123 116 110 50 -9 67 -36 62 -94 -5 -55 8 -60 17 -7 8 42
-16 93 -51 106 -85 33 -154 -18 -154 -115 0 -89 51 -145 132 -145 112 0 188
80 188 198 0 144 -134 244 -287 213 -120 -24 -236 -108 -278 -201 -13 -29 -23
-40 -34 -36 -9 3 -68 23 -131 45 -185 65 -377 100 -637 117 -103 6 -103 6
-103 33 -1 105 -142 221 -269 221 -125 0 -250 -101 -288 -232 l-16 -56 -86
-12 c-229 -31 -612 -118 -918 -208 -83 -24 -133 -35 -133 -28 0 7 7 38 15 69
32 125 106 226 198 272 93 46 225 28 333 -45 26 -17 49 -28 52 -25 11 11 -93
98 -147 123 -130 60 -288 18 -407 -111 -79 -84 -116 -162 -120 -250 l-3 -68
-143 -50 c-139 -48 -327 -99 -368 -99 -18 0 -20 7 -20 58 0 106 -71 182 -170
182 -80 0 -150 -65 -150 -138 0 -65 44 -102 120 -102 73 0 115 71 75 127 -18
25 -72 40 -88 24 -8 -8 -1 -11 25 -11 27 0 41 -6 52 -22 21 -30 20 -50 -6 -83
-19 -25 -26 -27 -72 -22 -85 8 -118 70 -78 146 50 94 185 93 256 -2 21 -29 34
-132 18 -155 -5 -8 -69 -23 -153 -36 -261 -43 -217 -49 -348 53 -63 50 -136
102 -163 116 l-48 26 -48 -26 c-27 -14 -100 -66 -163 -116 -131 -102 -87 -96
-348 -53 -84 13 -148 28 -153 36 -5 7 -7 39 -5 71 5 89 59 147 144 154 60 5
109 -19 135 -68 40 -76 7 -138 -78 -146 -46 -5 -53 -3 -72 22 -26 33 -27 53
-6 83 11 16 25 22 52 22 26 0 33 3 25 11 -16 16 -70 1 -88 -24 -40 -56 2 -127
75 -127 23 0 54 7 70 15 108 56 32 225 -100 225 -99 0 -170 -76 -170 -182 0
-51 -2 -58 -20 -58 -41 0 -229 51 -368 99 l-143 50 -3 64 c-5 137 -118 291
-262 359 -130 61 -262 37 -369 -66 -27 -25 -46 -48 -43 -51 3 -3 26 8 52 25
108 73 240 91 333 45 92 -46 166 -147 198 -272 8 -31 15 -62 15 -69 0 -7 -50
4 -132 28 -307 90 -690 177 -919 208 l-86 12 -17 56 c-41 136 -163 233 -291
231 -22 0 -61 -7 -86 -15z m200 -20 c70 -29 147 -123 169 -206 12 -44 17 -42
-112 -31 -74 6 -77 7 -90 37 -18 42 -47 66 -87 72 -37 6 -97 -15 -119 -41 -10
-12 -3 -10 24 6 20 12 55 22 77 23 34 1 46 -5 70 -32 47 -53 42 -56 -83 -49
-62 4 -137 7 -165 7 -49 0 -53 2 -53 23 0 13 12 48 28 78 59 116 211 167 341
113z m5581 -12 c39 -20 64 -41 87 -75 28 -42 52 -112 42 -121 -2 -2 -77 -7
-166 -11 -115 -5 -163 -4 -163 4 0 6 13 25 29 43 24 27 36 33 70 32 22 -1 57
-11 77 -23 27 -16 34 -18 24 -6 -7 9 -30 23 -49 31 -66 28 -134 0 -161 -67 -9
-20 -20 -29 -35 -29 -12 0 -56 -3 -98 -6 l-76 -7 11 39 c5 21 17 52 25 68 20
39 91 115 125 132 78 40 172 39 258 -4z m-5960 -247 l7 -31 -231 4 c-127 1
-242 4 -256 5 -37 4 188 37 310 47 157 12 163 11 170 -25z m343 18 c4 -2 7
-19 7 -37 0 -58 -12 -60 -176 -37 -151 21 -164 26 -164 69 l0 24 163 -7 c89
-4 165 -9 170 -12z m5747 -5 c0 -43 -13 -49 -164 -69 -167 -24 -179 -21 -174
40 l3 36 95 6 c52 3 128 6 168 7 69 2 72 1 72 -20z m280 1 c58 -6 134 -16 170
-24 62 -12 57 -13 -140 -14 -113 -1 -228 -4 -257 -7 -56 -7 -56 -7 -37 54 4
14 43 12 264 -9z m-5831 -16 c22 -5 23 -9 18 -55 -4 -26 -8 -52 -11 -57 -3 -4
-50 1 -105 12 -91 18 -99 21 -91 38 6 10 10 32 10 50 l0 32 78 -7 c42 -4 88
-10 101 -13z m5199 -12 c0 -17 5 -38 11 -49 10 -18 4 -21 -77 -36 -48 -10 -95
-19 -104 -22 -13 -4 -18 5 -23 51 -4 31 -5 58 -2 61 7 8 100 21 153 23 39 1
41 -1 42 -28z m-4995 -16 c311 -53 652 -134 905 -216 l62 -21 0 -52 c0 -72
-27 -150 -49 -140 -9 4 -119 42 -246 85 -252 85 -469 150 -699 210 -81 21
-150 39 -152 41 -8 9 10 118 20 118 6 0 77 -11 159 -25z m4790 -32 c3 -32 4
-59 3 -61 -2 -2 -71 -20 -152 -41 -230 -60 -447 -125 -699 -210 -126 -43 -237
-81 -246 -85 -22 -10 -49 68 -49 140 l0 52 63 21 c256 83 641 173 977 229 101
17 96 19 103 -45z m-5621 22 l96 -7 24 -37 c12 -20 39 -44 58 -53 63 -32 171
-18 222 29 16 15 25 15 110 -2 107 -20 118 -24 118 -37 0 -43 -142 -258 -170
-258 -4 0 -41 20 -81 45 -318 196 -795 261 -1109 150 -24 -8 -44 -14 -46 -12
-2 1 -6 21 -9 42 -8 46 -15 42 170 103 l110 37 206 4 c113 2 249 0 301 -4z
m6893 -36 c185 -62 178 -58 170 -104 -3 -21 -7 -41 -9 -42 -1 -2 -28 6 -58 16
-307 106 -770 42 -1090 -150 -45 -27 -85 -49 -89 -49 -25 0 -127 146 -159 228
-17 43 -15 44 106 67 87 16 96 16 112 2 51 -47 159 -61 222 -29 19 9 45 33 58
52 30 45 53 48 377 46 l250 -1 110 -36z m-6572 0 c42 -6 77 -15 77 -19 0 -14
-75 -43 -123 -48 -59 -6 -117 18 -140 58 -9 15 -17 30 -17 32 0 5 70 -3 203
-23z m5823 -4 c-30 -46 -75 -67 -136 -62 -53 3 -130 31 -130 47 0 9 268 51
279 43 2 -1 -4 -14 -13 -28z m-5441 -71 c50 -11 434 -209 581 -300 77 -47 173
-111 214 -142 l75 -56 -43 -18 c-93 -41 -190 -58 -327 -58 -148 0 -249 16
-376 59 -138 46 -187 76 -274 167 l-80 83 42 47 c42 47 123 192 123 220 0 10
6 13 18 10 9 -3 31 -8 47 -12z m4935 2 c0 -28 82 -174 123 -220 l42 -47 -80
-83 c-86 -90 -127 -115 -267 -164 -127 -45 -231 -62 -382 -62 -136 0 -206 12
-311 51 l-59 22 34 29 c170 144 772 473 893 487 4 1 7 -5 7 -13z m-6435 -42
c3 -20 5 -37 3 -38 -2 -2 -38 -21 -80 -44 -133 -70 -317 -220 -302 -244 4 -7
2 -8 -4 -4 -27 17 -136 -168 -184 -314 -18 -54 -26 -71 -23 -45 32 224 145
423 325 570 69 56 226 155 246 155 7 0 15 -16 19 -36z m7983 -14 c275 -163
437 -393 477 -675 3 -26 -5 -9 -23 45 -48 146 -157 331 -184 314 -6 -4 -8 -3
-5 3 8 12 -89 106 -166 162 -32 23 -93 61 -135 83 -42 23 -78 42 -80 44 -8 6
12 74 22 74 6 0 49 -22 94 -50z m-6162 -31 c151 -42 615 -192 707 -228 l28
-11 -31 -44 c-18 -24 -57 -62 -87 -85 l-54 -40 -73 54 c-143 106 -311 207
-551 332 -77 40 -135 73 -129 73 7 0 92 -23 190 -51z m4289 -22 c-240 -125
-408 -226 -551 -332 l-73 -54 -54 40 c-30 23 -69 61 -87 85 l-31 44 28 11
c169 65 850 278 893 278 8 0 -48 -32 -125 -72z m-5470 3 c169 -29 406 -105
525 -170 l35 -19 -38 -16 c-92 -38 -160 -49 -312 -49 -149 0 -151 0 -278 42
-71 23 -167 49 -215 58 -97 19 -254 22 -322 6 -24 -6 -45 -10 -46 -9 -3 3 17
87 26 112 6 16 26 25 86 39 164 39 332 41 539 6z m6965 20 c58 -6 136 -18 175
-28 l70 -18 17 -65 c9 -35 16 -65 14 -66 -1 -1 -22 3 -46 9 -68 16 -225 13
-322 -6 -48 -9 -144 -35 -215 -58 -127 -42 -129 -42 -278 -42 -153 0 -223 11
-312 50 l-38 16 80 39 c169 80 419 149 613 168 125 12 127 12 242 1z m-3574
-97 c79 -55 203 -158 196 -164 -4 -4 -74 -14 -157 -23 -141 -15 -159 -15 -288
2 -76 9 -138 20 -137 25 0 9 136 120 202 165 85 58 92 58 184 -5z m-4041 -19
c-7 -31 -17 -59 -21 -63 -5 -4 -36 -18 -69 -31 -87 -34 -186 -102 -251 -173
-61 -68 -133 -206 -155 -297 -17 -72 -17 -240 0 -310 30 -122 67 -174 203
-285 34 -28 36 -32 30 -73 l-7 -43 -67 68 c-37 37 -79 84 -94 103 -43 59 -103
185 -123 262 -35 133 -35 156 0 265 92 287 243 480 466 595 101 52 104 51 88
-18z m2863 2 c88 -30 196 -62 239 -71 43 -8 88 -17 100 -20 12 -3 33 -25 48
-50 30 -52 86 -93 138 -102 44 -7 123 17 188 57 l46 28 162 -21 161 -20 161
20 162 21 46 -28 c65 -40 144 -64 188 -57 52 9 108 50 138 102 15 25 36 47 48
50 12 3 57 12 100 20 43 9 151 41 239 71 89 29 167 54 172 54 6 0 23 -35 37
-78 14 -42 29 -84 32 -92 6 -12 -25 -27 -150 -74 -195 -72 -334 -112 -574
-165 -198 -44 -206 -45 -599 -45 -393 0 -401 1 -599 45 -240 53 -379 93 -574
165 -125 47 -156 62 -150 74 3 8 18 50 32 92 14 43 31 78 37 78 5 0 83 -25
172 -54z m5115 16 c223 -116 374 -308 466 -596 31 -93 32 -102 21 -168 -13
-87 -41 -171 -85 -257 -43 -84 -69 -120 -153 -204 l-67 -68 -7 43 c-6 41 -4
45 30 73 136 111 173 163 203 285 17 70 17 238 0 310 -22 91 -94 229 -155 297
-65 71 -164 139 -251 173 -33 13 -64 27 -69 31 -4 4 -14 32 -21 63 -16 69 -13
70 88 18z m-7748 -99 c121 -38 225 -116 264 -197 94 -202 -53 -439 -245 -396
-101 23 -164 96 -164 189 0 58 15 94 55 131 55 52 174 20 210 -55 19 -42 13
-69 -23 -107 -34 -37 -79 -37 -121 -2 -33 27 -44 19 -13 -9 55 -50 117 -41
160 23 44 65 7 141 -85 176 -75 29 -135 7 -171 -61 -67 -129 10 -272 161 -300
146 -28 285 121 275 296 l-4 67 49 -43 c27 -23 69 -52 94 -65 26 -13 65 -43
88 -67 49 -51 100 -60 150 -27 31 20 37 7 14 -29 -26 -44 -24 -64 10 -98 23
-23 38 -29 71 -29 37 0 48 -6 106 -62 35 -34 66 -59 68 -57 2 2 5 20 6 39 6
80 2 92 -51 141 -35 32 -50 53 -46 63 9 23 18 20 72 -21 64 -50 123 -53 179
-8 67 54 107 84 119 89 8 3 5 9 -8 17 -11 7 -44 36 -73 66 -63 62 -113 81
-168 63 -18 -6 -40 -19 -46 -29 -18 -24 -34 -32 -52 -25 -27 10 -18 40 20 69
47 36 74 82 74 125 0 61 -12 64 -54 14 -44 -52 -87 -74 -146 -74 -75 0 -114
-67 -70 -123 36 -45 20 -50 -37 -11 -46 31 -88 28 -140 -12 l-35 -26 -41 18
c-47 21 -168 138 -209 201 -36 56 -106 106 -198 142 l-75 30 43 1 c65 0 223
-35 347 -77 109 -37 112 -37 270 -37 167 -1 238 11 325 53 l39 19 62 -37 c138
-80 255 -244 325 -454 14 -43 28 -76 31 -74 7 8 -45 153 -81 225 -19 37 -50
91 -70 121 -20 29 -36 54 -36 56 0 2 22 -7 49 -20 75 -37 238 -91 331 -111 57
-12 127 -18 215 -18 139 0 208 13 312 60 l56 24 88 -89 c81 -81 89 -92 89
-127 0 -28 14 -64 51 -129 127 -226 159 -308 159 -412 0 -35 4 -63 8 -63 5 0
21 13 36 29 38 40 44 98 18 176 -11 33 -19 61 -17 63 2 2 28 -32 59 -75 76
-107 87 -119 122 -136 27 -14 135 -57 142 -57 7 0 -2 30 -30 98 -27 67 -42 88
-117 160 l-86 82 47 -20 c70 -31 128 -36 172 -15 20 10 41 26 46 35 8 16 3 19
-44 24 -140 18 -252 75 -412 212 -56 47 -84 64 -106 64 -24 0 -47 17 -123 93
l-93 93 53 42 c29 22 68 61 87 86 18 25 38 45 45 46 6 0 76 -24 156 -54 202
-76 290 -101 657 -185 238 -55 320 -77 420 -113 47 -17 92 -30 100 -30 8 0 53
13 100 30 104 37 182 58 460 122 345 79 390 93 688 201 91 33 94 33 104 15 18
-33 86 -102 127 -131 l39 -27 -93 -94 c-76 -77 -99 -94 -123 -94 -22 0 -50
-17 -106 -64 -160 -137 -272 -194 -412 -212 -47 -5 -52 -8 -44 -24 5 -9 26
-25 46 -35 44 -21 102 -16 172 15 l47 20 -86 -82 c-75 -72 -90 -93 -117 -160
-28 -68 -37 -98 -29 -98 6 0 114 43 141 57 35 17 46 29 122 136 31 43 57 77
59 75 2 -2 -6 -30 -17 -63 -26 -78 -20 -136 18 -176 15 -16 31 -29 36 -29 4 0
8 28 8 63 0 104 32 186 159 412 38 66 51 100 51 130 0 37 7 46 89 128 l90 88
40 -20 c22 -12 75 -31 118 -43 102 -29 297 -31 423 -4 93 20 256 74 331 111
27 13 49 22 49 20 0 -2 -16 -27 -36 -56 -20 -30 -51 -84 -70 -121 -36 -72 -88
-217 -81 -225 3 -2 17 31 31 75 74 220 190 377 346 466 41 23 42 23 81 5 86
-42 157 -54 324 -53 158 0 161 0 270 37 124 42 282 77 347 77 l43 -1 -75 -30
c-92 -36 -162 -86 -198 -142 -41 -63 -162 -180 -209 -201 l-41 -18 -35 26
c-52 40 -94 43 -140 12 -57 -39 -73 -34 -37 11 44 56 5 123 -70 123 -59 0
-102 22 -146 74 -42 50 -54 47 -54 -14 0 -43 27 -89 74 -125 38 -29 47 -59 20
-69 -18 -7 -34 1 -52 25 -6 10 -28 23 -46 29 -55 18 -105 -1 -168 -63 -29 -30
-62 -59 -73 -66 -13 -8 -16 -14 -8 -17 12 -5 52 -35 119 -89 56 -45 115 -42
179 8 54 41 63 44 72 21 4 -12 -8 -29 -41 -58 -27 -23 -50 -55 -55 -73 -9 -31
-4 -113 7 -113 3 0 33 27 68 60 56 54 67 60 104 60 33 0 48 6 71 29 34 34 36
54 10 98 -23 36 -17 49 14 29 50 -33 101 -24 150 27 23 24 62 54 88 67 25 13
67 42 94 65 l48 42 0 -86 c0 -74 4 -93 27 -137 67 -129 198 -175 319 -113 77
39 127 136 109 212 -25 112 -99 159 -193 123 -92 -35 -129 -111 -85 -176 43
-64 105 -73 160 -23 31 28 20 36 -13 9 -42 -35 -87 -35 -121 2 -36 38 -42 65
-23 107 36 75 155 107 210 55 84 -77 70 -221 -26 -285 -46 -30 -116 -47 -161
-39 -158 29 -244 235 -167 400 25 53 100 124 165 157 108 54 199 70 299 53 36
-7 42 -12 63 -59 12 -29 54 -92 93 -142 276 -352 382 -616 298 -751 -19 -31
-156 -151 -163 -143 -2 2 -11 38 -20 80 -24 111 -59 159 -142 200 -59 29 -78
34 -144 34 -102 -1 -150 -27 -187 -104 -40 -82 -39 -176 3 -251 43 -77 91
-107 221 -141 l108 -28 -38 -16 c-86 -36 -337 -79 -337 -57 0 23 -56 44 -141
53 -176 18 -316 68 -416 147 -29 23 -55 42 -58 42 -3 0 -5 -18 -5 -40 0 -52
45 -103 125 -142 l60 -29 -95 7 c-142 12 -164 9 -285 -42 l-38 -16 54 -30 c92
-53 122 -58 240 -42 136 18 154 17 104 -4 -110 -47 -145 -81 -152 -146 -3 -25
-2 -46 1 -46 4 0 29 18 54 40 69 58 158 94 347 139 135 33 174 46 191 65 17
19 35 25 90 31 84 8 221 40 281 66 25 10 47 19 49 19 2 0 -14 -36 -37 -81 -22
-45 -38 -83 -36 -86 3 -2 41 14 86 36 45 23 81 39 81 37 0 -2 -9 -24 -19 -49
-26 -60 -58 -198 -67 -282 -5 -55 -11 -73 -29 -87 -23 -18 -27 -28 -76 -233
-36 -151 -74 -241 -129 -307 -22 -25 -40 -49 -40 -52 0 -3 15 -6 34 -6 54 0
97 36 139 119 42 84 42 85 23 -68 -16 -126 -13 -145 42 -241 l30 -53 16 38
c51 121 54 142 42 285 l-8 95 30 -60 c39 -80 90 -125 142 -125 22 0 40 2 40 5
0 3 -19 29 -42 58 -80 101 -129 238 -147 414 -9 87 -30 143 -53 143 -22 0 21
251 57 337 l16 38 28 -108 c34 -130 64 -178 141 -221 75 -42 169 -43 251 -3
77 37 103 85 104 187 0 66 -5 85 -34 144 -41 83 -89 118 -200 142 -42 9 -78
18 -80 20 -8 7 112 144 143 163 48 30 129 36 206 17 132 -33 341 -154 544
-314 43 -34 105 -74 136 -89 53 -26 59 -31 65 -68 12 -65 8 -141 -11 -197 -71
-219 -218 -326 -396 -289 -140 29 -225 145 -197 269 22 99 95 162 188 162 58
0 94 -15 131 -55 51 -55 20 -174 -55 -209 -42 -20 -74 -13 -108 22 -39 41 -39
76 -1 121 27 33 19 44 -9 13 -30 -33 -40 -78 -25 -109 16 -33 72 -73 103 -73
57 0 135 95 135 165 0 88 -115 159 -216 134 -80 -20 -145 -97 -160 -188 -23
-145 125 -279 297 -269 l67 4 -42 -48 c-22 -26 -52 -68 -66 -94 -14 -26 -44
-66 -67 -89 -51 -49 -60 -100 -27 -150 20 -31 7 -37 -29 -14 -44 26 -64 24
-98 -10 -23 -23 -29 -38 -29 -71 0 -37 -6 -48 -60 -104 -33 -35 -60 -65 -60
-68 0 -11 82 -16 113 -7 18 5 50 28 73 55 29 33 46 45 58 41 23 -9 20 -18 -21
-72 -50 -64 -53 -123 -8 -179 54 -67 84 -107 89 -119 3 -8 9 -5 17 8 7 11 36
44 66 73 62 63 81 113 63 168 -6 18 -19 40 -29 46 -24 18 -32 34 -25 52 10 27
40 18 69 -20 36 -47 82 -74 125 -74 61 0 64 12 14 54 -52 44 -74 87 -74 146 0
75 -67 114 -123 70 -45 -36 -50 -20 -11 37 31 46 28 88 -12 141 l-27 35 27 53
c28 54 122 148 194 196 55 36 105 107 141 198 30 75 30 75 31 34 0 -67 -28
-198 -73 -333 l-41 -126 0 -160 c-1 -167 11 -238 53 -325 l19 -39 -37 -62
c-81 -139 -247 -256 -464 -328 -38 -13 -66 -25 -64 -28 8 -7 152 44 220 78 34
17 88 49 119 70 32 22 60 39 62 39 2 0 -6 -22 -19 -49 -36 -75 -91 -237 -111
-331 -27 -125 -25 -320 4 -423 12 -43 32 -96 43 -118 l20 -41 -89 -89 c-82
-81 -93 -89 -128 -89 -27 0 -63 -14 -119 -45 -239 -134 -318 -165 -422 -165
-35 0 -63 -4 -63 -8 0 -5 13 -21 29 -36 40 -38 98 -44 176 -18 33 11 61 19 63
17 2 -2 -33 -29 -77 -60 -112 -78 -132 -101 -161 -180 -14 -38 -26 -73 -28
-77 -6 -14 18 -8 96 24 67 27 88 42 160 117 l82 86 -20 -47 c-41 -94 -33 -190
17 -217 18 -9 20 -4 31 67 20 125 80 238 208 388 47 56 64 84 64 106 0 24 17
47 93 123 l93 93 41 -53 c23 -29 62 -68 87 -87 25 -18 45 -38 46 -44 0 -7 -23
-72 -51 -145 -67 -179 -100 -290 -165 -569 -82 -353 -83 -356 -127 -490 -23
-69 -41 -129 -40 -135 1 -5 17 -55 36 -110 36 -105 55 -177 136 -526 61 -260
94 -372 160 -548 28 -73 51 -138 51 -145 -1 -6 -21 -26 -46 -44 -25 -19 -64
-58 -86 -87 l-42 -53 -93 93 c-76 76 -93 99 -93 123 0 22 -17 50 -64 106 -128
150 -188 263 -208 388 -11 71 -13 76 -31 67 -50 -27 -58 -123 -17 -217 l20
-47 -82 86 c-72 75 -93 90 -160 117 -78 32 -102 38 -96 24 2 -4 14 -39 28 -77
29 -79 49 -102 161 -180 44 -31 79 -58 77 -60 -2 -2 -30 6 -63 17 -78 26 -136
20 -176 -18 -16 -15 -29 -31 -29 -36 0 -4 28 -8 63 -8 104 0 186 -32 412 -159
66 -38 100 -51 130 -51 37 0 46 -7 128 -89 l88 -90 -20 -40 c-12 -22 -31 -75
-43 -118 -29 -103 -31 -298 -4 -423 20 -94 75 -256 111 -331 13 -27 22 -49 20
-49 -2 0 -27 16 -56 36 -30 20 -84 51 -121 70 -72 36 -217 88 -225 81 -2 -3
31 -17 75 -31 220 -74 377 -190 466 -346 23 -41 23 -42 5 -81 -42 -86 -54
-157 -53 -324 l0 -160 41 -126 c45 -135 73 -266 73 -333 -1 -41 -1 -41 -31 34
-36 91 -86 162 -141 198 -72 48 -166 142 -194 196 l-27 53 27 35 c40 53 43 95
12 141 -39 57 -34 73 11 37 56 -44 123 -5 123 70 0 59 22 102 74 146 50 42 47
54 -14 54 -43 0 -89 -27 -125 -74 -29 -38 -59 -47 -69 -20 -7 18 1 34 25 52
10 6 23 28 29 46 18 55 -1 105 -63 168 -30 29 -59 62 -66 73 -8 13 -14 16 -17
8 -5 -12 -35 -52 -89 -119 -45 -56 -42 -115 8 -179 41 -54 44 -63 21 -72 -12
-4 -29 8 -58 41 -23 27 -55 50 -73 55 -31 9 -113 4 -113 -7 0 -3 27 -33 60
-68 54 -56 60 -67 60 -104 0 -33 6 -48 29 -71 34 -34 54 -36 98 -10 36 23 49
17 29 -14 -33 -50 -24 -101 27 -150 23 -23 53 -63 67 -89 14 -26 44 -68 66
-94 l42 -48 -67 4 c-172 10 -320 -124 -297 -269 15 -93 82 -170 163 -187 104
-23 213 46 213 133 0 17 -9 48 -19 70 -40 86 -109 115 -171 73 -64 -43 -73
-105 -23 -160 28 -31 36 -20 9 13 -38 45 -38 80 1 121 33 34 65 42 106 24 75
-31 109 -156 57 -211 -76 -83 -219 -70 -284 24 -30 43 -48 117 -40 163 30 160
240 246 403 163 143 -72 238 -285 206 -460 -6 -37 -12 -42 -65 -68 -31 -15
-93 -55 -136 -89 -203 -160 -412 -281 -544 -314 -77 -19 -158 -13 -206 17 -31
19 -151 156 -143 163 2 2 38 11 80 20 111 24 159 59 200 142 29 59 34 78 34
144 -1 102 -27 150 -104 187 -82 40 -176 39 -251 -3 -77 -43 -107 -91 -141
-221 l-28 -108 -16 38 c-36 86 -79 337 -57 337 23 0 44 56 53 143 18 176 67
313 147 414 23 29 42 55 42 58 0 3 -18 5 -40 5 -52 0 -103 -45 -142 -125 l-30
-60 8 95 c12 143 9 164 -42 285 l-16 38 -30 -53 c-55 -96 -58 -115 -42 -241
19 -153 19 -153 -20 -74 -42 89 -72 116 -130 122 -25 3 -46 2 -46 -1 0 -4 18
-29 40 -54 58 -69 94 -158 139 -347 33 -135 46 -174 65 -191 19 -17 25 -35 31
-90 8 -84 40 -221 66 -281 10 -25 19 -47 19 -49 0 -2 -36 14 -81 37 -45 22
-83 38 -86 36 -2 -3 14 -41 36 -86 23 -45 39 -81 37 -81 -2 0 -24 9 -49 19
-60 26 -197 58 -281 66 -56 6 -73 12 -87 30 -19 23 -29 26 -234 76 -151 36
-241 74 -307 129 -25 22 -50 40 -54 40 -3 0 -4 -21 -1 -46 7 -65 42 -99 152
-146 50 -21 32 -22 -104 -4 -118 16 -148 11 -240 -42 l-54 -30 38 -16 c121
-51 143 -54 285 -42 l95 7 -60 -29 c-80 -39 -125 -90 -125 -142 0 -22 2 -40 5
-40 3 0 29 19 58 42 101 80 238 129 414 147 87 9 143 30 143 53 0 22 251 -21
337 -57 l38 -16 -108 -28 c-130 -34 -178 -64 -221 -141 -42 -75 -43 -169 -3
-251 37 -77 85 -103 187 -104 66 0 85 5 144 34 83 41 118 89 142 200 9 42 18
78 20 80 7 8 144 -112 163 -143 30 -48 36 -129 17 -206 -33 -133 -154 -342
-315 -545 -35 -44 -76 -105 -92 -137 -23 -46 -34 -58 -60 -63 -166 -37 -392
63 -464 206 -83 162 0 370 159 400 53 10 121 -5 167 -37 94 -65 107 -208 24
-284 -55 -52 -174 -20 -210 55 -19 42 -13 69 23 107 34 37 79 37 121 2 33 -27
44 -19 13 9 -33 30 -78 40 -109 25 -33 -16 -73 -72 -73 -103 0 -57 95 -135
165 -135 123 0 183 186 94 294 -109 132 -303 103 -387 -58 -23 -44 -27 -63
-27 -137 l0 -86 -50 44 c-27 24 -71 54 -97 67 -25 13 -60 39 -78 59 -43 50
-93 63 -141 37 -46 -23 -53 -17 -28 23 26 44 24 64 -10 98 -23 23 -38 29 -71
29 -37 0 -48 6 -104 60 -35 33 -65 60 -68 60 -11 0 -16 -82 -7 -113 5 -18 28
-50 55 -73 33 -29 45 -46 41 -58 -9 -23 -18 -20 -72 21 -64 50 -123 53 -179 8
-67 -54 -107 -84 -119 -89 -8 -3 -5 -9 8 -17 11 -7 44 -36 73 -66 63 -62 113
-81 168 -63 18 6 40 19 46 29 18 24 34 32 52 25 27 -10 18 -40 -20 -69 -47
-36 -74 -82 -74 -125 0 -61 12 -64 54 -14 44 52 87 74 146 74 75 0 114 67 70
123 -36 45 -20 50 37 11 46 -31 88 -28 141 12 l35 27 53 -27 c54 -28 148 -122
196 -194 36 -55 107 -105 198 -141 l75 -30 -43 -1 c-65 0 -223 35 -347 77
-109 37 -112 37 -270 37 -167 1 -238 -11 -325 -53 l-39 -19 -62 37 c-138 80
-255 244 -325 454 -14 43 -28 76 -31 74 -7 -8 45 -153 81 -225 19 -37 50 -91
70 -121 20 -29 36 -54 36 -56 0 -2 -22 7 -49 20 -75 37 -237 91 -331 111 -58
12 -127 18 -215 18 -140 0 -214 -14 -314 -59 l-54 -25 -88 89 c-81 81 -89 92
-89 127 0 28 -14 64 -51 129 -127 226 -159 308 -159 412 0 35 -4 63 -8 63 -5
0 -21 -13 -36 -29 -38 -40 -44 -98 -18 -176 11 -33 19 -61 17 -63 -2 -2 -28
32 -59 75 -76 107 -87 119 -122 136 -27 14 -135 57 -141 57 -8 0 1 -30 29 -98
27 -67 42 -88 117 -160 l86 -82 -47 20 c-94 41 -190 33 -217 -17 -9 -18 -4
-20 67 -31 125 -20 238 -80 388 -208 56 -47 84 -64 106 -64 24 0 47 -18 124
-94 l94 -93 -40 -28 c-42 -29 -109 -98 -128 -131 -10 -19 -13 -18 -89 10 -293
107 -363 128 -703 206 -277 64 -354 84 -459 122 -47 17 -93 31 -101 31 -8 0
-54 -14 -101 -31 -101 -36 -188 -60 -399 -108 -365 -83 -477 -114 -679 -190
-79 -30 -149 -54 -155 -54 -6 1 -26 21 -44 46 -19 25 -58 64 -87 87 l-53 41
93 93 c76 76 99 93 123 93 22 0 50 17 106 64 150 128 263 188 388 208 71 11
76 13 67 31 -27 50 -123 58 -217 17 l-47 -20 86 82 c75 72 90 93 117 160 32
78 38 102 24 96 -4 -1 -39 -14 -77 -28 -79 -29 -102 -49 -180 -161 -31 -44
-58 -79 -60 -77 -2 2 6 30 17 63 26 78 20 136 -18 176 -15 16 -31 29 -36 29
-4 0 -8 -28 -8 -63 0 -104 -32 -186 -159 -412 -37 -65 -51 -101 -51 -129 0
-35 -8 -46 -88 -127 l-88 -88 -83 34 c-151 60 -323 69 -518 26 -95 -21 -239
-70 -315 -106 -27 -13 -48 -22 -48 -20 0 2 16 27 36 56 20 30 51 84 70 121 36
72 88 217 81 225 -3 2 -17 -31 -31 -74 -70 -210 -187 -374 -325 -454 l-62 -37
-39 19 c-87 42 -158 54 -325 53 -158 0 -161 0 -270 -37 -124 -42 -282 -77
-347 -77 l-43 1 75 30 c91 36 162 86 198 141 48 72 142 166 196 194 l53 27 35
-27 c53 -40 95 -43 141 -12 57 39 73 34 37 -11 -44 -56 -5 -123 70 -123 59 0
102 -22 146 -74 42 -50 54 -47 54 14 0 43 -27 89 -74 125 -38 29 -47 59 -20
69 18 7 34 -1 52 -25 6 -10 28 -23 46 -29 55 -18 105 1 168 63 29 30 62 59 73
66 13 8 16 14 8 17 -12 5 -52 35 -119 89 -56 45 -115 42 -179 -7 -54 -42 -63
-45 -72 -22 -4 10 11 31 46 63 53 49 57 61 51 141 -1 19 -4 37 -6 39 -2 2 -33
-23 -68 -57 -58 -56 -69 -62 -106 -62 -33 0 -48 -6 -71 -29 -34 -34 -36 -54
-10 -98 25 -40 18 -46 -28 -23 -48 26 -98 13 -141 -37 -18 -20 -53 -46 -78
-59 -26 -13 -70 -43 -97 -68 l-51 -44 4 67 c10 172 -124 320 -269 297 -93 -15
-170 -82 -187 -163 -23 -104 46 -213 133 -213 70 0 165 78 165 135 0 31 -40
87 -73 103 -31 15 -76 5 -109 -25 -31 -28 -20 -36 13 -9 42 35 87 35 121 -1
36 -39 42 -66 23 -108 -36 -75 -155 -107 -210 -55 -40 37 -55 73 -55 131 0
122 119 214 246 190 159 -30 242 -238 159 -400 -58 -115 -231 -213 -375 -213
-103 0 -115 6 -155 79 -20 36 -61 96 -92 135 -151 190 -276 407 -309 538 -19
77 -13 158 17 206 19 31 156 151 163 143 2 -2 11 -38 20 -80 24 -111 59 -159
142 -200 59 -29 78 -34 144 -33 84 0 122 15 163 63 36 43 51 96 51 172 0 54
-5 75 -31 120 -42 76 -90 106 -220 140 l-108 28 38 16 c86 36 337 79 337 57 0
-23 56 -44 143 -53 177 -18 306 -64 409 -144 31 -25 59 -45 62 -45 3 0 6 18 6
40 0 52 -45 103 -125 142 l-60 29 95 -7 c142 -12 164 -9 285 42 l38 16 -54 30
c-92 53 -122 58 -240 42 -147 -19 -152 -18 -74 20 89 42 116 72 122 130 3 25
2 46 -1 46 -4 0 -29 -18 -54 -40 -66 -55 -156 -93 -307 -129 -205 -50 -215
-53 -234 -76 -14 -18 -31 -24 -87 -30 -84 -8 -221 -40 -281 -66 -25 -10 -47
-19 -49 -19 -2 0 14 36 37 81 22 45 38 83 36 86 -3 2 -41 -14 -86 -36 -45 -23
-81 -39 -81 -37 0 2 9 24 19 49 26 60 58 197 66 281 6 55 12 73 31 90 19 17
32 56 65 191 45 189 81 278 139 347 22 25 40 50 40 54 0 3 -21 4 -46 1 -58 -6
-88 -33 -130 -122 -39 -79 -39 -79 -20 74 16 126 12 147 -47 250 l-25 44 -16
-38 c-51 -121 -54 -143 -42 -285 l7 -95 -29 60 c-39 80 -90 125 -142 125 -22
0 -40 -2 -40 -5 0 -3 19 -29 42 -58 80 -101 129 -238 147 -414 9 -87 30 -143
53 -143 22 0 -21 -251 -57 -337 l-16 -38 -28 108 c-34 130 -64 178 -141 221
-75 42 -169 43 -251 3 -77 -37 -103 -85 -104 -187 0 -66 5 -85 34 -144 41 -83
89 -118 200 -142 42 -9 78 -18 80 -20 8 -7 -112 -144 -143 -163 -48 -30 -129
-36 -206 -17 -132 33 -341 154 -544 314 -43 34 -105 74 -136 89 -53 26 -59 31
-65 68 -32 175 63 388 206 460 163 83 373 -3 403 -163 8 -46 -10 -120 -40
-163 -65 -94 -208 -107 -284 -24 -52 56 -18 180 57 212 41 16 68 10 106 -25
36 -34 36 -79 1 -121 -27 -33 -19 -44 9 -13 50 55 41 117 -23 160 -62 42 -131
13 -171 -73 -45 -97 2 -179 118 -205 104 -24 216 62 238 183 28 146 -121 285
-296 275 l-67 -4 43 49 c23 27 52 69 65 94 13 26 43 65 67 88 38 37 43 46 43
86 0 24 -7 53 -15 63 -22 29 -8 37 28 16 44 -27 63 -25 98 9 23 23 29 38 29
71 0 37 6 48 60 104 33 35 60 65 60 68 0 11 -82 16 -113 7 -18 -5 -50 -28 -73
-55 -29 -33 -46 -45 -58 -41 -23 9 -20 18 22 72 49 64 52 123 7 179 -54 67
-84 107 -89 119 -3 8 -9 5 -17 -8 -7 -11 -36 -44 -66 -73 -62 -63 -81 -113
-63 -168 6 -18 19 -40 29 -46 24 -18 32 -34 25 -52 -10 -27 -40 -18 -69 20
-36 47 -82 74 -125 74 -61 0 -64 -12 -14 -54 52 -44 74 -87 74 -146 0 -75 67
-114 123 -70 45 36 50 20 11 -37 -31 -46 -28 -88 12 -141 l27 -35 -27 -53
c-28 -54 -122 -148 -194 -196 -55 -36 -105 -107 -141 -198 -30 -75 -30 -75
-31 -34 0 67 28 198 73 333 l41 126 0 160 c1 167 -11 238 -53 324 -18 39 -18
40 5 81 89 156 246 272 466 346 44 14 77 28 75 31 -8 7 -153 -45 -225 -81 -37
-19 -91 -50 -121 -70 -29 -20 -54 -36 -56 -36 -2 0 7 22 20 49 37 75 91 238
111 331 27 126 25 321 -4 423 -12 43 -31 96 -43 118 l-20 40 88 90 c82 82 91
89 128 89 30 0 64 13 130 51 226 127 308 159 412 159 35 0 63 4 63 8 0 5 -13
21 -29 36 -40 38 -98 44 -176 18 -33 -11 -61 -19 -63 -17 -2 2 33 29 77 60
112 78 132 101 161 180 14 38 27 73 28 77 6 14 -18 8 -96 -24 -67 -27 -88 -42
-160 -117 l-82 -86 20 49 c31 74 36 126 15 170 -10 20 -25 41 -35 46 -15 8
-18 -1 -28 -68 -20 -125 -80 -238 -208 -388 -47 -56 -64 -84 -64 -105 0 -23
-18 -48 -93 -123 l-93 -94 -42 53 c-22 29 -61 68 -86 87 -25 18 -45 38 -46 44
0 6 24 76 54 155 76 201 101 292 185 659 55 238 77 320 113 420 17 47 30 92
30 100 0 8 -13 53 -30 100 -36 99 -57 180 -113 420 -84 366 -110 458 -185 659
-30 79 -54 149 -54 155 1 6 21 26 46 44 25 19 64 58 87 87 l41 53 93 -93 c76
-76 93 -99 93 -123 0 -22 17 -50 64 -106 128 -150 188 -263 208 -388 10 -67
13 -76 28 -68 10 5 25 26 35 46 21 44 16 96 -15 170 l-20 49 82 -86 c72 -75
93 -90 160 -117 78 -32 102 -38 96 -24 -2 4 -14 39 -28 77 -29 79 -49 102
-161 180 -44 31 -79 58 -77 60 2 2 30 -6 63 -17 78 -26 136 -20 176 18 16 15
29 31 29 36 0 4 -28 8 -63 8 -104 0 -183 31 -422 165 -56 31 -92 45 -119 45
-35 0 -46 8 -127 89 l-89 88 24 56 c47 104 60 173 60 312 0 88 -6 158 -18 215
-20 93 -74 256 -111 331 -13 27 -21 49 -19 49 2 0 30 -17 62 -39 31 -21 85
-53 119 -70 68 -34 212 -85 220 -78 2 3 -31 17 -74 31 -210 70 -374 187 -454
325 l-37 62 19 39 c42 87 54 158 53 325 l0 160 -41 126 c-45 135 -73 266 -73
333 1 41 1 41 31 -34 36 -91 86 -162 141 -198 72 -48 166 -142 194 -196 l27
-53 -27 -35 c-40 -53 -43 -95 -12 -141 39 -57 34 -73 -11 -37 -56 44 -123 5
-123 -70 0 -59 -22 -102 -74 -146 -50 -42 -47 -54 14 -54 43 0 89 27 125 74
29 38 59 47 69 20 7 -18 -1 -34 -25 -52 -10 -6 -23 -28 -29 -46 -18 -55 1
-105 63 -168 30 -29 59 -62 66 -73 8 -13 14 -16 17 -8 5 12 35 52 89 119 45
56 42 115 -7 179 -42 54 -45 63 -22 72 12 4 29 -8 58 -41 23 -27 55 -50 73
-55 31 -9 113 -4 113 7 0 3 -27 33 -60 68 -54 56 -60 67 -60 104 0 33 -6 48
-29 71 -35 34 -54 36 -98 9 -36 -21 -50 -13 -28 16 8 10 15 39 15 63 0 39 -5
49 -42 86 -24 23 -54 63 -68 89 -14 26 -44 68 -66 94 l-42 48 67 -4 c92 -5
170 25 232 88 172 175 -21 459 -236 348 -68 -36 -90 -96 -61 -171 35 -92 111
-129 176 -85 64 43 73 105 23 160 -28 31 -36 20 -9 -13 35 -42 35 -87 -1 -121
-38 -35 -65 -41 -106 -25 -75 32 -109 157 -57 212 37 40 73 55 131 55 93 0
166 -63 188 -162 44 -197 -198 -345 -398 -243 -143 72 -237 282 -207 460 6 35
12 42 49 58 23 9 94 56 157 103 318 239 518 336 659 320 30 -4 69 -16 87 -27
31 -19 151 -156 143 -163 -2 -2 -38 -11 -80 -20 -111 -24 -159 -59 -200 -142
-29 -59 -34 -78 -34 -144 1 -102 27 -150 104 -187 82 -40 176 -39 251 3 77 43
107 91 141 221 l28 108 16 -38 c36 -86 79 -337 57 -337 -22 0 -44 -56 -52
-138 -20 -182 -69 -319 -148 -419 -23 -29 -42 -55 -42 -58 0 -3 18 -5 40 -5
52 0 103 45 142 125 l29 60 -7 -95 c-12 -142 -9 -164 42 -285 l16 -38 27 50
c59 108 61 118 45 244 -19 153 -19 153 20 74 42 -89 72 -116 130 -122 25 -3
46 -2 46 1 0 4 -18 29 -40 54 -58 69 -94 158 -139 347 -33 135 -46 174 -65
191 -19 17 -25 35 -31 90 -8 84 -40 221 -66 281 -10 25 -19 47 -19 49 0 2 36
-14 81 -37 45 -22 83 -38 86 -36 2 3 -14 41 -36 86 -23 45 -39 81 -37 81 2 0
24 -9 49 -19 60 -26 197 -58 281 -66 55 -6 73 -12 90 -31 17 -19 56 -32 191
-65 189 -45 278 -81 347 -139 25 -22 50 -40 54 -40 3 0 4 21 1 46 -6 58 -33
88 -122 130 -78 38 -73 39 74 20 118 -16 148 -11 240 42 l54 30 -38 16 c-121
51 -143 54 -285 42 l-95 -7 60 29 c81 40 116 78 122 136 3 25 2 46 -2 46 -3 0
-32 -20 -63 -45 -102 -79 -235 -126 -411 -144 -85 -9 -141 -30 -141 -53 0 -22
-251 21 -337 57 l-38 16 108 28 c130 34 178 64 220 140 66 117 29 282 -77 338
-21 12 -56 17 -106 17 -66 1 -85 -4 -144 -33 -83 -41 -118 -89 -142 -200 -9
-42 -18 -78 -20 -80 -7 -8 -144 112 -163 143 -30 48 -36 129 -17 206 33 132
153 340 309 538 50 64 106 154 123 200 1 1 28 6 60 10 69 10 110 6 179 -15z
m-281 -55 c-14 -28 -61 -97 -104 -152 -199 -259 -307 -468 -311 -606 -3 -80
-30 76 -31 175 -1 190 56 330 191 466 70 70 102 94 171 127 47 23 91 42 98 42
8 0 4 -17 -14 -52z m8075 11 c70 -34 102 -58 172 -128 135 -136 193 -278 191
-471 -1 -96 -28 -247 -31 -170 -4 138 -112 347 -311 606 -82 106 -139 204
-118 204 6 0 50 -19 97 -41z m-4445 -28 c16 -6 9 -13 -43 -39 -109 -54 -170
-51 -239 12 -20 18 -52 66 -52 79 0 5 311 -43 334 -52z m1053 22 c-19 -35 -52
-66 -96 -88 -44 -22 -100 -14 -182 27 -52 26 -59 33 -43 39 20 8 327 57 332
53 2 -1 -3 -15 -11 -31z m-5049 -110 c-18 -27 -47 -75 -65 -108 -18 -33 -33
-56 -33 -51 0 13 68 135 96 174 38 49 39 38 2 -15z m8777 -68 c19 -33 37 -69
40 -80 4 -11 -8 7 -27 40 -18 33 -48 83 -66 110 -26 38 -27 43 -7 20 14 -16
41 -57 60 -90z m-4235 -102 c111 -5 137 -8 110 -15 -19 -5 -92 -27 -162 -49
l-128 -41 -127 41 c-71 22 -144 45 -163 50 -29 8 -17 10 65 11 55 1 125 6 155
10 30 4 66 6 80 4 14 -2 90 -7 170 -11z m-4050 -474 c105 -24 156 -90 148
-193 -8 -97 -61 -176 -146 -220 -37 -18 -133 -29 -191 -21 -45 6 -49 9 -60 44
-6 21 -11 40 -11 43 0 3 24 -3 53 -13 145 -50 254 9 265 145 4 50 2 56 -30 91
-29 32 -42 38 -84 42 -64 5 -109 -21 -123 -72 -17 -62 9 -101 72 -112 60 -9
108 56 75 100 -16 20 -64 32 -72 18 -4 -7 -1 -9 8 -5 28 11 56 -14 56 -52 0
-28 -5 -36 -26 -45 -84 -31 -140 66 -75 132 68 68 191 11 191 -88 0 -43 -41
-115 -79 -140 -43 -29 -102 -30 -176 -2 -40 15 -59 28 -66 46 -12 33 -11 119
2 166 14 53 77 113 136 131 58 18 75 18 133 5z m7910 -22 c69 -36 102 -90 107
-179 7 -101 -3 -121 -72 -147 -74 -28 -133 -27 -176 2 -38 25 -79 97 -79 140
0 99 123 156 191 88 65 -66 9 -163 -75 -132 -21 9 -26 17 -26 45 0 38 28 63
56 52 9 -4 12 -2 8 5 -8 14 -56 2 -71 -18 -20 -26 -15 -51 13 -80 21 -21 32
-24 61 -20 63 11 89 50 72 112 -14 51 -59 77 -123 72 -42 -4 -55 -10 -83 -41
-41 -45 -45 -101 -10 -167 46 -87 128 -110 245 -70 28 10 52 16 52 13 0 -3 -5
-22 -11 -43 -11 -35 -15 -38 -60 -44 -58 -8 -154 3 -191 21 -46 24 -98 75
-120 118 -29 56 -35 152 -14 199 46 96 193 132 306 74z m-9100 -136 c-144 -46
-331 -155 -314 -183 4 -7 3 -8 -4 -4 -26 16 -183 -181 -249 -311 l-38 -74 -35
6 c-19 4 -37 9 -40 12 -3 2 10 32 29 66 141 258 360 437 601 492 41 9 80 18
85 20 6 2 19 3 30 3 11 1 -18 -12 -65 -27z m359 -2 c140 -37 263 -112 374
-225 l58 -59 -43 -7 c-40 -6 -45 -4 -68 25 -136 172 -234 221 -445 221 -124 0
-185 -14 -300 -69 -149 -71 -272 -203 -326 -351 -12 -32 -26 -63 -30 -68 -4
-4 -32 -14 -63 -21 -69 -16 -70 -13 -17 89 113 218 297 365 581 462 108 37
151 37 279 3z m9669 0 c279 -90 481 -248 592 -462 54 -106 54 -108 -16 -92
-31 7 -59 17 -63 21 -4 5 -18 36 -31 69 -59 153 -176 279 -325 350 -115 55
-176 69 -300 69 -211 0 -309 -49 -445 -221 -23 -29 -28 -31 -68 -25 l-44 7 57
57 c131 135 287 218 463 248 74 12 78 12 180 -21z m152 4 c235 -56 453 -237
591 -490 19 -34 32 -64 29 -66 -3 -3 -21 -8 -40 -12 l-35 -6 -37 73 c-66 130
-225 327 -251 311 -6 -3 -7 -1 -3 5 17 27 -168 136 -314 184 -89 30 -60 30 60
1z m-10315 -76 c-33 -18 -82 -48 -110 -66 -29 -19 -42 -25 -30 -13 22 23 173
112 190 112 5 0 -17 -15 -50 -33z m527 -2 c49 -12 50 -13 18 -14 -138 -4 -347
-112 -606 -311 -106 -82 -204 -139 -204 -118 0 6 18 49 41 95 133 276 449 422
751 348z m9658 -1 c115 -26 205 -78 301 -173 67 -67 94 -103 122 -161 20 -41
39 -85 42 -98 l7 -23 -53 26 c-29 15 -98 62 -153 105 -259 199 -470 308 -606
311 l-35 1 30 9 c93 30 222 31 345 3z m261 -18 c41 -24 82 -52 90 -62 7 -10
-8 -3 -36 16 -27 19 -72 47 -100 62 -27 15 -45 28 -40 28 6 0 44 -20 86 -44z
m-9608 -265 c18 -7 31 -26 46 -66 28 -74 27 -133 -2 -176 -25 -38 -97 -79
-140 -79 -99 0 -156 123 -88 191 66 65 163 9 132 -75 -9 -21 -17 -26 -45 -26
-38 0 -63 28 -52 56 4 9 2 12 -5 8 -14 -8 -2 -56 18 -71 26 -20 51 -15 80 13
21 21 24 32 20 61 -11 63 -50 89 -112 72 -51 -14 -77 -59 -72 -123 4 -42 10
-55 41 -83 44 -40 97 -44 163 -12 88 43 114 130 74 247 -10 28 -16 52 -13 52
3 0 22 -5 43 -11 35 -11 38 -15 44 -60 8 -58 -3 -154 -21 -191 -44 -85 -123
-138 -220 -146 -75 -6 -121 14 -158 67 -64 91 -53 224 24 301 22 22 54 43 72
49 44 12 140 13 171 2z m8880 -2 c21 -6 56 -28 77 -49 95 -95 85 -266 -19
-345 -38 -29 -160 -28 -217 2 -43 23 -95 76 -118 121 -18 37 -29 133 -21 191
6 45 9 49 44 60 21 6 40 11 43 11 3 0 -3 -24 -13 -52 -40 -117 -14 -204 74
-247 66 -32 119 -28 163 12 31 28 37 41 41 83 5 64 -21 109 -72 123 -62 17
-101 -9 -112 -72 -9 -60 56 -108 100 -74 20 15 32 63 18 71 -7 4 -9 1 -5 -8
11 -28 -14 -56 -52 -56 -28 0 -36 5 -45 26 -31 84 66 140 132 75 68 -68 11
-191 -88 -191 -43 0 -115 41 -140 79 -15 22 -23 49 -23 77 0 59 36 153 63 164
31 12 125 12 170 -1z m-10007 -207 c-17 -54 -25 -177 -15 -259 13 -113 29
-184 76 -325 36 -110 37 -116 37 -263 0 -153 -11 -223 -50 -312 l-16 -38 -39
80 c-21 44 -56 134 -78 200 -100 300 -122 598 -63 830 l18 70 60 16 c78 22 76
22 70 1z m11046 -3 c47 -11 48 -11 64 -67 8 -31 17 -63 20 -70 2 -7 8 -62 14
-122 23 -247 -46 -598 -169 -855 l-39 -80 -16 38 c-40 91 -51 159 -50 312 0
146 1 153 37 263 47 141 63 213 76 325 10 83 2 206 -15 261 -5 15 -3 18 12 12
11 -4 40 -12 66 -17z m-11235 -13 c2 -2 -4 -22 -12 -46 -31 -87 -47 -178 -52
-295 -13 -282 60 -576 200 -810 26 -42 47 -81 47 -84 0 -13 -76 -80 -126 -110
-68 -41 -135 -65 -144 -50 -4 6 -15 53 -25 105 -16 87 -16 96 -2 112 47 51 61
159 29 222 -9 19 -33 46 -54 59 l-36 23 -7 106 c-4 58 -5 198 -2 311 6 203 6
208 41 306 62 178 55 168 101 160 21 -3 41 -7 42 -9z m11442 -18 c7 -18 28
-78 47 -133 35 -98 35 -103 41 -306 3 -113 2 -254 -2 -312 l-7 -106 -34 -20
c-19 -11 -43 -35 -54 -53 -35 -58 -22 -176 27 -230 14 -16 14 -25 -1 -105 -22
-113 -25 -123 -38 -123 -46 0 -258 140 -258 170 0 4 19 39 42 76 197 323 264
792 157 1102 -10 30 -19 56 -19 58 0 1 10 5 23 7 53 10 62 7 76 -25z m-11637
-618 l3 -236 -27 4 c-16 2 -30 8 -33 12 -8 12 13 264 33 390 20 135 20 134 24
-170z m11777 40 c6 -58 12 -141 13 -184 l3 -80 -34 -7 -34 -7 7 52 c3 28 6
143 7 256 1 197 2 202 14 140 8 -36 18 -112 24 -170z m-11849 -332 c0 -29 3
-104 7 -165 7 -126 4 -131 -49 -84 -27 24 -33 36 -32 70 1 22 11 57 23 77 16
27 18 34 6 24 -9 -7 -23 -30 -31 -49 -28 -66 0 -134 67 -161 20 -9 29 -20 29
-35 0 -12 3 -56 6 -98 l7 -76 -39 11 c-57 15 -91 35 -141 81 -52 48 -69 78
-84 146 -24 111 33 234 130 284 30 15 65 27 78 27 21 0 23 -4 23 -52z m68 43
c20 -12 58 -297 42 -316 -18 -22 -77 -20 -84 3 -2 9 -8 86 -11 170 l-7 152 23
0 c13 0 30 -4 37 -9z m11797 -143 c-3 -84 -9 -161 -11 -170 -4 -13 -15 -18
-38 -18 -58 0 -60 12 -37 176 21 151 26 164 70 164 l23 0 -7 -152z m116 125
c99 -51 153 -171 129 -288 -19 -93 -103 -182 -202 -216 -29 -9 -54 -16 -56
-14 -2 2 -1 46 3 99 7 91 8 95 35 106 71 29 96 99 61 168 -11 22 -25 43 -31
47 -5 3 0 -10 11 -30 12 -20 22 -54 23 -76 1 -34 -5 -46 -32 -70 -53 -47 -56
-42 -49 84 4 61 7 136 7 165 0 48 2 52 23 52 13 0 48 -12 78 -27z m-11833 -27
c36 -33 37 -37 37 -103 0 -65 -25 -143 -45 -143 -7 0 -15 46 -39 223 -4 31 -4
57 1 57 4 0 25 -15 46 -34z m11617 -125 c-9 -64 -19 -118 -22 -121 -2 -3 -10
4 -16 15 -55 94 -46 207 21 247 26 16 27 16 30 -4 2 -12 -4 -73 -13 -137z
m-11616 -261 c11 -52 18 -96 17 -97 -1 -1 -27 -5 -58 -9 -64 -8 -62 -11 -74
119 l-7 77 34 0 c19 0 41 5 49 10 18 11 15 18 39 -100z m11672 90 l32 0 -7
-77 c-12 -130 -10 -127 -74 -119 -31 4 -57 8 -58 9 -1 1 7 48 18 104 19 93 22
101 39 93 10 -6 32 -10 50 -10z m-11168 -235 c78 -155 118 -331 118 -520 0
-135 -18 -234 -59 -327 l-19 -43 -64 88 c-35 48 -101 149 -147 224 -91 152
-275 511 -286 558 -4 17 -9 38 -12 48 -3 11 0 17 9 17 29 0 173 80 220 122
l48 43 83 -80 c49 -47 94 -100 109 -130z m10953 79 l92 -45 -13 -48 c-30 -116
-299 -604 -434 -788 l-64 -88 -19 43 c-82 186 -81 471 4 710 48 137 75 181
162 267 l81 80 50 -43 c28 -24 91 -63 141 -88z m-11427 -81 c5 -21 19 -76 31
-123 55 -218 243 -819 294 -941 10 -22 -68 -49 -140 -49 l-52 0 -21 63 c-86
259 -183 687 -236 1034 l-7 42 44 4 c24 2 51 4 60 5 12 1 20 -9 27 -35z
m11649 22 c5 -4 -29 -213 -63 -385 -36 -177 -122 -515 -170 -667 l-26 -83 -53
0 c-72 0 -150 27 -140 49 59 141 264 805 308 1001 10 41 19 81 22 88 2 9 19
11 61 6 32 -4 59 -8 61 -9z m-11363 -590 c45 -77 115 -184 153 -237 l71 -97
-37 -50 c-42 -56 -123 -124 -134 -113 -21 22 -288 871 -288 916 0 6 34 -54 76
-134 42 -80 113 -208 159 -285z m11135 229 c-52 -182 -226 -713 -238 -726 -11
-11 -92 57 -134 113 l-37 50 65 89 c83 114 229 357 319 532 39 75 71 133 73
129 1 -4 -20 -88 -48 -187z m-11016 -941 c72 -195 112 -335 165 -574 44 -198
45 -206 45 -599 0 -393 -1 -401 -45 -599 -53 -239 -93 -379 -165 -574 -47
-126 -61 -156 -74 -150 -8 3 -50 18 -92 32 -43 14 -78 31 -78 37 0 5 24 82 54
170 29 87 61 197 71 244 23 120 21 116 71 145 51 30 92 86 101 138 7 44 -17
123 -57 188 l-28 46 21 162 20 161 -20 162 -21 161 28 46 c40 65 64 144 57
188 -9 52 -50 108 -101 138 -50 29 -48 25 -71 145 -9 47 -41 157 -71 244 -30
87 -54 164 -54 171 0 6 21 17 48 24 26 6 65 20 87 31 22 10 42 19 45 19 3 1
32 -70 64 -156z m10878 118 c43 -14 78 -31 78 -37 0 -6 -24 -82 -54 -170 -30
-87 -64 -204 -75 -259 -13 -64 -27 -104 -37 -110 -90 -56 -133 -113 -134 -177
0 -38 27 -115 60 -169 l28 -46 -21 -161 -20 -162 20 -162 21 -161 -28 -46
c-33 -54 -60 -130 -60 -168 0 -62 47 -124 134 -178 10 -6 25 -51 41 -123 13
-62 47 -178 75 -258 27 -80 50 -151 50 -157 0 -7 -35 -24 -78 -38 -42 -14 -84
-29 -92 -32 -13 -6 -27 23 -72 145 -76 207 -99 286 -158 541 -55 237 -54 230
-54 637 0 388 2 409 39 575 70 309 95 392 206 693 18 49 27 61 39 56 8 -4 50
-19 92 -33z m-10934 -605 c34 -18 65 -51 87 -95 22 -44 14 -100 -27 -182 -26
-52 -33 -59 -39 -43 -9 23 -57 334 -52 334 2 0 16 -6 31 -14z m10834 -143
c-32 -212 -31 -211 -70 -134 -43 85 -49 137 -24 187 25 48 84 102 113 104 3 0
-6 -71 -19 -157z m-10491 -415 l41 -128 -41 -127 c-22 -71 -44 -144 -49 -163
-7 -27 -10 0 -16 115 -10 183 -10 167 0 350 6 115 9 142 16 115 5 -19 27 -92
49 -162z m10211 -123 c0 -16 -3 -97 -7 -180 -7 -115 -10 -142 -17 -115 -5 19
-27 92 -49 163 l-41 127 40 123 c22 68 44 141 48 162 7 32 10 10 17 -105 4
-80 9 -158 9 -175z m-10518 138 c16 -135 16 -151 0 -285 -9 -79 -20 -146 -23
-150 -6 -7 -112 120 -169 204 -56 82 -56 88 -12 157 56 86 174 231 181 223 3
-4 14 -71 23 -149z m10848 72 c92 -114 138 -186 138 -215 0 -14 -17 -50 -38
-81 -58 -87 -166 -219 -173 -211 -3 4 -14 71 -23 150 -16 134 -16 152 -1 280
16 136 22 169 29 161 2 -2 32 -40 68 -84z m-10797 -689 c8 -27 15 -58 15 -68
0 -24 -26 -76 -54 -106 -18 -20 -66 -52 -79 -52 -3 0 38 276 49 330 5 24 6 24
30 -15 13 -22 31 -62 39 -89z m10747 -68 c13 -87 23 -158 21 -158 -13 0 -61
32 -79 52 -63 69 -66 130 -12 239 39 77 38 78 70 -133z m-10903 -814 c43 -12
51 -18 46 -32 -62 -151 -227 -676 -294 -941 -22 -84 -41 -155 -43 -157 -9 -8
-118 10 -118 20 0 28 54 326 85 472 35 162 118 476 156 592 l21 62 47 0 c26 0
71 -7 100 -16z m11136 -66 c48 -153 134 -491 170 -668 34 -173 68 -380 63
-385 -2 -2 -29 -5 -61 -7 l-58 -3 -38 150 c-57 222 -122 442 -210 700 -43 127
-82 237 -85 246 -10 23 60 47 136 48 l57 1 26 -82z m-10947 -74 l41 -55 -71
-97 c-85 -117 -210 -326 -312 -522 -42 -80 -76 -140 -76 -134 0 39 216 736
279 897 l11 28 44 -31 c24 -18 62 -57 84 -86z m10811 -169 c82 -247 191 -611
191 -639 0 -6 -34 54 -76 134 -102 196 -227 405 -312 522 l-70 97 33 48 c37
52 125 127 137 115 4 -4 47 -128 97 -277z m-10708 -63 c25 -98 27 -299 4 -420
-18 -92 -64 -230 -102 -307 -15 -30 -60 -83 -109 -130 l-83 -80 -48 43 c-47
42 -191 122 -220 122 -9 0 -12 6 -9 18 3 9 8 31 12 47 11 47 194 406 285 557
46 76 112 177 148 225 l65 88 18 -43 c11 -23 28 -77 39 -120z m10564 -17 c132
-200 344 -599 370 -697 l13 -47 -92 -45 c-50 -24 -113 -64 -139 -88 l-48 -43
-83 80 c-90 86 -115 127 -164 267 -83 233 -87 491 -11 693 l22 59 29 -34 c16
-19 62 -84 103 -145z m-11290 -849 c-7 -91 -8 -95 -35 -106 -66 -27 -94 -95
-66 -161 8 -19 22 -42 31 -49 12 -10 10 -3 -6 24 -12 20 -22 55 -23 77 -1 34
5 46 32 70 18 16 37 29 43 29 8 0 9 -48 4 -162 -4 -90 -9 -165 -11 -167 -9
-10 -79 14 -121 42 -91 61 -132 199 -94 311 16 45 91 130 136 154 33 17 108
41 113 36 2 -1 1 -45 -3 -98z m141 91 c1 -1 -7 -48 -18 -104 -19 -95 -22 -102
-40 -92 -11 6 -33 11 -50 11 l-30 1 6 76 c12 128 10 124 74 117 31 -4 57 -8
58 -9z m11667 -9 c3 -13 9 -57 13 -99 l6 -76 -30 -1 c-17 0 -39 -5 -50 -11
-18 -10 -21 -4 -36 77 -10 48 -19 95 -22 104 -5 17 14 23 82 27 25 1 33 -4 37
-21z m133 -23 c54 -32 118 -103 135 -151 38 -112 -3 -250 -94 -311 -42 -28
-112 -52 -121 -42 -2 2 -7 77 -11 167 -5 114 -4 162 4 162 6 0 25 -13 43 -29
27 -24 33 -36 32 -70 -1 -22 -11 -56 -23 -76 -11 -20 -16 -33 -10 -29 23 14
51 95 45 129 -7 34 -49 78 -86 90 -12 4 -20 15 -20 29 0 13 -3 57 -6 99 l-7
76 39 -10 c21 -6 57 -21 80 -34z m-11689 -11 c67 -34 173 -115 173 -133 0 -4
-22 -44 -49 -89 -192 -320 -256 -783 -150 -1090 10 -30 18 -57 16 -58 -1 -2
-21 -6 -42 -9 -46 -8 -39 -18 -101 160 -35 98 -35 103 -41 306 -3 113 -2 253
2 311 l7 106 36 23 c21 13 45 40 54 59 32 63 18 171 -29 222 -15 16 -15 25 2
110 21 109 24 118 38 118 6 0 44 -16 84 -36z m11426 24 c2 -7 12 -55 22 -106
17 -85 17 -94 2 -110 -49 -54 -62 -172 -27 -230 11 -18 35 -42 54 -53 l34 -20
7 -106 c4 -58 5 -199 2 -312 -6 -203 -6 -208 -41 -306 -62 -178 -55 -168 -101
-160 -21 3 -41 7 -42 9 -2 1 6 28 16 58 106 307 42 770 -150 1090 -27 45 -49
85 -49 89 0 18 105 99 172 132 79 40 93 43 101 25z m-11593 -193 c9 -11 8 -45
-9 -161 -21 -151 -26 -164 -69 -164 l-24 0 7 163 c4 89 9 165 12 170 8 13 70
7 83 -8z m11744 -2 c2 -10 8 -87 11 -170 l7 -153 -23 0 c-44 0 -49 13 -70 164
-23 164 -21 176 37 176 23 0 34 -5 38 -17z m-11688 -60 c13 -26 19 -60 19
-106 0 -66 -1 -70 -37 -103 -61 -55 -60 -64 -28 164 7 45 16 82 20 82 4 0 16
-17 26 -37z m353 -36 c30 -91 44 -208 38 -324 -5 -81 -14 -127 -46 -228 -22
-69 -48 -165 -57 -213 -19 -98 -21 -255 -6 -322 6 -24 10 -45 9 -46 -1 -2 -31
5 -66 14 l-65 17 -18 70 c-58 228 -37 523 59 819 41 127 112 288 124 281 4 -3
17 -33 28 -68z m10990 -202 c76 -228 109 -465 91 -653 -8 -90 -38 -234 -51
-246 -5 -5 -123 -35 -126 -32 -1 1 3 22 9 46 15 67 13 224 -6 322 -9 48 -35
144 -58 215 -42 127 -42 129 -42 278 -1 153 10 221 50 312 l16 38 39 -80 c21
-44 56 -134 78 -200z m250 198 c7 -43 15 -107 18 -142 6 -60 5 -63 -13 -53
-10 6 -30 22 -44 37 -21 23 -25 36 -25 93 0 64 25 142 45 142 4 0 13 -35 19
-77z m-11688 -483 l-6 -255 -18 110 c-21 134 -40 377 -29 386 5 5 54 17 58 14
0 0 -2 -115 -5 -255z m11791 164 c-4 -110 -21 -277 -37 -354 -12 -62 -13 -57
-14 140 -1 113 -4 228 -7 256 l-7 52 34 -7 34 -7 -3 -80z m-10286 -612 c43
-22 94 -74 118 -120 18 -37 29 -133 21 -191 -6 -45 -9 -49 -44 -60 -21 -6 -40
-11 -43 -11 -3 0 3 24 13 53 40 116 17 198 -70 244 -66 35 -122 31 -167 -10
-31 -28 -37 -41 -41 -83 -5 -64 21 -109 72 -123 62 -17 101 9 112 72 9 60 -56
108 -100 75 -20 -16 -32 -64 -19 -72 6 -3 8 2 5 13 -7 28 32 64 60 55 33 -10
41 -21 41 -59 0 -75 -79 -102 -135 -46 -68 68 -11 191 88 191 43 0 115 -41
140 -79 29 -43 30 -102 2 -176 -24 -64 -42 -75 -122 -75 -77 0 -124 17 -167
60 -54 54 -77 131 -61 208 13 67 50 124 94 147 43 22 148 15 203 -13z m8946 3
c103 -78 113 -250 18 -345 -43 -43 -90 -60 -167 -60 -80 0 -98 11 -122 75 -28
74 -27 133 2 176 25 38 97 79 140 79 99 0 156 -123 88 -191 -56 -56 -135 -29
-135 46 0 38 8 49 41 59 28 9 67 -27 60 -55 -3 -11 -1 -16 5 -13 13 8 1 56
-19 72 -26 19 -51 14 -80 -14 -21 -21 -24 -32 -20 -61 11 -63 50 -89 112 -72
51 14 77 59 72 123 -4 42 -10 55 -41 83 -45 41 -101 45 -167 10 -87 -46 -110
-128 -70 -244 10 -29 16 -53 13 -53 -3 0 -22 5 -43 11 -35 11 -38 15 -44 60
-8 58 3 154 21 191 33 65 94 117 164 139 45 15 143 5 172 -16z m-10226 -227
c52 -117 241 -357 267 -341 6 3 7 1 3 -5 -17 -27 171 -137 314 -184 53 -17 70
-25 45 -22 -225 32 -423 144 -570 324 -57 70 -155 226 -155 247 0 11 21 18 61
22 10 0 23 -15 35 -41z m163 6 c4 -5 18 -36 31 -69 34 -87 102 -186 173 -251
68 -61 206 -133 297 -155 72 -17 240 -17 310 0 122 30 174 67 285 203 28 34
32 36 73 30 l43 -7 -68 -67 c-37 -37 -84 -79 -103 -94 -59 -43 -185 -103 -262
-123 -137 -36 -157 -36 -275 4 -291 98 -470 240 -585 462 -52 101 -51 104 18
88 31 -7 59 -17 63 -21z m11042 -68 c-111 -215 -300 -365 -584 -461 -88 -30
-115 -35 -155 -30 -196 27 -383 125 -515 271 l-37 42 42 5 c40 4 45 2 73 -32
113 -136 163 -172 285 -202 70 -17 238 -17 310 0 30 7 97 33 149 58 130 62
228 159 294 292 26 51 47 99 47 106 0 19 15 27 75 40 31 8 51 8 54 2 2 -5 -15
-46 -38 -91z m179 87 c3 -2 -10 -32 -29 -66 -159 -291 -402 -470 -696 -511
-25 -3 -8 5 45 22 143 47 331 157 314 184 -4 6 -3 8 3 5 27 -17 215 224 267
341 19 42 21 43 55 37 20 -4 38 -9 41 -12z m-10995 -153 c256 -198 468 -307
605 -311 77 -3 -74 -30 -170 -31 -192 -2 -334 56 -471 192 -67 66 -94 101
-122 160 -20 41 -39 85 -42 98 l-7 23 54 -27 c29 -15 98 -62 153 -104z m10695
67 c-69 -184 -255 -345 -455 -393 -85 -20 -238 -21 -315 -1 -51 14 -52 15 -20
16 137 4 349 113 605 311 87 67 194 134 203 125 1 -1 -7 -27 -18 -58z m-9309
-213 c47 -24 99 -74 122 -118 30 -57 31 -179 2 -217 -79 -104 -250 -114 -345
-19 -43 43 -60 90 -60 167 0 80 11 98 75 122 74 28 133 27 176 -2 38 -25 79
-97 79 -140 0 -99 -123 -156 -191 -88 -47 48 -39 113 15 131 52 17 86 -1 86
-44 0 -38 -28 -63 -56 -52 -9 4 -12 2 -8 -5 8 -14 56 -2 72 18 19 26 14 51
-14 80 -21 21 -32 24 -61 20 -63 -11 -89 -50 -72 -112 14 -51 59 -77 123 -72
42 4 55 10 83 41 41 45 45 101 10 167 -46 87 -128 110 -244 70 -29 -10 -53
-16 -53 -13 0 3 5 22 11 43 9 29 18 39 38 43 47 8 183 -4 212 -20z m7940 20
c32 -5 38 -11 48 -44 6 -20 11 -39 11 -42 0 -3 -24 3 -52 13 -117 40 -199 17
-245 -70 -35 -66 -31 -122 10 -167 28 -31 41 -37 83 -41 64 -5 109 21 123 72
17 62 -9 101 -72 112 -60 9 -108 -56 -74 -100 15 -20 63 -32 71 -18 4 7 1 9
-8 5 -28 -11 -56 14 -56 52 0 43 34 61 86 44 54 -18 62 -83 15 -131 -68 -68
-191 -11 -191 88 0 43 41 115 79 140 43 29 102 30 176 2 69 -26 79 -46 72
-147 -5 -91 -37 -143 -112 -181 -95 -49 -233 -24 -287 52 -32 44 -32 163 -1
222 59 111 180 163 324 139z m-8309 -159 c-80 -65 -145 -132 -162 -166 -35
-67 -53 -160 -54 -269 0 -129 13 -188 71 -309 62 -130 159 -228 292 -294 51
-26 99 -47 106 -47 19 0 26 -15 41 -77 15 -66 11 -67 -89 -15 -223 116 -374
308 -467 596 -35 110 -35 131 1 265 37 140 118 273 229 379 l55 53 7 -43 c6
-41 4 -45 -30 -73z m8588 -24 c89 -111 155 -267 175 -413 11 -82 -78 -316
-175 -458 -86 -125 -184 -213 -317 -282 -100 -52 -104 -51 -89 15 15 62 22 77
41 77 7 0 55 21 106 47 133 66 230 164 292 294 58 121 71 180 71 309 -1 109
-19 202 -54 269 -17 34 -80 99 -161 166 -34 28 -36 33 -32 72 l5 43 44 -38
c23 -20 66 -66 94 -101z m-9545 -19 c33 -19 51 -31 40 -27 -33 10 -138 72
-170 100 -23 20 -18 19 20 -7 28 -18 77 -48 110 -66z m10520 72 c-32 -27 -138
-89 -170 -100 -11 -3 14 14 57 38 42 25 89 55 105 66 39 29 45 27 8 -4z
m-9704 -439 c42 -118 136 -274 280 -461 42 -55 89 -124 104 -153 l26 -53 -23
7 c-13 3 -57 22 -98 42 -59 28 -94 55 -160 122 -94 94 -144 181 -176 301 -20
80 -22 233 -3 315 l14 60 7 -60 c4 -33 17 -87 29 -120z m8821 -25 c2 -192 -56
-334 -192 -471 -66 -67 -101 -94 -160 -122 -41 -20 -85 -39 -98 -42 l-23 -7
26 53 c15 29 62 98 105 153 198 258 307 469 311 606 3 77 30 -74 31 -170z
m-8883 -390 c43 -85 109 -172 123 -164 6 4 8 3 5 -3 -16 -26 199 -197 326
-259 58 -28 58 -29 52 -64 -4 -19 -9 -37 -12 -40 -2 -3 -28 8 -56 24 -304 168
-480 405 -522 701 -3 26 5 9 23 -45 15 -47 43 -114 61 -150z m8957 149 c-54
-279 -222 -494 -513 -655 -28 -16 -54 -27 -56 -24 -3 3 -8 21 -12 40 -6 35 -6
36 52 64 129 63 342 232 326 260 -3 6 -2 8 2 3 5 -4 17 0 27 10 23 20 24 40 1
22 -9 -8 -1 9 17 36 19 28 49 77 67 110 18 33 33 56 33 52 0 -12 -45 -98 -75
-141 -30 -45 -27 -61 4 -18 35 50 97 187 116 256 10 37 20 65 22 63 2 -2 -3
-37 -11 -78z m-4461 16 c20 -9 88 -31 151 -49 l115 -33 -148 -8 c-81 -4 -159
-7 -173 -7 -14 0 -92 3 -173 7 l-148 8 114 33 c62 18 129 39 148 47 45 20 69
20 114 2z m-4416 -260 c19 -29 25 -42 13 -30 -23 22 -112 173 -112 190 0 5 15
-17 33 -50 18 -33 48 -82 66 -110z m4276 155 c49 -5 123 -4 190 2 258 24 641
-51 1071 -210 124 -45 153 -59 147 -72 -3 -8 -18 -50 -32 -92 -14 -43 -31 -78
-37 -78 -6 0 -83 24 -170 54 -87 30 -204 64 -259 75 -64 13 -104 27 -110 37
-53 86 -116 134 -178 134 -38 0 -114 -27 -168 -60 l-46 -28 -161 21 -162 20
-162 -20 -161 -21 -46 28 c-54 33 -130 60 -168 60 -62 0 -125 -48 -178 -134
-6 -10 -46 -24 -110 -37 -55 -11 -172 -45 -259 -75 -87 -30 -164 -54 -170 -54
-6 0 -23 35 -37 78 -14 42 -29 84 -32 92 -6 13 23 27 146 72 196 72 310 106
538 159 238 55 380 68 554 49z m-1642 -40 c42 -10 96 -28 119 -38 l43 -19 -88
-64 c-48 -35 -149 -101 -224 -147 -152 -91 -511 -275 -558 -286 -16 -4 -38 -9
-47 -12 -12 -3 -18 0 -18 9 0 29 -80 173 -122 220 l-43 48 80 83 c87 91 142
124 281 170 126 42 207 54 360 55 109 1 158 -3 217 -19z m3877 4 c90 -17 228
-63 305 -101 30 -15 83 -60 130 -109 l80 -83 -43 -48 c-24 -26 -64 -89 -88
-139 l-45 -92 -48 13 c-116 30 -603 299 -788 434 l-87 63 30 16 c16 9 67 26
114 38 106 29 313 33 440 8z m-3638 -112 c58 -43 116 -120 96 -127 -209 -78
-787 -260 -888 -279 -22 -5 19 21 110 69 196 103 409 232 522 314 51 37 98 66
103 63 6 -3 31 -21 57 -40z m3371 -176 c78 -46 207 -118 287 -160 80 -42 140
-76 134 -76 -40 0 -710 208 -897 279 l-28 11 31 44 c18 24 57 62 86 84 l55 41
95 -69 c52 -38 159 -107 237 -154z m-2293 122 c79 -38 80 -38 -132 -70 -105
-16 -158 -20 -158 -13 0 19 61 85 98 105 49 27 107 20 192 -22z m1009 22 c39
-19 101 -85 101 -105 0 -8 -51 -3 -152 12 -223 35 -209 30 -168 56 40 25 126
56 158 57 12 0 40 -9 61 -20z m-436 -48 c70 -9 127 -20 127 -25 0 -10 -139
-123 -210 -170 -30 -20 -66 -37 -80 -37 -14 0 -50 17 -80 37 -64 42 -209 159
-213 170 -2 9 213 40 283 41 25 1 102 -7 173 -16z m-3030 -26 c31 -9 74 -23
95 -32 l37 -16 -80 -39 c-252 -121 -611 -192 -853 -169 -95 9 -215 33 -239 48
-9 6 -45 123 -39 129 1 1 22 -3 46 -9 68 -16 225 -13 322 6 48 9 142 34 210
56 68 21 139 41 158 43 66 9 285 -2 343 -17z m6235 -26 c68 -22 162 -47 210
-56 97 -19 254 -22 322 -6 24 6 45 10 46 9 6 -6 -30 -123 -39 -129 -24 -15
-144 -39 -239 -48 -184 -18 -421 15 -646 89 -134 44 -284 110 -277 122 8 12
125 48 190 59 33 5 116 7 185 5 112 -4 137 -9 248 -45z m-4724 -47 c9 -26 16
-70 16 -99 l0 -53 -82 -26 c-144 -46 -449 -124 -618 -159 -179 -37 -429 -80
-435 -75 -1 2 -5 30 -7 63 l-3 58 150 38 c243 60 796 232 917 285 46 20 44 20
62 -32z m2802 21 c221 -83 632 -210 889 -274 l150 -38 -3 -58 c-2 -33 -6 -61
-7 -63 -6 -5 -256 38 -435 75 -169 35 -474 113 -618 159 l-82 26 0 53 c0 43
24 146 35 146 1 0 34 -12 71 -26z m-4084 -71 c68 -72 143 -218 119 -233 -7 -4
-55 -15 -107 -25 -87 -16 -96 -16 -112 -2 -54 49 -172 62 -230 27 -18 -11 -42
-35 -53 -54 l-20 -34 -106 -7 c-58 -4 -199 -5 -312 -2 -203 6 -208 6 -306 41
-178 62 -168 55 -160 101 3 21 7 41 9 42 1 2 28 -6 58 -16 308 -106 786 -39
1093 153 39 24 75 44 80 45 6 1 27 -16 47 -36z m5403 -10 c323 -194 785 -258
1093 -152 30 10 57 18 58 16 2 -1 6 -21 9 -42 8 -46 17 -40 -160 -101 -98 -34
-104 -35 -305 -41 -113 -3 -253 -3 -312 2 l-107 7 -20 34 c-11 19 -35 43 -53
54 -58 35 -176 22 -230 -27 -16 -14 -25 -14 -112 2 -123 23 -123 23 -102 77
33 83 130 218 157 218 3 0 42 -21 84 -47z m-5542 -237 c20 -10 37 -22 37 -26
0 -8 -110 -27 -219 -37 l-64 -6 18 31 c11 17 33 38 49 47 39 20 127 15 179 -9z
m5766 -22 c36 -39 36 -39 12 -42 -26 -4 -253 26 -261 35 -3 2 4 10 15 16 46
27 83 36 139 34 54 -3 62 -7 95 -43z m-5484 -29 c4 -31 5 -58 2 -61 -6 -7
-123 -24 -164 -24 -30 0 -33 3 -33 31 0 17 -4 38 -10 48 -8 17 0 20 88 39 53
11 100 20 104 21 4 1 10 -24 13 -54z m5117 29 c81 -15 87 -18 77 -36 -6 -11
-11 -32 -11 -49 -1 -26 -5 -29 -32 -29 -41 0 -157 17 -163 24 -3 3 -2 30 2 61
5 46 10 55 23 51 9 -3 56 -12 104 -22z m-5334 -36 c19 -19 15 -76 -5 -82 -10
-2 -87 -8 -170 -11 l-153 -7 0 23 c0 44 14 50 141 68 155 23 172 24 187 9z
m5596 -8 c143 -20 156 -25 156 -69 l0 -23 -152 7 c-84 3 -161 9 -170 11 -34
10 -18 94 17 94 6 0 73 -9 149 -20z m-5932 -50 c-2 -17 -7 -32 -11 -35 -13 -7
-274 14 -386 32 l-110 18 225 5 c124 3 239 7 256 8 29 2 30 0 26 -28z m6398
19 c197 -1 202 -2 140 -14 -77 -16 -244 -33 -354 -37 l-80 -3 -7 34 -7 34 52
-7 c28 -3 143 -6 256 -7z m-5852 -76 c-21 -76 -77 -152 -142 -193 -123 -76
-304 -27 -368 99 -16 30 -28 65 -28 78 0 21 4 23 53 23 28 0 103 3 165 7 125
7 130 4 83 -49 -24 -27 -36 -33 -70 -32 -22 1 -57 11 -77 23 -27 16 -34 18
-24 6 22 -26 82 -47 119 -41 41 6 69 30 87 73 15 34 19 35 166 41 l46 2 -10
-37z m5190 16 c11 -29 52 -76 77 -88 36 -17 109 -2 140 30 19 19 17 19 -18 -2
-21 -12 -56 -22 -78 -23 -34 -1 -46 5 -70 32 -16 18 -29 37 -29 43 0 8 48 9
163 4 89 -4 164 -9 166 -11 10 -9 -14 -79 -42 -121 -46 -68 -125 -107 -215
-107 -38 1 -83 8 -103 16 -77 34 -154 125 -178 212 l-10 38 97 -7 c53 -4 98
-11 100 -16z"/>
<path d="M4018 11231 c-104 -41 -158 -95 -158 -160 0 -29 2 -31 38 -31 78 1
161 81 178 173 7 42 6 43 -58 18z"/>
<path d="M4135 11217 c25 -115 149 -218 210 -174 18 14 18 16 1 61 -23 61 -87
109 -179 134 l-38 11 6 -32z"/>
<path d="M8619 11234 c-79 -24 -141 -72 -164 -127 -19 -49 -19 -49 0 -63 43
-32 137 18 178 94 22 41 45 113 35 111 -2 0 -24 -7 -49 -15z"/>
<path d="M8724 11214 c10 -52 49 -118 87 -145 18 -13 52 -24 80 -27 l49 -5 0
34 c0 54 -40 103 -112 138 -35 16 -74 33 -87 36 -23 7 -23 6 -17 -31z"/>
<path d="M4075 11048 c-77 -170 -66 -317 24 -326 112 -11 128 144 34 331 -13
26 -26 47 -29 47 -3 0 -16 -24 -29 -52z"/>
<path d="M8657 11030 c-83 -178 -66 -310 39 -310 63 0 96 78 76 179 -12 64
-45 158 -66 187 -14 18 -17 14 -49 -56z"/>
<path d="M1658 8915 c-35 -23 -84 -107 -103 -174 -7 -23 -6 -23 31 -17 52 10
118 49 145 87 13 18 24 52 27 80 l5 49 -34 0 c-20 0 -50 -10 -71 -25z"/>
<path d="M11042 8891 c3 -28 14 -62 27 -80 27 -38 93 -77 145 -87 37 -6 38 -6
31 17 -3 13 -20 52 -36 87 -35 72 -84 112 -138 112 l-34 0 5 -49z"/>
<path d="M1885 8770 c-53 -11 -146 -46 -171 -64 -18 -14 -15 -16 46 -45 140
-65 248 -74 297 -25 33 33 29 89 -9 117 -30 23 -102 30 -163 17z"/>
<path d="M10780 8769 c-64 -26 -81 -89 -37 -133 49 -49 158 -40 297 25 61 29
64 31 46 45 -28 20 -121 54 -180 65 -60 11 -94 11 -126 -2z"/>
<path d="M1574 8606 c32 -88 65 -130 122 -152 45 -17 47 -17 61 1 44 61 -59
185 -175 210 l-32 7 24 -66z"/>
<path d="M11189 8656 c-20 -7 -52 -23 -72 -35 -62 -38 -102 -127 -74 -166 14
-18 16 -18 61 -1 56 22 90 64 122 151 26 71 24 73 -37 51z"/>
<path d="M1684 4341 c-55 -25 -96 -86 -125 -184 -8 -28 -7 -28 24 -21 49 10
107 42 139 77 35 39 53 99 38 127 -13 25 -24 25 -76 1z"/>
<path d="M11040 4340 c-13 -25 -1 -77 28 -118 23 -31 100 -76 149 -87 l32 -6
-20 58 c-28 84 -63 131 -112 154 -53 24 -64 24 -77 -1z"/>
<path d="M1880 4184 c-30 -8 -84 -28 -120 -45 -61 -29 -64 -31 -46 -45 55 -40
220 -81 280 -70 52 10 86 41 86 80 0 43 -24 73 -68 86 -47 13 -65 12 -132 -6z"/>
<path d="M10783 4189 c-64 -19 -86 -99 -37 -138 36 -28 83 -35 151 -23 65 11
159 45 189 66 18 14 15 16 -46 45 -68 32 -170 62 -205 60 -11 0 -34 -5 -52
-10z"/>
<path d="M1550 4076 c0 -3 9 -29 20 -59 37 -99 96 -157 159 -157 l34 0 -5 49
c-6 59 -35 103 -91 135 -40 23 -117 45 -117 32z"/>
<path d="M11177 4066 c-83 -30 -137 -96 -137 -170 0 -34 2 -36 33 -36 61 0
120 59 157 157 11 30 20 56 20 58 0 9 -35 4 -73 -9z"/>
<path d="M4051 2054 c-28 -36 -36 -87 -23 -153 12 -63 45 -158 66 -186 13 -18
15 -16 38 31 73 144 83 278 25 319 -34 24 -82 19 -106 -11z"/>
<path d="M8636 2057 c-49 -49 -40 -158 25 -297 29 -61 31 -64 45 -46 40 55 81
220 70 280 -15 81 -89 114 -140 63z"/>
<path d="M4278 1760 c-64 -19 -125 -95 -143 -178 l-7 -32 66 24 c88 32 130 65
152 122 17 45 17 47 -1 60 -21 16 -28 16 -67 4z"/>
<path d="M8455 1757 c-18 -14 -18 -16 -1 -61 22 -57 64 -90 152 -122 l66 -24
-7 32 c-25 117 -148 220 -210 175z"/>
<path d="M3860 1729 c0 -54 40 -103 112 -138 35 -16 74 -33 87 -36 23 -7 23
-6 17 31 -10 52 -49 118 -87 145 -18 13 -52 24 -80 27 l-49 5 0 -34z"/>
<path d="M8830 1742 c-42 -22 -95 -97 -104 -147 -4 -20 -5 -39 -3 -41 2 -3 29
4 59 16 99 37 158 96 158 158 0 30 -2 32 -38 32 -20 0 -53 -8 -72 -18z"/>
<path d="M1662 12014 c-64 -26 -59 -125 9 -162 82 -44 119 -98 119 -174 0 -52
16 -28 33 50 31 139 18 205 -50 261 -43 35 -72 42 -111 25z"/>
<path d="M11082 12021 c-35 -9 -87 -56 -105 -94 -22 -45 -22 -114 0 -204 18
-75 33 -95 33 -45 0 76 37 130 119 174 18 10 38 33 47 53 12 30 12 40 0 69
-15 36 -55 57 -94 47z"/>
<path d="M1627 11672 c-10 -10 -17 -35 -17 -55 0 -28 6 -40 31 -59 72 -53 109
-96 110 -124 0 -16 4 -38 8 -48 6 -15 12 -4 24 47 31 120 20 178 -43 231 -38
31 -89 35 -113 8z"/>
<path d="M11060 11664 c-49 -42 -63 -78 -57 -148 6 -82 28 -155 38 -130 4 11
8 32 8 48 1 28 38 71 110 124 25 19 31 31 31 61 0 71 -70 95 -130 45z"/>
<path d="M824 11176 c-54 -24 -61 -91 -14 -147 57 -70 123 -83 263 -52 77 17
101 33 49 33 -73 0 -128 35 -163 102 -31 61 -84 86 -135 64z"/>
<path d="M1127 11172 c-39 -42 -5 -122 66 -159 35 -18 123 -14 196 8 35 10 40
14 25 20 -11 4 -32 8 -48 8 -28 1 -71 38 -124 110 -19 25 -31 31 -61 31 -24 0
-44 -7 -54 -18z"/>
<path d="M11558 11159 c-53 -72 -96 -109 -124 -110 -16 0 -37 -4 -48 -8 -15
-6 -10 -10 25 -20 73 -22 161 -26 196 -8 104 54 112 177 10 177 -28 0 -40 -6
-59 -31z"/>
<path d="M11902 11175 c-18 -8 -40 -29 -50 -46 -44 -82 -98 -119 -174 -119
-52 0 -28 -16 50 -33 139 -31 205 -18 262 52 37 44 41 100 10 131 -11 11 -24
20 -29 20 -5 0 -15 2 -23 5 -7 2 -28 -2 -46 -10z"/>
<path d="M474 10199 c-37 -41 -71 -51 -147 -45 -79 7 -99 -1 -116 -47 -28 -73
62 -121 153 -83 45 19 72 49 112 129 34 67 34 85 -2 46z"/>
<path d="M12324 10153 c40 -80 67 -110 112 -129 91 -38 181 10 153 83 -17 46
-37 54 -116 47 -76 -6 -110 4 -147 45 -36 39 -36 21 -2 -46z"/>
<path d="M303 9950 c-52 -46 -79 -52 -159 -38 -55 10 -65 9 -95 -8 -24 -14
-37 -31 -43 -56 -29 -115 151 -144 249 -40 25 26 101 170 94 177 -2 1 -23 -14
-46 -35z"/>
<path d="M12450 9982 c0 -20 70 -147 95 -174 39 -42 84 -62 141 -62 87 0 131
48 104 115 -20 48 -62 64 -135 51 -79 -14 -106 -8 -160 40 -25 22 -45 35 -45
30z"/>
<path d="M53 3046 c-66 -30 -68 -112 -4 -150 30 -17 40 -18 95 -8 80 14 107 8
161 -40 25 -22 45 -36 45 -31 0 14 -39 93 -71 144 -49 77 -155 117 -226 85z"/>
<path d="M12638 3051 c-72 -24 -114 -69 -167 -180 -30 -64 -27 -68 24 -23 54
48 81 54 160 40 51 -9 66 -8 91 5 59 30 69 110 19 143 -29 19 -90 26 -127 15z"/>
<path d="M244 2779 c-31 -16 -46 -53 -33 -86 17 -46 37 -54 116 -47 76 6 110
-4 147 -45 38 -42 36 -19 -5 59 -29 56 -51 86 -76 101 -40 25 -117 34 -149 18z"/>
<path d="M12419 2767 c-36 -19 -51 -37 -86 -102 -23 -44 -40 -82 -37 -84 2 -3
17 7 32 21 46 44 68 50 145 44 79 -7 99 1 116 47 31 80 -73 125 -170 74z"/>
<path d="M875 1825 c-39 -20 -92 -79 -97 -110 -8 -38 16 -81 52 -93 43 -15 95
6 118 49 44 82 98 119 175 119 51 0 27 16 -50 33 -95 21 -158 22 -198 2z"/>
<path d="M11718 1822 c-70 -17 -89 -32 -40 -32 76 0 130 -37 174 -119 23 -42
75 -64 117 -50 60 21 70 92 21 150 -57 70 -134 84 -272 51z"/>
<path d="M1184 1782 c-45 -29 -74 -70 -74 -107 0 -41 27 -65 73 -65 28 0 40 6
59 31 53 72 96 109 124 110 16 0 37 4 48 8 27 11 -42 31 -129 37 -58 4 -75 2
-101 -14z"/>
<path d="M11435 1785 c-27 -8 -54 -15 -60 -15 -19 -2 30 -19 59 -19 28 -1 71
-38 124 -110 19 -25 31 -31 61 -31 99 0 92 123 -10 175 -35 18 -108 18 -174 0z"/>
<path d="M1757 1409 c-4 -13 -7 -35 -7 -48 0 -23 -43 -70 -109 -119 -25 -19
-31 -31 -31 -61 0 -100 123 -91 177 12 18 36 13 136 -10 201 -13 37 -14 38
-20 15z"/>
<path d="M11021 1389 c-22 -73 -26 -161 -8 -196 54 -104 177 -112 177 -10 0
28 -6 40 -31 59 -72 53 -109 96 -110 124 0 16 -4 37 -8 48 -6 15 -10 10 -20
-25z"/>
<path d="M1790 1123 c0 -77 -37 -131 -119 -175 -42 -23 -64 -75 -50 -117 26
-75 123 -67 185 15 36 47 42 117 18 223 -18 81 -34 106 -34 54z"/>
<path d="M10976 1072 c-25 -105 -19 -178 18 -226 62 -82 159 -90 185 -15 14
42 -8 94 -50 117 -82 44 -119 98 -119 175 0 50 -15 28 -34 -51z"/>
<path d="M2580 502 c0 -5 9 -17 21 -28 41 -37 51 -71 45 -147 -7 -79 1 -99 47
-116 98 -37 133 126 46 208 -29 27 -159 95 -159 83z"/>
<path d="M10154 477 c-84 -44 -102 -59 -124 -103 -48 -92 0 -193 77 -163 46
17 54 37 47 116 -6 77 0 99 44 145 14 15 24 30 21 32 -2 2 -31 -10 -65 -27z"/>
<path d="M2848 305 c48 -54 54 -81 40 -160 -13 -73 3 -115 51 -135 67 -27 115
17 115 104 0 93 -50 152 -183 215 -64 30 -68 27 -23 -24z"/>
<path d="M9935 333 c-90 -45 -139 -81 -161 -119 -67 -114 -13 -245 86 -204 49
20 65 62 52 135 -14 79 -8 106 40 160 41 46 36 54 -17 28z"/>
</g>
</svg>
