<?xml version="1.0" encoding="UTF-8" standalone="no"?>
<svg
   version="1.0"
   width="1955pt"
   height="165pt"
   viewBox="0 0 1955 165"
   preserveAspectRatio="xMidYMid"
   id="svg10"
   sodipodi:docname="main title border5.svg"
   inkscape:version="1.2 (dc2aedaf03, 2022-05-15)"
   xmlns:inkscape="http://www.inkscape.org/namespaces/inkscape"
   xmlns:sodipodi="http://sodipodi.sourceforge.net/DTD/sodipodi-0.dtd"
   xmlns="http://www.w3.org/2000/svg"
   xmlns:svg="http://www.w3.org/2000/svg">
  <defs
     id="defs14" />
  <sodipodi:namedview
     id="namedview12"
     pagecolor="#ffffff"
     bordercolor="#000000"
     borderopacity="0.25"
     inkscape:showpageshadow="2"
     inkscape:pageopacity="0.0"
     inkscape:pagecheckerboard="0"
     inkscape:deskcolor="#d1d1d1"
     inkscape:document-units="pt"
     showgrid="false"
     inkscape:zoom="0.35355339"
     inkscape:cx="1063.4886"
     inkscape:cy="36.769552"
     inkscape:window-width="1920"
     inkscape:window-height="1031"
     inkscape:window-x="0"
     inkscape:window-y="20"
     inkscape:window-maximized="1"
     inkscape:current-layer="svg10" />
  <metadata
     id="metadata2">
Created by potrace 1.15, written by Peter Selinger 2001-2017
</metadata>
  <g
     transform="matrix(0.10011993,0,0,-0.10043051,-41.857045,569.93583)"
     fill="#000000"
     stroke="none"
     id="g8">
    <path
       d="m 7981.2084,5669 c -54,-13 -98,-42 -145,-95 -173,-196 -19,-499 266,-523 l 74,-6 -188,-132 c -410,-287 -585,-371 -788,-381 -119,-5 -191,8 -274,49 -252.9999,127 -301.9999,492 -80,603 64,31 109,33 158,5 50,-28 73,-64 79,-120 6,-63 -12,-104 -53,-123 -40,-19 -53,-19 -85,-1 l -25,14 23,1 c 28,0 72,42 72,68 0,33 -38,72 -71,72 -59,0 -86,-59 -54,-120 35,-67 120,-82 177,-31 27,24 32,36 36,89 4,53 1,67 -22,107 -65,110 -217,114 -318,9 -61.9999,-65 -82.9999,-124 -82.9999,-235 0,-90 2,-99 37,-170 62.9999,-126 160.9999,-203 308.9999,-240 101,-26 222,-22 339,11 90,25 264,107 379,178 54,35 81,46 76,35 -37,-84 -47,-132 -43,-199 11,-174 128,-300 288,-312 167,-12 294,95 294,248 0,130 -85,220 -207,220 -90,0 -177,-80 -177,-162 0,-64 49,-130 108,-145 37,-9 97,13 112,42 29,53 -34,114 -84,81 -31,-20 -43,-60 -26,-81 21,-25 2,-30 -28,-9 -81,60 -76,172 11,224 39,24 125,27 167,5 62,-32 107,-125 96,-201 -17,-125 -114,-204 -248,-204 -80,0 -149,31 -202,90 -62,69 -81,121 -81,225 0,82 3,97 32,155 31,64 35,67 220,196 375,262 537,356 719,414 467,149 906.9999,-105 983.9999,-570 25,-148 -10,-333 -85,-447 -25,-38 -56,-66 -114,-103 -43,-28 -80.2551,-57 -91,-65 -19.6988,-13 -522.9144,-15 -3930.8137,-15 h -3909.324 l -146.8458,31 c -145.0552,31 -145.0552,31 -184.4528,12 -48.3517,-24 -139.6827,-24 -188.0344,0 -34.0253,17 -39.3977,17 -157.59072,-8 -94.91254,-20 -132.5194,-24 -162.96309,-16 -25.07131,7 -42.97934,7 -50.14251,1 -14.32645,-13 -111.02978,-13 -125.35623,-1 -5.37238,6 -48.35172,1 -100.28503,-11 l -91.33096,-22 85.95858,-18 c 71.63214,-16 93.12175,-17 128.93782,-7 32.23448,10 48.35172,10 77.00461,1 17.90804,-7 53.7241,-10 78.79531,-6 26.8621,4 91.33095,-3 161.17229,-17 105.65743,-20 118.19303,-21 146.84593,-7 17.9081,9 62.6781,18 100.2849,20 51.9334,3 75.2139,-1 103.8667,-18 l 37.6069,-22 125.3563,29 127.147,29 h 3920.0688 3935.0941 l 78,55 c 87,61 166,100 244,121 61,16 177,18 227,4 61.9997,-17 128.9997,-67 161.9997,-120 l 31,-50 16,32 c 21,43 73,93 124,120 51,26 178,36 258,19 71,-15 199,-78 277,-135 l 62,-46 h 3926.03 3926.03 l 114.838,-25 c 136.37,-30 139.959,-30 183.023,-9 48.448,25 152.52,23 195.584,-3 l 37.682,-21 120.221,28 c 87.923,20 130.987,25 152.519,18 16.149,-5 44.859,-6 61.008,-2 46.653,12 100.483,13 122.016,3 14.354,-6 53.83,-2 107.66,10 73.569,16 82.54,20 52.036,27 -19.737,4 -62.802,13 -93.306,20 -35.887,8 -62.802,9 -68.185,3 -14.355,-12 -93.306,-12 -107.661,0 -5.383,6 -28.709,6 -61.007,0 -41.27,-8 -73.569,-5 -170.463,17 -120.222,26 -120.222,26 -159.697,7 -50.242,-24 -139.959,-24 -190.201,1 -35.887,18 -39.475,18 -175.846,-13 l -139.959,-31 h -3913.469 -3911.676 l -58.177,41 c -30,22 -71,49 -92,60 -25,13 -52,41 -77,80 -177,274 -97,700 171,906 208,159 468,198 735,109 184,-62 339,-151 679,-388 212,-148 221,-156 250,-212 27,-55 30,-68 30,-160 0,-96 -2,-104 -34,-164 -56,-103 -138,-152 -250,-152 -67,1 -115,17 -164,54 -104,80 -107,265 -5,337 46,33 141,38 186,10 40,-25 72,-76 72,-114 0,-43 -29,-96 -61,-112 -38,-20 -40,-19 -28,9 17,36 4,72 -30,86 -36,15 -67,1 -82,-37 -19,-51 41,-100 110,-89 67,11 116,81 109,157 -10,96 -92,157 -199,147 -186,-18 -248,-273 -97,-402 74,-64 192,-84 291,-50 64,22 140,92 174,162 25,51 28,68 28,157 0,82 -4,109 -22,149 l -23,48 28,-18 c 145,-96 320,-182 437,-216 111,-32 292,-31 379,0 87,32 135,63 194,126 75,79 105,149 110,257 5,102 -11,160 -62,230 -61,83 -189,124 -264,85 -147,-77 -132,-296 21,-296 42,0 84,31 103,76 22,53 -7,104 -61,104 -39,0 -68,-30 -68,-70 0,-37 17,-58 57,-69 l 31,-8 -29,-12 c -69,-28 -136,26 -136,108 0,120 124,195 234,141 166,-80 199,-331 66,-499 -85,-108 -209,-161 -376,-161 -219,0 -420,97 -886,427 l -128,90 74,5 c 135,9 255,88 313,206 90,184 -47,414 -247,415 -138,1 -257,-122 -235,-242 31,-170 241,-222 313,-78 28,54 24,92 -15,137 -32,38 -84,42 -107,8 -21,-30 -20,-54 4,-78 26,-26 65,-25 91,1 26,26 33,19 25,-25 -8,-43 -62,-92 -110,-102 -47,-8 -118,26 -145,70 -35,56 -37,108 -7,170 85,173 320,154 405,-34 31,-67 29,-171 -4,-237 -47,-93 -138,-160 -248,-183 -95,-19 -142,-7 -256,66 -348,223 -617,300 -869,248 -156,-32 -278,-99 -393,-214 -212,-215 -272,-567 -141,-830 l 38,-77 -61,19 c -47,15 -81,19 -155,16 -111,-5 -168,-28 -236,-98 l -42,-42 -43,44 c -24,24 -66,54 -94,67 -84.9997,41 -246.9997,39 -346.9997,-3 -12,-6 -7,10 18,57 89,168 103,364 40,562 -67,210 -231,382 -444.9999,464 -206,79 -432,64 -688,-46 -69,-29 -183,-94 -383,-216 -48,-30 -162,-29 -242,2 -75,29 -149,100 -184,175 -23,51 -26,68 -22,130 5,77 21,116 70,171 94,108 262,101 342,-12 56,-80 41,-190 -33,-242 -89,-64 -211,-10 -211,92 1,37 2,39 12,22 15,-27 28,-35 59,-35 52,0 79,69 40,104 -31,28 -81,18 -108,-23 -34,-51 -31,-111 7,-154 39,-45 79,-61 140,-55 114,11 188,134 148,249 -36,107 -167,175 -282,148 z"
       id="path4"
       sodipodi:nodetypes="ccccccccccccccssccsccscccccccsssccccccccscsccccsccscccccccccccccccccccccccccccccccccccccccccccccccccccccccccccccccscccccsccccccccccscccccccccscsscccsccscccccccccssccccccccccccccccccccccccccccccccscccccc"
       class="UnoptimicedTransforms" />
  </g>
</svg>
