<?xml version="1.0" standalone="no"?>
<!DOCTYPE svg PUBLIC "-//W3C//DTD SVG 20010904//EN"
 "http://www.w3.org/TR/2001/REC-SVG-20010904/DTD/svg10.dtd">
<svg version="1.0" xmlns="http://www.w3.org/2000/svg"
 width="1280.000000pt" height="640.000000pt" viewBox="0 0 1280.000000 640.000000"
 preserveAspectRatio="xMidYMid meet">
<metadata>
Created by potrace 1.15, written by Peter Selinger 2001-2017
</metadata>
<g transform="translate(0.000000,640.000000) scale(0.100000,-0.100000)"
fill="#000000" stroke="none">
<path d="M4531 4852 c-18 -34 -13 -145 9 -204 31 -82 115 -187 169 -212 62
-28 266 -30 354 -3 l57 18 -15 37 c-26 61 -77 140 -130 199 -93 105 -213 164
-363 178 -64 7 -71 6 -81 -13z"/>
<path d="M8174 4825 c-153 -33 -301 -151 -383 -305 -17 -32 -31 -60 -31 -63 0
-10 124 -46 192 -57 83 -13 197 2 245 31 45 28 120 122 151 189 31 66 38 194
12 210 -21 13 -113 11 -186 -5z"/>
<path d="M2433 4764 c-37 -87 -27 -211 27 -331 31 -67 74 -107 166 -150 l52
-24 -14 -52 c-7 -28 -15 -74 -17 -102 l-4 -50 -54 -19 c-33 -11 -96 -20 -163
-24 l-109 -5 36 -18 c19 -10 73 -29 118 -42 l82 -24 -89 -17 c-49 -10 -148
-20 -219 -23 l-130 -6 -113 109 c-119 114 -152 156 -152 194 0 34 69 118 115
140 52 25 72 25 112 0 39 -24 56 -54 51 -91 -5 -31 -2 -30 49 8 54 39 59 58
29 104 -63 95 -165 118 -281 65 -69 -31 -106 -63 -146 -125 -50 -78 -36 -193
36 -287 l24 -31 -60 -7 c-165 -17 -318 -167 -455 -448 -73 -152 -98 -245 -99
-368 0 -94 3 -110 27 -156 31 -60 84 -109 147 -137 l44 -19 -34 -15 c-52 -22
-86 -60 -136 -155 -56 -106 -122 -192 -165 -215 -75 -39 -184 -17 -279 58 -41
32 -86 122 -95 190 -13 93 38 184 125 222 41 18 45 18 87 2 45 -17 100 -75 70
-75 -20 0 -53 -44 -61 -82 -10 -41 13 -58 77 -58 62 0 115 22 129 54 24 53
-41 162 -125 211 -69 40 -114 47 -182 29 -32 -8 -70 -22 -82 -30 -13 -9 -26
-14 -28 -11 -9 8 38 117 62 147 15 17 50 38 86 51 150 55 258 163 258 256 0
98 -142 244 -259 267 -122 23 -275 -125 -247 -238 13 -53 97 -126 145 -126 53
0 85 121 33 128 -12 2 -36 -4 -54 -12 -35 -18 -53 -10 -69 32 -20 52 62 122
142 122 47 0 129 -40 162 -79 14 -18 31 -50 37 -72 24 -89 -26 -143 -181 -194
-120 -40 -157 -100 -146 -237 5 -55 3 -69 -12 -82 -17 -16 -19 -14 -25 32 -3
27 -13 57 -21 68 -18 24 -19 34 0 34 18 0 35 31 35 65 0 56 -58 135 -99 135
-25 0 -26 2 -23 45 6 73 -45 135 -111 135 -13 0 -39 -9 -60 -19 -28 -14 -37
-16 -37 -6 0 26 -51 55 -96 55 -53 0 -104 -38 -104 -78 0 -20 -3 -23 -12 -14
-20 20 -92 15 -122 -9 -59 -46 -8 -188 68 -190 28 -1 26 -2 -14 -13 -58 -15
-77 -49 -60 -102 18 -54 66 -104 101 -104 26 0 29 -3 23 -24 -8 -33 27 -110
60 -131 19 -13 37 -15 68 -11 43 6 51 7 138 3 61 -3 100 22 100 63 0 30 0 30
25 14 18 -12 38 -15 66 -11 40 5 40 5 25 -16 -78 -108 -65 -214 42 -360 133
-179 294 -236 456 -159 85 40 204 156 256 250 19 35 44 77 55 94 36 56 125 89
330 124 l40 7 -44 13 c-25 8 -86 20 -138 27 -100 15 -139 36 -186 100 -42 55
-50 99 -44 231 9 199 43 310 128 422 76 99 229 197 331 212 28 4 97 4 152 0
124 -9 305 5 411 32 44 11 117 38 162 60 45 22 91 40 102 40 11 0 31 4 45 10
l25 9 -6 -67 c-8 -97 18 -153 111 -239 126 -117 134 -121 433 -209 87 -25 193
-62 235 -81 l77 -36 -19 -25 c-44 -55 -8 -134 67 -148 30 -6 34 -10 31 -33 -3
-22 -9 -27 -46 -32 -23 -3 -50 -13 -59 -22 -22 -22 -22 -81 0 -105 16 -17 15
-20 -11 -45 -21 -20 -38 -27 -68 -27 -52 0 -103 -29 -126 -71 -23 -44 -23 -76
3 -118 l21 -35 -26 17 c-38 25 -115 22 -156 -5 -69 -48 -89 -141 -40 -193 20
-22 21 -25 6 -47 -12 -18 -26 -25 -52 -26 -69 -3 -129 -56 -140 -123 -12 -70
45 -139 114 -139 26 0 30 -4 34 -31 4 -25 0 -33 -23 -44 -44 -23 -69 -63 -69
-109 1 -44 11 -62 50 -89 31 -22 70 -22 114 0 33 15 37 15 54 0 10 -9 35 -23
55 -32 36 -15 37 -16 22 -38 -40 -57 1 -150 71 -163 70 -13 148 47 149 116 0
43 -4 41 95 56 152 22 313 132 418 286 41 59 112 206 113 232 0 12 7 -12 16
-53 8 -41 25 -99 39 -128 26 -53 105 -143 128 -143 19 0 84 93 111 159 53 129
53 280 0 438 -15 43 -28 79 -30 81 -6 6 -84 -47 -127 -86 -23 -20 -58 -62 -77
-92 l-36 -55 0 196 0 196 41 -14 c44 -15 89 -43 176 -109 29 -22 141 -93 250
-157 201 -120 327 -205 387 -260 43 -41 91 -144 91 -198 0 -33 -6 -47 -33 -74
-38 -38 -98 -55 -122 -35 -11 9 -12 17 -5 30 24 46 0 90 -49 90 -40 0 -114
-27 -128 -47 -19 -24 -16 -63 6 -100 17 -28 29 -34 98 -49 78 -18 79 -18 75
-46 -9 -59 56 -144 103 -135 21 3 22 1 17 -39 -4 -39 -1 -47 31 -79 39 -39 67
-44 123 -20 26 10 42 12 61 4 57 -21 163 24 163 70 0 16 4 17 39 8 33 -9 47
-7 81 8 23 10 45 26 51 36 14 27 11 76 -7 110 -8 17 -14 32 -12 32 48 24 62
57 47 111 -11 38 -60 86 -89 86 -16 0 -18 6 -13 33 6 40 -16 90 -52 113 -30
19 -104 11 -139 -17 -20 -15 -24 -30 -28 -91 -3 -40 -14 -98 -24 -128 l-19
-55 -49 2 c-27 1 -59 4 -71 7 l-23 6 28 28 c59 59 72 212 26 306 -32 64 -116
146 -190 183 -122 61 -183 107 -85 64 65 -29 183 -59 277 -70 128 -16 300 7
429 56 13 5 13 2 4 -15 -6 -11 -11 -47 -11 -79 0 -78 28 -133 130 -251 56 -66
80 -102 80 -120 0 -30 32 -106 49 -116 6 -4 11 -17 11 -29 0 -13 3 -17 8 -10
5 8 21 8 60 1 69 -14 150 3 183 38 l23 25 15 -42 c9 -23 28 -51 42 -61 62 -47
188 -27 259 41 34 32 40 44 40 80 l0 42 32 -17 c31 -16 121 -16 159 0 13 6 20
-1 30 -31 l13 -38 7 50 c8 66 35 106 151 232 53 57 107 125 119 151 26 54 36
140 20 171 -14 26 -18 26 57 -3 203 -80 479 -80 668 -1 20 8 39 13 41 11 2 -2
-47 -29 -111 -60 -197 -97 -269 -185 -270 -331 0 -79 24 -157 55 -179 18 -12
16 -14 -27 -20 -93 -12 -99 -10 -114 37 -7 23 -16 84 -19 135 -7 103 -13 113
-81 132 -56 16 -70 12 -107 -25 -33 -33 -35 -39 -30 -80 3 -30 1 -45 -7 -44
-54 6 -102 -38 -113 -104 -4 -29 -1 -40 21 -62 25 -25 25 -27 11 -55 -24 -46
-19 -102 11 -131 21 -20 36 -24 84 -24 53 0 58 -2 68 -27 15 -41 68 -69 127
-67 28 1 74 -5 103 -14 36 -11 60 -13 76 -7 35 13 66 63 66 104 0 33 3 36 28
36 51 1 102 61 102 121 0 36 1 36 46 43 119 16 154 42 154 114 0 38 -28 62
-90 78 -82 21 -116 -3 -99 -68 15 -54 -43 -60 -108 -11 -37 27 -55 79 -44 121
17 59 63 132 103 165 69 56 189 126 403 236 110 56 225 120 255 141 62 44 160
95 204 106 27 6 28 5 23 -17 -13 -53 -29 -252 -25 -314 2 -36 3 -65 2 -65 -1
0 -12 21 -25 48 -24 50 -169 202 -193 202 -16 0 -68 -119 -84 -195 -37 -172
-12 -322 73 -438 l36 -48 30 18 c71 41 127 130 156 248 l17 70 8 -40 c14 -68
113 -256 170 -323 97 -114 215 -185 355 -212 l62 -12 -1 -39 c0 -46 21 -83 65
-109 41 -25 83 -25 124 0 44 26 56 90 28 153 -5 13 -2 17 11 17 11 0 37 11 58
24 40 24 40 24 75 5 20 -10 47 -19 61 -19 37 0 85 33 100 70 19 45 -3 107 -47
135 -54 33 -43 85 18 85 59 0 100 41 106 106 3 37 -1 57 -16 82 -25 39 -76 72
-113 72 -16 0 -34 10 -46 25 l-20 26 23 23 c54 55 36 155 -37 203 -30 20 -46
24 -85 21 -26 -3 -57 -8 -68 -13 -18 -8 -18 -7 3 19 62 80 -10 196 -122 196
-27 0 -39 7 -56 31 -20 28 -21 31 -6 48 42 46 3 131 -61 131 -19 0 -33 6 -37
16 -12 31 -6 44 19 44 41 0 85 29 101 65 14 35 11 58 -13 87 -27 31 51 60 342
128 94 22 197 49 230 61 77 25 227 144 269 213 27 43 30 57 30 123 -1 56 2 73
12 69 7 -3 32 -10 56 -16 24 -7 68 -28 99 -46 127 -79 278 -113 535 -123 l191
-7 79 -38 c60 -30 98 -59 160 -120 139 -139 178 -254 172 -506 -3 -125 -6
-151 -25 -185 -43 -81 -109 -124 -200 -130 -98 -7 -203 -27 -197 -37 3 -4 17
-8 32 -8 37 0 158 -33 212 -57 71 -31 108 -69 144 -148 66 -143 164 -254 269
-304 83 -40 132 -46 207 -27 80 21 152 68 226 149 79 86 115 153 121 227 5 51
2 65 -24 112 l-29 55 48 -5 c30 -3 54 0 63 8 13 10 15 9 15 -8 0 -57 42 -83
133 -82 34 0 85 -2 112 -5 54 -6 65 -1 103 49 14 18 22 43 22 67 0 35 3 39 26
39 14 0 34 5 44 10 28 15 70 92 70 127 0 33 -26 63 -56 63 -10 0 -26 5 -34 10
-11 7 -7 10 18 10 21 0 41 8 57 24 28 28 50 95 42 128 -12 45 -91 73 -138 48
-17 -9 -19 -7 -19 18 0 79 -153 112 -191 41 -9 -17 -12 -18 -32 -5 -12 8 -40
18 -63 22 -36 5 -45 3 -77 -26 -38 -33 -59 -84 -50 -120 4 -16 0 -20 -18 -20
-75 -1 -145 -154 -89 -193 20 -14 20 -14 0 -52 -11 -22 -20 -55 -20 -74 0 -34
-1 -34 -17 -18 -15 15 -18 36 -18 127 0 139 -6 148 -146 216 -151 74 -182 119
-144 211 22 52 42 72 100 99 92 43 173 26 228 -48 18 -24 18 -30 7 -58 -18
-43 -40 -52 -69 -29 -51 42 -98 10 -80 -54 14 -48 29 -60 70 -54 46 6 80 30
113 82 46 69 27 146 -53 218 -104 94 -214 84 -340 -29 -154 -139 -105 -304
123 -414 46 -22 90 -48 99 -58 20 -22 53 -96 62 -141 l7 -34 -30 22 c-43 30
-107 51 -157 51 -91 0 -221 -95 -246 -181 -15 -48 0 -75 54 -100 82 -37 164
-16 151 39 -10 39 -36 82 -51 82 -22 0 -14 17 24 50 32 29 41 32 83 28 137
-13 202 -173 131 -323 -32 -68 -72 -107 -146 -141 -65 -31 -150 -32 -206 -4
-48 25 -123 134 -165 240 -29 74 -75 130 -125 150 l-30 13 69 33 c39 19 83 49
100 68 98 111 96 314 -5 565 -63 158 -175 337 -248 396 -53 44 -138 83 -197
91 l-48 7 32 35 c40 46 67 109 75 171 5 42 1 57 -27 110 -36 68 -82 110 -153
140 -100 43 -170 35 -238 -26 -63 -57 -61 -102 9 -152 l29 -20 0 30 c0 38 46
87 89 95 47 9 101 -21 146 -81 67 -89 51 -127 -114 -264 -53 -45 -100 -86
-103 -91 -15 -24 -212 -5 -389 37 l-68 17 88 22 c49 12 105 29 124 37 l35 15
-52 1 c-66 1 -186 24 -241 46 -33 14 -41 21 -37 35 5 16 -9 132 -20 171 -4 11
10 22 49 38 101 42 144 77 181 150 18 37 38 86 45 110 15 58 14 157 -3 206
-18 48 -31 49 -123 4 -78 -39 -161 -112 -212 -188 l-39 -59 -16 28 c-9 15 -38
51 -63 79 -101 112 -218 136 -349 72 -94 -47 -218 -171 -313 -315 -76 -115
-110 -192 -119 -268 l-6 -46 -23 28 c-29 34 -67 42 -117 25 -32 -11 -39 -11
-43 1 -2 8 -6 20 -8 28 -3 9 5 17 19 20 33 8 83 69 91 111 19 106 -114 159
-198 78 l-28 -27 -30 29 -30 29 24 25 c48 52 58 99 31 150 -18 36 -64 55 -112
48 -58 -10 -113 -74 -113 -133 0 -20 -4 -25 -16 -20 -9 3 -24 6 -34 6 -12 0
-20 10 -24 33 -13 67 -92 105 -152 74 -59 -31 -79 -63 -79 -128 l1 -58 -22 20
c-49 46 -146 29 -184 -33 -21 -35 -27 -112 -10 -123 6 -3 10 -11 10 -16 0 -6
-5 -7 -11 -4 -21 14 -80 6 -113 -14 -44 -28 -73 -96 -58 -138 9 -26 7 -31 -23
-50 -34 -22 -65 -76 -65 -113 0 -36 32 -79 67 -92 46 -17 41 -24 -16 -20 -42
3 -53 0 -84 -28 -59 -52 -68 -126 -21 -171 13 -12 24 -27 24 -33 0 -5 -14 5
-31 22 -27 28 -38 32 -81 32 -45 0 -54 -4 -89 -39 -33 -33 -39 -45 -39 -80 0
-23 5 -51 10 -62 9 -16 7 -19 -9 -19 -11 0 -27 14 -39 34 -15 25 -32 38 -61
47 -35 10 -45 9 -82 -9 -24 -12 -43 -20 -44 -19 0 1 -6 14 -12 28 -6 14 -28
34 -49 44 -45 21 -97 10 -134 -30 -12 -13 -26 -22 -30 -20 -4 3 10 22 31 44
34 34 39 44 39 86 0 39 -5 52 -29 74 l-28 26 24 19 c59 44 68 135 16 176 -28
22 -73 26 -104 10 -14 -8 -26 -7 -46 4 l-28 14 49 7 c92 14 224 0 321 -35 80
-28 198 -85 263 -128 21 -14 20 -9 -12 50 -50 90 -77 174 -78 238 0 48 7 69
54 160 68 132 92 229 86 343 -3 57 -11 94 -26 123 -63 123 -238 182 -452 155
-189 -24 -278 -118 -296 -310 -13 -139 35 -230 142 -271 110 -41 254 -17 270
45 16 63 -42 165 -94 165 -25 0 -72 -67 -72 -103 0 -25 -3 -27 -45 -27 -92 0
-136 82 -101 187 21 62 72 113 151 150 51 24 73 28 145 28 73 0 92 -4 136 -27
95 -50 137 -127 115 -213 -11 -43 -56 -138 -127 -268 -38 -69 -37 -139 4 -218
31 -60 31 -61 7 -45 -129 85 -249 127 -363 128 -75 1 -88 -2 -155 -35 -169
-84 -381 -283 -455 -425 -48 -92 -67 -180 -53 -244 13 -58 61 -163 106 -234
20 -31 35 -57 33 -59 -2 -2 -29 -10 -62 -18 l-58 -15 -27 30 c-42 47 -107 54
-210 22 l-25 -7 21 29 c48 69 86 159 91 220 12 155 -108 360 -313 533 -157
133 -217 163 -330 164 -94 1 -162 -16 -275 -71 -52 -25 -99 -48 -104 -50 -5
-3 3 11 17 30 75 98 76 163 2 318 -115 242 -107 327 37 399 186 93 439 -31
441 -217 0 -31 -5 -67 -12 -80 -16 -30 -62 -52 -111 -52 -35 0 -40 3 -36 18 7
21 -32 101 -55 115 -41 25 -118 -61 -119 -131 0 -57 75 -102 171 -102 63 0
150 32 189 69 114 109 83 387 -54 479 -75 50 -142 66 -286 66 -141 1 -185 -9
-256 -57 -138 -92 -151 -320 -34 -565 25 -53 40 -98 40 -122 0 -59 -35 -158
-84 -237 -25 -40 -43 -73 -42 -73 2 0 50 22 107 49 152 73 240 95 374 95 66 0
122 -6 140 -13 l30 -13 -25 -10 c-16 -6 -33 -5 -48 1 -42 20 -82 13 -113 -18
-44 -45 -36 -114 20 -165 l21 -19 -21 -15 c-56 -39 -55 -130 3 -184 40 -37 25
-36 -18 2 -70 61 -153 44 -190 -38 -1 -2 -17 6 -35 17 -19 12 -47 21 -64 21
-37 0 -91 -32 -100 -59 -4 -12 -15 -21 -27 -21 -15 0 -18 4 -12 18 4 9 9 33
12 53 12 106 -118 180 -198 113 -17 -15 -33 -24 -36 -22 -2 3 6 12 20 21 34
23 51 78 37 120 -18 54 -61 88 -123 96 -51 7 -52 7 -21 15 91 21 99 162 14
212 -24 14 -28 21 -20 35 15 29 10 82 -11 116 -23 39 -67 63 -115 63 -32 0
-35 2 -25 19 5 11 10 39 10 62 0 35 -6 47 -38 79 -50 50 -98 60 -147 31 -20
-12 -38 -21 -39 -21 -2 0 1 17 7 38 8 32 7 45 -9 78 -23 48 -76 84 -121 84
-42 0 -103 -54 -103 -92 0 -20 -5 -23 -35 -23 -32 0 -35 3 -35 28 0 65 -57
127 -124 134 -42 5 -48 3 -81 -30 -51 -51 -48 -104 12 -168 l24 -26 -37 -24
-37 -24 -31 31 c-60 60 -150 50 -184 -20 -26 -53 15 -144 74 -166 21 -8 22
-12 13 -40 -10 -28 -12 -29 -32 -15 -12 8 -41 15 -65 15 -36 0 -49 -5 -73 -31
l-29 -31 6 30 c28 142 -236 555 -411 642 -63 31 -173 39 -225 17 -55 -24 -116
-72 -159 -127 l-40 -50 -35 59 c-64 105 -195 216 -279 237 -24 6 -29 2 -44
-32z m859 -455 c93 -47 139 -112 159 -222 23 -122 -20 -225 -118 -287 -81 -52
-159 -35 -198 41 -13 25 -13 29 -1 29 19 0 74 64 82 97 11 40 -24 63 -96 63
-43 0 -65 -6 -91 -23 -30 -20 -34 -28 -37 -74 -4 -67 30 -135 93 -191 87 -76
172 -81 301 -18 83 41 188 136 216 194 l15 34 7 -29 c4 -15 19 -43 32 -61 23
-30 24 -34 10 -54 -35 -50 -7 -141 53 -173 17 -8 47 -15 67 -15 37 0 37 0 18
-21 -41 -45 -13 -145 50 -179 24 -12 34 -39 21 -52 -3 -3 -47 17 -98 45 -191
104 -177 93 -177 138 0 33 -7 48 -34 75 -28 28 -41 34 -77 34 -62 0 -105 -29
-120 -80 -12 -39 -13 -40 -48 -34 -180 31 -227 51 -319 138 -29 27 -71 76 -92
109 -36 53 -40 66 -40 122 0 118 62 247 164 343 90 84 164 99 258 51z m6475
-114 c105 -62 204 -251 204 -391 0 -82 -16 -111 -110 -204 -113 -111 -168
-136 -343 -154 l-57 -6 -6 32 c-12 62 -58 98 -123 98 -37 0 -50 -6 -78 -34
-27 -27 -34 -42 -34 -73 l0 -40 -137 -61 c-76 -34 -141 -62 -145 -62 -5 0 -8
9 -8 20 0 11 4 20 10 20 21 0 81 64 91 100 10 31 9 44 -5 70 -20 41 -20 39 3
33 33 -8 88 16 121 53 23 27 30 44 30 77 0 24 -6 51 -13 61 -12 16 -10 22 15
46 16 16 31 42 34 59 l6 30 25 -49 c54 -108 232 -237 343 -248 101 -9 224 84
256 195 13 45 14 60 3 85 -36 86 -250 90 -223 4 11 -35 56 -96 70 -96 34 0 1
-61 -46 -85 -39 -20 -73 -19 -118 4 -85 44 -141 137 -142 232 0 144 74 255
202 301 64 22 116 17 175 -17z m-2837 -480 c-7 -9 -13 -36 -13 -61 0 -28 -5
-44 -12 -44 -22 0 -75 -63 -81 -97 -3 -18 -1 -46 4 -62 10 -27 7 -34 -18 -61
-75 -80 -33 -190 72 -190 18 0 47 9 65 19 29 18 43 18 43 0 0 -5 -13 -15 -29
-24 -39 -20 -71 -74 -71 -119 0 -54 44 -96 100 -96 23 0 50 5 61 10 17 9 19 7
19 -18 0 -44 39 -95 87 -111 56 -20 114 -2 167 51 53 52 71 48 67 -17 -6 -129
124 -184 235 -100 17 13 39 40 48 59 11 23 24 36 36 36 17 0 20 -7 20 -41 0
-58 42 -99 102 -99 24 0 56 8 74 19 32 20 64 74 64 110 0 12 6 21 15 21 9 0
15 -9 15 -21 0 -11 13 -34 29 -50 35 -34 95 -40 142 -12 36 21 73 94 65 127
-5 20 0 26 26 37 23 9 33 10 36 1 8 -24 46 -64 70 -73 39 -15 91 0 127 37 42
42 53 91 31 135 -14 28 -14 35 -3 47 12 11 16 9 27 -18 14 -34 55 -60 95 -60
30 0 31 -5 2 -53 -18 -33 -34 -44 -94 -67 -94 -36 -189 -89 -288 -160 -44 -32
-123 -81 -175 -110 -52 -29 -120 -67 -150 -85 l-55 -33 -135 14 c-377 40 -661
138 -805 279 -67 67 -179 230 -215 315 -35 82 -39 204 -10 290 36 108 119 235
179 276 37 25 52 25 31 -1z m-975 -73 c40 -39 120 -193 140 -267 43 -166 -8
-306 -187 -513 -161 -187 -400 -272 -854 -304 l-172 -12 -158 104 c-88 56
-190 129 -229 160 -92 76 -177 130 -267 169 -69 30 -75 36 -90 77 l-16 44 29
0 c41 0 79 20 95 52 9 17 19 25 29 22 18 -7 18 -14 0 -38 -23 -30 -19 -97 8
-137 26 -40 89 -66 131 -55 28 7 70 42 77 65 4 11 11 11 35 -2 26 -14 30 -20
26 -50 -15 -130 179 -196 228 -77 16 39 32 34 37 -10 7 -67 67 -120 136 -120
52 0 97 43 97 94 0 32 3 36 25 36 14 0 25 -6 25 -13 0 -26 52 -88 90 -107 104
-53 200 1 200 113 0 65 22 69 71 13 47 -53 85 -70 145 -63 55 6 90 35 106 89
9 30 15 37 27 32 9 -4 35 -9 58 -12 37 -3 47 0 73 26 24 24 30 39 30 73 0 49
-28 101 -65 117 -14 6 -25 16 -25 21 0 19 21 23 39 7 32 -29 77 -39 116 -26
46 15 65 44 65 102 0 38 -6 54 -29 80 -27 30 -28 33 -14 65 19 47 3 102 -42
142 -29 25 -35 37 -35 71 0 23 -5 50 -11 61 -9 18 -8 19 8 11 10 -6 32 -24 48
-40z m-2070 8 c3 -5 -1 -10 -10 -10 -9 0 -13 5 -10 10 3 6 8 10 10 10 2 0 7
-4 10 -10z m5080 -70 c3 -5 -1 -10 -9 -10 -9 0 -16 5 -16 10 0 6 4 10 9 10 6
0 13 -4 16 -10z m-8618 -412 c-3 -7 -5 -2 -5 12 0 14 2 19 5 13 2 -7 2 -19 0
-25z m12100 -265 c-3 -10 -5 -4 -5 12 0 17 2 24 5 18 2 -7 2 -21 0 -30z m206
-40 c-7 -2 -21 -2 -30 0 -10 3 -4 5 12 5 17 0 24 -2 18 -5z m-6503 -77 c0 -5
-7 -3 -15 4 -8 7 -12 17 -9 22 7 10 24 -9 24 -26z m711 -108 c30 -24 81 -59
112 -77 68 -39 92 -77 84 -133 -6 -47 -21 -65 -103 -123 -34 -25 -74 -59 -89
-77 -26 -31 -28 -31 -41 -13 -20 27 -17 35 12 35 16 0 39 13 60 34 31 31 34
39 34 94 0 69 -13 114 -48 161 -27 36 -84 65 -114 58 -21 -6 -22 0 -3 33 8 14
14 36 15 49 0 17 3 21 13 14 6 -6 37 -30 68 -55z m-986 -125 c5 -20 3 -23 -19
-23 -16 0 -41 -14 -63 -34 -33 -30 -37 -39 -41 -95 -2 -33 -7 -61 -11 -61 -15
0 -41 61 -41 98 0 50 19 74 95 117 62 35 68 35 80 -2z"/>
<path d="M2111 3554 l-21 -26 -18 22 c-25 30 -69 21 -78 -16 -6 -23 -8 -24
-23 -9 -10 8 -25 15 -34 15 -19 0 -52 -45 -43 -59 11 -17 -14 -23 -30 -7 -21
21 -37 20 -59 -4 -12 -14 -15 -27 -10 -47 5 -23 4 -26 -6 -15 -7 6 -22 12 -32
12 -25 0 -97 -72 -97 -98 0 -11 -7 -25 -16 -33 -10 -8 -14 -22 -11 -39 4 -20
1 -28 -16 -35 -19 -9 -22 -19 -24 -72 -2 -69 12 -88 57 -76 l23 6 -23 -30
c-18 -25 -20 -34 -11 -52 13 -24 53 -28 71 -7 6 8 18 12 26 9 11 -4 12 -9 5
-16 -16 -16 -13 -53 4 -67 22 -18 63 2 71 35 7 30 15 32 32 5 24 -38 82 -20
82 27 0 15 5 21 14 17 26 -10 56 15 56 45 0 20 7 31 25 39 19 9 25 19 25 42 0
17 6 39 12 50 10 16 10 24 0 40 -10 17 -9 23 9 41 12 12 19 29 16 40 -4 13 0
19 12 19 28 0 54 35 46 61 -7 21 -6 21 15 6 16 -11 29 -13 46 -7 15 6 26 5 30
-1 3 -6 19 -9 34 -7 24 4 28 1 28 -20 0 -13 5 -28 12 -32 9 -6 9 -13 1 -28
-14 -26 -14 -28 4 -46 11 -10 26 -13 53 -9 45 7 62 19 62 45 0 10 6 29 14 41
8 13 13 45 12 77 -1 49 -3 55 -24 58 -13 2 -30 -2 -38 -8 -18 -16 -18 -5 1 24
9 13 13 30 9 39 -7 19 -39 31 -55 22 -6 -4 -17 2 -25 14 -19 27 -58 27 -85 0
-11 -11 -22 -19 -23 -17 -1 2 -7 15 -14 31 -16 37 -62 38 -91 1z"/>
<path d="M10622 3398 c-7 -7 -12 -20 -12 -30 0 -24 -4 -23 -34 7 -30 30 -57
32 -80 6 -10 -11 -25 -17 -37 -14 -39 11 -66 -45 -36 -76 10 -10 7 -10 -15 0
-42 18 -56 0 -56 -71 0 -33 4 -63 9 -66 5 -3 9 -15 9 -27 0 -12 4 -28 9 -35 9
-15 77 -33 97 -25 19 7 28 41 15 57 -8 10 -7 17 4 26 8 7 15 21 15 31 0 15 5
18 24 13 13 -3 27 -1 30 5 4 5 21 7 40 4 19 -3 36 -1 40 6 13 20 23 12 18 -14
-5 -30 13 -55 39 -55 15 0 18 -5 13 -24 -4 -18 0 -28 18 -42 23 -17 23 -19 7
-35 -17 -17 -16 -59 2 -59 5 0 6 -13 3 -29 -5 -22 -1 -32 19 -48 17 -13 24
-27 21 -39 -7 -25 29 -58 54 -52 15 4 18 1 15 -12 -5 -18 28 -60 47 -60 6 0
19 9 30 20 19 19 47 19 36 1 -8 -13 24 -51 43 -51 26 0 44 26 39 55 -7 32 8
42 31 21 22 -20 45 -20 61 -1 13 16 6 65 -10 65 -6 0 -10 5 -10 11 0 7 11 8
29 4 37 -8 66 26 50 57 -7 14 -7 24 2 34 15 19 -3 64 -26 64 -11 0 -14 6 -9
25 4 17 1 32 -10 44 -9 10 -14 25 -11 34 8 18 -71 107 -95 107 -9 0 -21 -5
-28 -12 -10 -10 -11 -6 -6 18 10 50 -36 83 -69 49 -17 -17 -27 -10 -27 20 0
30 -33 58 -59 50 -12 -3 -21 -11 -21 -16 0 -5 -4 -9 -10 -9 -5 0 -10 8 -10 18
0 42 -67 61 -77 22 -7 -27 -15 -25 -35 10 -13 22 -24 30 -46 30 -15 0 -33 -5
-40 -12z"/>
</g>
</svg>
